<?xml version="1.0" encoding="utf-8"?>
<!-- Generator: Adobe Illustrator 22.1.0, SVG Export Plug-In . SVG Version: 6.00 Build 0)  -->
<svg version="1.1"
	 id="svg8" inkscape:version="0.92.2 5c3e80d, 2017-08-06" sodipodi:docname="MyModule.svg" xmlns:cc="http://creativecommons.org/ns#" xmlns:dc="http://purl.org/dc/elements/1.1/" xmlns:inkscape="http://www.inkscape.org/namespaces/inkscape" xmlns:rdf="http://www.w3.org/1999/02/22-rdf-syntax-ns#" xmlns:sodipodi="http://sodipodi.sourceforge.net/DTD/sodipodi-0.dtd" xmlns:svg="http://www.w3.org/2000/svg"
	 xmlns="http://www.w3.org/2000/svg" xmlns:xlink="http://www.w3.org/1999/xlink" x="0px" y="0px" viewBox="0 0 90 380"
	 enable-background="new 0 0 90 380" xml:space="preserve">
<sodipodi:namedview  bordercolor="#666666" borderopacity="1.0" id="base" inkscape:bbox-nodes="true" inkscape:current-layer="layer1" inkscape:cx="188.48062" inkscape:cy="170.63765" inkscape:document-units="mm" inkscape:pageopacity="0.0" inkscape:pageshadow="2" inkscape:snap-bbox="true" inkscape:snap-bbox-edge-midpoints="true" inkscape:snap-page="true" inkscape:window-height="900" inkscape:window-maximized="0" inkscape:window-width="1600" inkscape:window-x="0" inkscape:window-y="0" inkscape:zoom="1.4" pagecolor="#ffffff" showgrid="false" units="px">
	</sodipodi:namedview>
<path id="rect817" inkscape:connector-curvature="0" fill="#282C30" d="M0,0h90v380H0V0z"/>
<g>
	<path fill="#17191C" d="M75.8,308H54.3c-5.2,0-9.3-4.2-9.3-9.3v-65c0-5.2,4.2-9.3,9.3-9.3h21.5c5.2,0,9.3,4.2,9.3,9.3v65
		C85.2,303.8,81,308,75.8,308z"/>
	<path fill="#17191C" d="M75.8,249.4H14.2c-5.2,0-9.3-4.2-9.3-9.3v-98.3c0-5.2,4.2-9.3,9.3-9.3h61.7c5.2,0,9.3,4.2,9.3,9.3v98.3
		C85.2,245.2,81,249.4,75.8,249.4z"/>
	<path fill="#17191C" d="M35.6,249.4c5.2,0,9.3,4.2,9.3,9.3v-9.3H35.6z"/>
</g>
<path fill="#3B4047" d="M75.8,305H54.3c-5.2,0-9.3-4.2-9.3-9.3v-65c0-5.2,4.2-9.3,9.3-9.3h21.5c5.2,0,9.3,4.2,9.3,9.3v65
	C85.2,300.8,81,305,75.8,305z"/>
<path fill="#3B4047" d="M75.8,246.4H14.2c-5.2,0-9.3-4.2-9.3-9.3v-98.3c0-5.2,4.2-9.3,9.3-9.3h61.7c5.2,0,9.3,4.2,9.3,9.3v98.3
	C85.2,242.2,81,246.4,75.8,246.4z"/>
<path fill="#3A4145" d="M75.8,80.7H14.2c-5.2,0-9.3-4.2-9.3-9.3V45.3c0-5.2,4.2-9.3,9.3-9.3h61.7c5.2,0,9.3,4.2,9.3,9.3v26.1
	C85.2,76.6,81,80.7,75.8,80.7z"/>
<path d="M37,232.9H15.8c-2,0-3.7-1.7-3.7-3.7v-21.3c0-2,1.7-3.7,3.7-3.7H37c2,0,3.7,1.7,3.7,3.7v21.3
	C40.7,231.2,39.1,232.9,37,232.9z"/>
<path d="M75.1,232.9H53.9c-2,0-3.7-1.7-3.7-3.7v-21.3c0-2,1.7-3.7,3.7-3.7h21.3c2,0,3.7,1.7,3.7,3.7v21.3
	C78.8,231.2,77.2,232.9,75.1,232.9z"/>
<g>
	<path fill="#FFFFFF" d="M55,123.7h-3.8v-5.6H55v1h-2.8v1.2h2.4v0.9h-2.4v1.4H55V123.7z"/>
	<path fill="#FFFFFF" d="M60.5,123.7h-1.2l-1.3-2l-1.3,2h-1.2l1.9-2.9l-1.8-2.7h1.2l1.2,1.9l1.2-1.9h1.2l-1.8,2.7L60.5,123.7z"/>
	<path fill="#FFFFFF" d="M63.4,121.4h-1.2v2.2h-1v-5.6h2.2c1.1,0,1.9,0.5,1.9,1.7C65.2,121,64.5,121.4,63.4,121.4z M63.3,119h-1.1
		v1.4h1.1c0.5,0,0.9-0.1,0.9-0.7C64.2,119.1,63.8,119,63.3,119z"/>
	<path fill="#FFFFFF" d="M72.6,122.7c-0.6,0.7-1,1-1.9,1c-1.7,0-2.4-1.4-2.4-2.9c0-1.5,0.7-2.9,2.4-2.9c0.9,0,1.4,0.3,1.9,0.9
		l-0.7,0.7c-0.3-0.4-0.7-0.6-1.2-0.6c-1.1,0-1.4,1-1.4,1.9c0,0.9,0.3,1.9,1.4,1.9c0.6,0,0.9-0.3,1.2-0.7L72.6,122.7z"/>
	<path fill="#FFFFFF" d="M77.5,118.1l-1.9,5.6h-1l-1.9-5.6h1.1l1.3,4.1l1.3-4.1H77.5z"/>
</g>
<g>
	<g>
		<path fill="#B2BBC4" d="M10.6,286.9H6.4v-6.3h4.2v1.1H7.5v1.4h2.7v1.1H7.5v1.6h3.1V286.9z"/>
		<path fill="#B2BBC4" d="M16.8,286.9h-1.4l-1.4-2.3l-1.4,2.3h-1.3l2.1-3.2l-2-3.1h1.4l1.3,2.1l1.3-2.1h1.3l-2,3.1L16.8,286.9z"/>
		<path fill="#B2BBC4" d="M21.9,281.8h-1.8v5.2H19v-5.2h-1.8v-1.1h4.8V281.8z"/>
		<path fill="#B2BBC4" d="M30.1,285.9c-0.7,0.8-1.1,1.1-2.2,1.1c-1.9,0-2.7-1.5-2.7-3.2c0-1.7,0.8-3.2,2.7-3.2c1,0,1.5,0.3,2.2,1.1
			l-0.8,0.8c-0.4-0.4-0.7-0.7-1.4-0.7c-1.2,0-1.5,1.1-1.5,2.1c0,1,0.4,2.1,1.5,2.1c0.6,0,1-0.3,1.4-0.8L30.1,285.9z"/>
		<path fill="#B2BBC4" d="M34.8,286.9H31v-6.3h1.1v5.2h2.8V286.9z"/>
		<path fill="#B2BBC4" d="M35.8,286.9v-6.3H37v6.3H35.8z M38.3,283.8l2.3,3.2h-1.3l-2.2-3.2l2.1-3.1h1.3L38.3,283.8z"/>
	</g>
</g>
<g>
	<circle fill="#303030" cx="8.1" cy="9.2" r="6.6"/>
	<linearGradient id="SVGID_1_" gradientUnits="userSpaceOnUse" x1="1.4597" y1="8.0647" x2="14.7547" y2="8.0647">
		<stop  offset="0" style="stop-color:#B5B5B5"/>
		<stop  offset="1" style="stop-color:#000000"/>
	</linearGradient>
	<circle fill="url(#SVGID_1_)" cx="8.1" cy="8.1" r="6.6"/>
	<linearGradient id="SVGID_2_" gradientUnits="userSpaceOnUse" x1="13.629" y1="8.0647" x2="2.5854" y2="8.0647">
		<stop  offset="0" style="stop-color:#BFBFBF"/>
		<stop  offset="1" style="stop-color:#2B2B2B"/>
	</linearGradient>
	<circle fill="url(#SVGID_2_)" cx="8.1" cy="8.1" r="5.5"/>
	<linearGradient id="SVGID_3_" gradientUnits="userSpaceOnUse" x1="12.5789" y1="8.0647" x2="3.6355" y2="8.0647">
		<stop  offset="0" style="stop-color:#363636"/>
		<stop  offset="1" style="stop-color:#000000"/>
	</linearGradient>
	<polygon fill="url(#SVGID_3_)" points="10.3,4.2 5.9,4.2 3.6,8.1 5.9,11.9 10.3,11.9 12.6,8.1 	"/>
	<linearGradient id="SVGID_4_" gradientUnits="userSpaceOnUse" x1="4.1849" y1="8.0647" x2="12.0295" y2="8.0647">
		<stop  offset="0" style="stop-color:#212121"/>
		<stop  offset="1" style="stop-color:#000000"/>
	</linearGradient>
	<polygon fill="url(#SVGID_4_)" points="10.1,4.7 6.1,4.7 4.2,8.1 6.1,11.5 10.1,11.5 12,8.1 	"/>
</g>
<g>
	<circle fill="#303030" cx="8.1" cy="372" r="6.6"/>
	<linearGradient id="SVGID_5_" gradientUnits="userSpaceOnUse" x1="1.4597" y1="370.9042" x2="14.7547" y2="370.9042">
		<stop  offset="0" style="stop-color:#B5B5B5"/>
		<stop  offset="1" style="stop-color:#000000"/>
	</linearGradient>
	<circle fill="url(#SVGID_5_)" cx="8.1" cy="370.9" r="6.6"/>
	<linearGradient id="SVGID_6_" gradientUnits="userSpaceOnUse" x1="13.629" y1="370.9042" x2="2.5854" y2="370.9042">
		<stop  offset="0" style="stop-color:#BFBFBF"/>
		<stop  offset="1" style="stop-color:#2B2B2B"/>
	</linearGradient>
	<circle fill="url(#SVGID_6_)" cx="8.1" cy="370.9" r="5.5"/>
	<linearGradient id="SVGID_7_" gradientUnits="userSpaceOnUse" x1="12.5789" y1="370.9042" x2="3.6355" y2="370.9042">
		<stop  offset="0" style="stop-color:#363636"/>
		<stop  offset="1" style="stop-color:#000000"/>
	</linearGradient>
	<polygon fill="url(#SVGID_7_)" points="10.3,367 5.9,367 3.6,370.9 5.9,374.8 10.3,374.8 12.6,370.9 	"/>
	<linearGradient id="SVGID_8_" gradientUnits="userSpaceOnUse" x1="4.1849" y1="370.9042" x2="12.0295" y2="370.9042">
		<stop  offset="0" style="stop-color:#212121"/>
		<stop  offset="1" style="stop-color:#000000"/>
	</linearGradient>
	<polygon fill="url(#SVGID_8_)" points="10.1,367.5 6.1,367.5 4.2,370.9 6.1,374.3 10.1,374.3 12,370.9 	"/>
</g>
<g>
	<circle fill="#303030" cx="82.6" cy="9.2" r="6.6"/>
	<linearGradient id="SVGID_9_" gradientUnits="userSpaceOnUse" x1="75.9238" y1="8.0647" x2="89.2188" y2="8.0647">
		<stop  offset="0" style="stop-color:#B5B5B5"/>
		<stop  offset="1" style="stop-color:#000000"/>
	</linearGradient>
	<circle fill="url(#SVGID_9_)" cx="82.6" cy="8.1" r="6.6"/>
	<linearGradient id="SVGID_10_" gradientUnits="userSpaceOnUse" x1="88.0931" y1="8.0647" x2="77.0494" y2="8.0647">
		<stop  offset="0" style="stop-color:#BFBFBF"/>
		<stop  offset="1" style="stop-color:#2B2B2B"/>
	</linearGradient>
	<circle fill="url(#SVGID_10_)" cx="82.6" cy="8.1" r="5.5"/>
	<linearGradient id="SVGID_11_" gradientUnits="userSpaceOnUse" x1="87.0429" y1="8.0647" x2="78.0996" y2="8.0647">
		<stop  offset="0" style="stop-color:#363636"/>
		<stop  offset="1" style="stop-color:#000000"/>
	</linearGradient>
	<polygon fill="url(#SVGID_11_)" points="84.8,4.2 80.3,4.2 78.1,8.1 80.3,11.9 84.8,11.9 87,8.1 	"/>
	<linearGradient id="SVGID_12_" gradientUnits="userSpaceOnUse" x1="78.649" y1="8.0647" x2="86.4936" y2="8.0647">
		<stop  offset="0" style="stop-color:#212121"/>
		<stop  offset="1" style="stop-color:#000000"/>
	</linearGradient>
	<polygon fill="url(#SVGID_12_)" points="84.5,4.7 80.6,4.7 78.6,8.1 80.6,11.5 84.5,11.5 86.5,8.1 	"/>
</g>
<g>
	<path fill="#FFCC00" d="M13,47.8h-1.2v-5.4l-0.9,0.6L10.3,42l1.8-1.2H13V47.8z"/>
</g>
<g>
	<path fill="#FFCC00" d="M23.7,47.8h-4.4V47c0.1-2.5,3-3.1,3-4.2c0-0.5-0.5-0.8-1-0.8c-0.5,0-0.9,0.4-1.1,0.8l-1.1-0.6
		c0.5-0.9,1.1-1.4,2.1-1.4c1.2,0,2.2,0.7,2.2,2c0,1.9-2.5,2.2-2.9,3.8h3V47.8z"/>
</g>
<g>
	<path fill="#FFCC00" d="M30.9,47.8c-1.1,0-1.9-0.5-2.3-1.6l1.1-0.5c0.2,0.5,0.6,0.8,1.1,0.8c0.6,0,1.1-0.4,1.1-1c0-0.8-0.7-1-1.4-1
		v-1c0.6,0,1.2-0.1,1.2-0.9c0-0.5-0.5-0.8-1-0.8c-0.5,0-0.8,0.3-1,0.7l-1.1-0.5c0.4-1,1.1-1.5,2.1-1.5c1.2,0,2.1,0.8,2.1,2
		c0,0.5-0.3,1-0.7,1.4c0.5,0.3,0.9,0.9,0.9,1.5C33.1,47,32.1,47.8,30.9,47.8z"/>
</g>
<g>
	<path fill="#9299A1" d="M42.7,46.2h-0.5v1.5H41v-1.5h-3.1v-1l2.7-4.4h1.3l-2.6,4.3H41v-2l1.2,0.1v1.8h0.5V46.2z"/>
</g>
<g>
	<path fill="#9299A1" d="M49.7,47.8c-1.1,0-1.9-0.7-2.2-1.7l1.1-0.4c0.2,0.5,0.5,0.9,1.1,0.9c0.8,0,1.1-0.6,1.1-1.3
		c0-0.7-0.4-1.2-1.1-1.2c-0.4,0-0.7,0.1-1,0.4h-1v-3.7h3.9V42h-2.8v1.3c0.3-0.2,0.6-0.3,1-0.3c1.5,0,2.3,1,2.3,2.4
		C52.1,46.8,51.3,47.8,49.7,47.8z"/>
</g>
<g>
	<g>
		<path fill="#889096" d="M18.5,133.5h1.3l0.9,2.9l0.3,1.1h0l0.3-1.1l0.9-2.9h1.3v7.1h-1v-3.2c0-0.7,0.1-2.1,0.2-2.7h0l-0.4,1.5
			l-0.9,2.5h-0.7l-0.9-2.5l-0.4-1.5h0c0.1,0.6,0.2,2,0.2,2.7v3.2h-1V133.5z"/>
		<path fill="#889096" d="M25.1,138v-4.4h1.1v4.5c0,1.3,0.6,1.8,1.4,1.8c0.8,0,1.4-0.5,1.4-1.8v-4.5h1.1v4.4c0,2-1,2.8-2.4,2.8
			C26,140.8,25.1,139.9,25.1,138z"/>
		<path fill="#889096" d="M32.1,133.5h1.1v6.2h3.4v0.9h-4.5V133.5z"/>
		<path fill="#889096" d="M40,134.5h-2.3v-0.9h5.7v0.9h-2.3v6.2H40V134.5z"/>
		<path fill="#889096" d="M44.8,139.7h1.7v-5.3h-1.7v-0.9h4.6v0.9h-1.7v5.3h1.7v0.9h-4.6V139.7z"/>
		<path fill="#889096" d="M51.3,133.5h2.2c1.6,0,2.7,0.5,2.7,2.1c0,1.5-1.1,2.3-2.7,2.3h-1.2v2.7h-1.1V133.5z M53.5,137.1
			c1.1,0,1.7-0.4,1.7-1.4c0-0.9-0.6-1.3-1.7-1.3h-1v2.6H53.5z"/>
		<path fill="#889096" d="M58.2,133.5h1.1v6.2h3.4v0.9h-4.5V133.5z"/>
		<path fill="#889096" d="M66,138.2l-2.4-4.6h1.2l1,2c0.3,0.6,0.5,1.1,0.8,1.6h0c0.3-0.6,0.5-1.1,0.8-1.6l0.9-2h1.1l-2.4,4.6v2.5H66
			V138.2z"/>
	</g>
</g>
<g>
	<g>
		<path fill="#FFFFFF" d="M21,243.3h-4.8v-0.9c0.2-2.7,3.3-3.4,3.3-4.6c0-0.6-0.5-0.9-1.1-0.9c-0.6,0-1,0.5-1.2,0.9l-1.1-0.7
			c0.5-1,1.2-1.6,2.3-1.6c1.4,0,2.4,0.8,2.4,2.2c0,2.1-2.7,2.4-3.1,4.2H21V243.3z"/>
		<path fill="#FFFFFF" d="M27,243.3h-1.6l-1.1-1.7l-1.1,1.7h-1.6l1.9-2.7l-1.8-2.6h1.6l1,1.5l1-1.5h1.6l-1.8,2.6L27,243.3z"/>
	</g>
</g>
<g>
	<g>
		<path fill="#FFFFFF" d="M51.8,277.1h-3.2v-1h3.2V277.1z"/>
	</g>
</g>
<g>
	<g>
		<path fill="#FFFFFF" d="M82.1,277.2h-1.4v1.8h-0.9v-1.8h-1.4V276h1.4v-1.8h0.9v1.8h1.4V277.2z"/>
	</g>
</g>
<g>
	<g>
		<path fill="#FFFFFF" d="M59.9,241.6h-0.6v1.7H58v-1.7h-3.4v-1.1l2.9-4.8H59l-2.8,4.6H58v-2.1l1.3,0.2v2h0.6V241.6z"/>
		<path fill="#FFFFFF" d="M65.7,243.3h-1.6l-1.1-1.7l-1.1,1.7h-1.6l1.9-2.7l-1.8-2.6h1.6l1,1.5l1-1.5h1.6l-1.8,2.6L65.7,243.3z"/>
	</g>
</g>
<path d="M37,172.6H15.8c-2,0-3.7-1.7-3.7-3.7v-21.3c0-2,1.7-3.7,3.7-3.7H37c2,0,3.7,1.7,3.7,3.7V169C40.7,171,39.1,172.6,37,172.6z"
	/>
<path d="M75.1,172.6H53.9c-2,0-3.7-1.7-3.7-3.7v-21.3c0-2,1.7-3.7,3.7-3.7h21.3c2,0,3.7,1.7,3.7,3.7V169
	C78.8,171,77.2,172.6,75.1,172.6z"/>
<g>
	<g>
		<path fill="#889096" d="M26.6,191.6h1.8c2.1,0,3.3,1.2,3.3,3.5c0,2.3-1.2,3.6-3.3,3.6h-1.9V191.6z M28.3,197.8
			c1.5,0,2.3-0.9,2.3-2.7c0-1.8-0.8-2.6-2.3-2.6h-0.6v5.3H28.3z"/>
		<path fill="#889096" d="M33.1,197.8h1.7v-5.3h-1.7v-0.9h4.6v0.9H36v5.3h1.7v0.9h-4.6V197.8z"/>
		<path fill="#889096" d="M39.1,191.6h1.2l1.1,3.7c0.2,0.8,0.4,1.5,0.7,2.3h0c0.2-0.8,0.4-1.5,0.7-2.3l1.1-3.7h1.1l-2.2,7.1h-1.3
			L39.1,191.6z"/>
		<path fill="#889096" d="M46.2,197.8h1.7v-5.3h-1.7v-0.9h4.6v0.9H49v5.3h1.7v0.9h-4.6V197.8z"/>
		<path fill="#889096" d="M52.6,191.6h1.8c2.1,0,3.3,1.2,3.3,3.5c0,2.3-1.2,3.6-3.3,3.6h-1.9V191.6z M54.3,197.8
			c1.5,0,2.3-0.9,2.3-2.7c0-1.8-0.8-2.6-2.3-2.6h-0.6v5.3H54.3z"/>
		<path fill="#889096" d="M59.4,191.6h4.5v0.9h-3.4v2h2.9v0.9h-2.9v2.3H64v0.9h-4.6V191.6z"/>
	</g>
</g>
<g>
	<g>
		<path fill="#FFFFFF" d="M21,183.1h-4.8v-0.9c0.2-2.7,3.3-3.4,3.3-4.6c0-0.6-0.5-0.9-1.1-0.9c-0.6,0-1,0.5-1.2,0.9l-1.1-0.7
			c0.5-1,1.2-1.6,2.3-1.6c1.4,0,2.4,0.8,2.4,2.2c0,2.1-2.7,2.4-3.1,4.2H21V183.1z"/>
		<path fill="#FFFFFF" d="M27,183.1h-1.6l-1.1-1.7l-1.1,1.7h-1.6l1.9-2.7l-1.8-2.6h1.6l1,1.5l1-1.5h1.6l-1.8,2.6L27,183.1z"/>
	</g>
</g>
<g>
	<g>
		<path fill="#FFFFFF" d="M59.9,181.4h-0.6v1.7H58v-1.7h-3.4v-1.1l2.9-4.8H59l-2.8,4.6H58V178l1.3,0.2v2h0.6V181.4z"/>
		<path fill="#FFFFFF" d="M65.7,183.1h-1.6l-1.1-1.7l-1.1,1.7h-1.6l1.9-2.7l-1.8-2.6h1.6l1,1.5l1-1.5h1.6l-1.8,2.6L65.7,183.1z"/>
	</g>
</g>
<g>
	<path fill="#9299A1" d="M59.3,47.8c-1.5,0-2.3-1.2-2.3-2.6c0-1.8,0.7-3.4,2.1-4.5h1.5c-1,0.8-1.8,1.6-2.2,2.8
		c0.3-0.3,0.6-0.4,1-0.4c1.3,0,2.1,1,2.1,2.3C61.5,46.9,60.7,47.8,59.3,47.8z M59.2,44.3c-0.6,0-1,0.5-1,1.1c0,0.6,0.4,1.1,1,1.1
		c0.6,0,1-0.5,1-1.1C60.3,44.8,59.9,44.3,59.2,44.3z"/>
</g>
<g>
	<path fill="#9299A1" d="M68.6,47.9c-1.3,0-2.3-0.9-2.3-2.2c0-0.7,0.4-1.3,1-1.7c-0.5-0.2-0.8-0.8-0.8-1.3c0-1.1,1-1.9,2.1-1.9
		c1.1,0,2.1,0.8,2.1,1.9c0,0.5-0.3,1.1-0.8,1.3c0.6,0.4,1,1,1,1.7C71,47,70,47.9,68.6,47.9z M68.6,44.5c-0.6,0-1.1,0.5-1.1,1.1
		c0,0.6,0.5,1,1.1,1c0.6,0,1.1-0.4,1.1-1.1C69.7,45,69.3,44.5,68.6,44.5z M68.6,41.8c-0.5,0-0.9,0.3-0.9,0.8c0,0.5,0.4,0.8,0.9,0.8
		c0.5,0,0.9-0.3,0.9-0.8C69.5,42.2,69.1,41.8,68.6,41.8z"/>
</g>
<path fill="#595959" stroke="#595959" stroke-miterlimit="10" d="M39,322.5H8c-1.7,0-3.1-1.4-3.1-3.1v-24.6c0-1.7,1.4-3.1,3.1-3.1
	h31c1.7,0,3.1,1.4,3.1,3.1v24.6C42.1,321.1,40.7,322.5,39,322.5z"/>
<path fill="#2F2F33" d="M38.6,310.6H8.3c-1.6,0-2.8-1.3-2.8-2.8v-12.2c0-1.6,1.3-2.8,2.8-2.8h30.3c1.6,0,2.8,1.3,2.8,2.8v12.2
	C41.5,309.3,40.2,310.6,38.6,310.6z"/>
<path fill="#212124" d="M38.6,292.7H8.3c-0.9,0-1.7,0.4-2.2,1.1h31.6c1.4,0,2.5,1.1,2.5,2.5v13.8c0.8-0.5,1.2-1.4,1.2-2.3v-12.2
	C41.5,294,40.2,292.7,38.6,292.7z"/>
<path fill="#1E2021" d="M50.4,339.2H11c-3.4,0-6.2-2.8-6.2-6.2v-13.6c0-3.4,2.8-6.2,6.2-6.2h39.3c3.4,0,6.2,2.8,6.2,6.2V333
	C56.6,336.4,53.8,339.2,50.4,339.2z"/>
<g>
	<g>
		<path fill="#FFFFFF" d="M76.3,47.8h-1.2v-5.4l-0.9,0.6L73.6,42l1.8-1.2h0.9V47.8z"/>
		<path fill="#FFFFFF" d="M80.2,47.8c-1.5,0-2.3-1.2-2.3-2.6c0-1.8,0.7-3.4,2.1-4.5h1.5c-1,0.8-1.8,1.6-2.2,2.8
			c0.3-0.3,0.6-0.4,1-0.4c1.3,0,2.1,1,2.1,2.3C82.4,46.9,81.6,47.8,80.2,47.8z M80.1,44.3c-0.6,0-1,0.5-1,1.1c0,0.6,0.4,1.1,1,1.1
			c0.6,0,1-0.5,1-1.1C81.2,44.8,80.8,44.3,80.1,44.3z"/>
	</g>
</g>
<g>
	<path fill="#4787C4" d="M78.9,66.5h-2.2v6.2h-1.4v-6.2h-2.2v-1.3h5.7V66.5z"/>
</g>
<g>
	<circle fill="#303030" cx="82.6" cy="372" r="6.6"/>
	<linearGradient id="SVGID_13_" gradientUnits="userSpaceOnUse" x1="75.9238" y1="370.9042" x2="89.2188" y2="370.9042">
		<stop  offset="0" style="stop-color:#B5B5B5"/>
		<stop  offset="1" style="stop-color:#000000"/>
	</linearGradient>
	<circle fill="url(#SVGID_13_)" cx="82.6" cy="370.9" r="6.6"/>
	<linearGradient id="SVGID_14_" gradientUnits="userSpaceOnUse" x1="88.0931" y1="370.9042" x2="77.0494" y2="370.9042">
		<stop  offset="0" style="stop-color:#BFBFBF"/>
		<stop  offset="1" style="stop-color:#2B2B2B"/>
	</linearGradient>
	<circle fill="url(#SVGID_14_)" cx="82.6" cy="370.9" r="5.5"/>
	<linearGradient id="SVGID_15_" gradientUnits="userSpaceOnUse" x1="87.0429" y1="370.9042" x2="78.0996" y2="370.9042">
		<stop  offset="0" style="stop-color:#363636"/>
		<stop  offset="1" style="stop-color:#000000"/>
	</linearGradient>
	<polygon fill="url(#SVGID_15_)" points="84.8,367 80.3,367 78.1,370.9 80.3,374.8 84.8,374.8 87,370.9 	"/>
	<linearGradient id="SVGID_16_" gradientUnits="userSpaceOnUse" x1="78.649" y1="370.9042" x2="86.4936" y2="370.9042">
		<stop  offset="0" style="stop-color:#212121"/>
		<stop  offset="1" style="stop-color:#000000"/>
	</linearGradient>
	<polygon fill="url(#SVGID_16_)" points="84.5,367.5 80.6,367.5 78.6,370.9 80.6,374.3 84.5,374.3 86.5,370.9 	"/>
</g>
<g>
	<path fill="#889096" d="M51.5,282.7h1.9c1.4,0,2.3,0.4,2.3,1.8c0,1.3-1,1.9-2.3,1.9h-1v2.2h-0.9V282.7z M53.3,285.6
		c1,0,1.5-0.4,1.5-1.1c0-0.8-0.5-1-1.5-1h-0.9v2.2H53.3z"/>
	<path fill="#889096" d="M56.9,286.3v-3.7h1v3.7c0,1.1,0.5,1.5,1.2,1.5c0.7,0,1.2-0.4,1.2-1.5v-3.7h0.9v3.7c0,1.6-0.8,2.3-2.1,2.3
		C57.8,288.7,56.9,288,56.9,286.3z"/>
	<path fill="#889096" d="M63,282.7H64v5.1h3v0.8H63V282.7z"/>
	<path fill="#889096" d="M68.1,287.8l0.6-0.6c0.5,0.4,1.1,0.7,1.8,0.7c0.8,0,1.2-0.3,1.2-0.8c0-0.6-0.4-0.7-1.1-1l-0.9-0.4
		c-0.6-0.2-1.3-0.7-1.3-1.5c0-0.9,0.9-1.6,2.1-1.6c0.8,0,1.5,0.3,1.9,0.7l-0.5,0.6c-0.4-0.3-0.9-0.5-1.5-0.5c-0.6,0-1.1,0.3-1.1,0.8
		c0,0.5,0.5,0.7,1.1,0.9l0.8,0.4c0.8,0.3,1.3,0.7,1.3,1.6c0,0.9-0.8,1.7-2.2,1.7C69.4,288.7,68.6,288.3,68.1,287.8z"/>
	<path fill="#889096" d="M74.1,282.7H78v0.8h-2.9v1.7h2.5v0.8h-2.5v1.9h3v0.8h-4V282.7z"/>
	<path fill="#889096" d="M50.7,290.9h1l0.4,3.6c0,0.5,0.1,0.8,0.1,1.4h0c0.1-0.6,0.2-0.9,0.3-1.4l0.6-2h0.8l0.5,2
		c0.1,0.5,0.2,0.8,0.3,1.4h0c0-0.6,0-0.9,0.1-1.4l0.4-3.6h1l-0.9,5.9h-1.1l-0.5-2.2c-0.1-0.4-0.2-0.7-0.2-1.1h0
		c-0.1,0.4-0.1,0.7-0.2,1.1l-0.5,2.2h-1.1L50.7,290.9z"/>
	<path fill="#889096" d="M57.1,296.1h1.5v-4.4h-1.5v-0.8H61v0.8h-1.5v4.4H61v0.8h-3.9V296.1z"/>
	<path fill="#889096" d="M62.6,290.9h1.6c1.8,0,2.9,1,2.9,2.9c0,1.9-1,3-2.8,3h-1.6V290.9z M64.1,296.1c1.3,0,2-0.8,2-2.2
		c0-1.5-0.7-2.2-2-2.2h-0.6v4.4H64.1z"/>
	<path fill="#889096" d="M69.8,291.7h-2v-0.8h4.9v0.8h-2v5.1h-0.9V291.7z"/>
	<path fill="#889096" d="M73.8,290.9h1v2.4h2.3v-2.4h1v5.9h-1v-2.7h-2.3v2.7h-1V290.9z"/>
</g>
<path fill="#323538" d="M79,339.2H39.6c-3.4,0-6.2-2.8-6.2-6.2v-13.6c0-3.4,2.8-6.2,6.2-6.2H79c3.4,0,6.2,2.8,6.2,6.2V333
	C85.2,336.4,82.4,339.2,79,339.2z"/>
<g>
	<g>
		<path fill="#FFFFFF" d="M43.7,330.2h-5.1v-7.6H40v6.3h3.6V330.2z"/>
		<path fill="#FFFFFF" d="M47.7,330.3c-2.5,0-3.4-1.9-3.4-3.9s0.9-3.9,3.4-3.9c2.5,0,3.4,1.9,3.4,3.9
			C51.1,328.4,50.2,330.3,47.7,330.3z M47.7,323.9c-1.6,0-1.9,1.3-1.9,2.5s0.3,2.5,1.9,2.5c1.6,0,1.9-1.3,1.9-2.5
			S49.3,323.9,47.7,323.9z"/>
		<path fill="#FFFFFF" d="M58.5,328.9c-0.9,1-1.5,1.4-2.9,1.4c-2.5,0-3.5-1.9-3.5-3.9c0-2,1.1-3.9,3.5-3.9c1.3,0,2,0.4,2.8,1.3
			l-1.1,0.9c-0.5-0.5-1-0.9-1.8-0.9c-1.6,0-2,1.4-2,2.5s0.5,2.5,2,2.5c0.8,0,1.3-0.4,1.8-0.9L58.5,328.9z"/>
		<path fill="#FFFFFF" d="M59.7,330.2v-7.6h1.5v7.6H59.7z M63,326.3l3.1,3.8h-1.8l-2.9-3.8l2.7-3.8h1.6L63,326.3z"/>
	</g>
</g>
<path fill="none" stroke="#595959" stroke-miterlimit="10" d="M78.9,339.2H11c-3.4,0-6.2-2.8-6.2-6.2v-13.6c0-3.4,2.8-6.2,6.2-6.2
	h67.8c3.4,0,6.2,2.8,6.2,6.2V333C85.1,336.4,82.3,339.2,78.9,339.2z"/>
<rect x="9.8" y="186.5" fill="#889096" width="70.5" height="1.4"/>
<path fill="#282C30" d="M25.2,63.4C14.3,63.4,4.8,69.5,0,78.5v26.8c4.8,9,14.3,15.1,25.2,15.1c15.8,0,28.5-12.8,28.5-28.5
	S41,63.4,25.2,63.4z"/>
<path fill="#FFCC00" d="M57.2,276.9l7.9-13.7v0l7.9,13.7c4.7-2.7,7.9-7.9,7.9-13.7c0-8.8-7.1-15.8-15.8-15.8
	c-8.8,0-15.8,7.1-15.8,15.8C49.3,269,52.5,274.1,57.2,276.9z"/>
<path d="M75.1,115.2H53.9c-2,0-3.7-1.7-3.7-3.7V90.3c0-2,1.7-3.7,3.7-3.7h21.3c2,0,3.7,1.7,3.7,3.7v21.3
	C78.8,113.6,77.2,115.2,75.1,115.2z"/>
<g>
	<g>
		<path fill="#B2BBC4" d="M13.1,117.4h-2.2v6.2H9.5v-6.2H7.3v-1.3h5.7V117.4z"/>
		<path fill="#B2BBC4" d="M19.3,123.7h-5.1v-7.6h5.1v1.3h-3.8v1.7h3.3v1.3h-3.3v1.9h3.8V123.7z"/>
		<path fill="#B2BBC4" d="M27.4,123.7H26v-4.1l-1.6,4.1h-0.9l-1.6-4.1v4.1h-1.4v-7.6h1.3l2.1,5.4l2.1-5.4h1.3V123.7z"/>
		<path fill="#B2BBC4" d="M31.8,120.6h-1.6v3h-1.4v-7.6h2.9c1.5,0,2.6,0.7,2.6,2.3C34.3,120,33.3,120.6,31.8,120.6z M31.7,117.4
			h-1.5v1.9h1.5c0.7,0,1.2-0.2,1.2-1C32.9,117.5,32.4,117.4,31.7,117.4z"/>
		<path fill="#B2BBC4" d="M38.2,123.7c-2.3,0-3.1-1.9-3.1-3.9c0-2,0.9-3.9,3.1-3.9s3.1,1.9,3.1,3.9
			C41.3,121.9,40.5,123.7,38.2,123.7z M38.2,117.3c-1.5,0-1.8,1.3-1.8,2.5s0.3,2.5,1.8,2.5s1.8-1.3,1.8-2.5S39.7,117.3,38.2,117.3z"
			/>
	</g>
</g>
<g>
	<g>
		<path fill="#FFCC00" d="M17.6,31.8h-3.3c-2,0-3.7-1.6-3.7-3.7v-6.2c0-2,1.6-3.7,3.7-3.7h2.1v0.9h-2.1c-1.5,0-2.7,1.2-2.7,2.7V28
			c0,1.5,1.2,2.7,2.7,2.7h3.3V31.8z"/>
	</g>
	<rect x="22.3" y="30.6" fill="#FFCC00" width="1.6" height="1.3"/>
	<path fill="#FFCC00" d="M22,32.4l-4.2-0.1c-0.1,0-0.2-0.1-0.2-0.3v-1.5c0-0.1,0.1-0.2,0.2-0.3l4.2-0.1c0.1,0,0.3,0.1,0.3,0.3v1.8
		C22.3,32.3,22.2,32.4,22,32.4z"/>
	<rect x="24.1" y="30.6" fill="#FFCC00" width="0.4" height="1.3"/>
	<g>
		<polygon fill="#FFCC00" points="26.4,30.4 26,30.4 24.8,30.6 24.8,32 26,32.2 26.4,32.2 26.8,32 26.8,30.6 		"/>
	</g>
</g>
<path fill="#FFCC00" d="M21.9,28.4h-4V18h3.8c2,0,3.6,0.8,3.6,3c0,0.7-0.3,1.4-0.9,1.9c0.9,0.5,1.3,1.4,1.3,2.3
	C25.6,27.6,24,28.4,21.9,28.4z M21.7,19.8h-1.9v2.5h1.9c0.9,0,1.7-0.2,1.7-1.3S22.6,19.8,21.7,19.8z M21.9,24h-2.1v2.7h2.1
	c1,0,1.8-0.2,1.8-1.3C23.8,24.1,22.9,24,21.9,24z"/>
<path fill="#FFFFFF" d="M33,25.1h-4.4c0.1,1,0.6,1.7,1.6,1.7c0.7,0,1.2-0.3,1.6-0.7l1.1,1.1c-0.8,0.8-1.6,1.3-2.7,1.3
	c-2.3,0-3.5-1.7-3.5-3.8c0-2.1,1.1-3.8,3.4-3.8c1.8,0,2.9,1.5,2.9,3.6V25.1z M31.4,24c-0.1-0.8-0.4-1.4-1.3-1.4
	c-0.9,0-1.3,0.6-1.4,1.4H31.4z"/>
<path fill="#FFFFFF" d="M40.3,28.2l-1.5,0.4L38.6,28c-0.5,0.4-1.2,0.6-1.8,0.6c-1.4,0-2.7-0.8-2.7-2.4c0-1.3,0.8-2.2,2.6-2.3
	c0.4,0,1.1,0,1.1,0c0.2,0,0.4-0.1,0.4-0.2v-0.3c0-0.5-0.5-0.8-1-0.8c-0.6,0-1.1,0.2-1.4,0.8l-1.5-0.5c0.4-1.3,1.5-1.8,2.9-1.8
	c1.3,0,2.7,0.9,2.7,2.3v3.8L40.3,28.2z M38.3,25.1c-0.2,0.1-0.3,0.1-0.5,0.1h-0.9c-0.6,0-1.2,0.3-1.2,1c0,0.6,0.6,0.9,1.1,0.9
	c0.6,0,1-0.2,1.5-0.6V25.1z"/>
<path fill="#FFFFFF" d="M44.9,22.6h-1v3.7c0,0.4,0.2,0.7,0.7,0.7v1.5H44c-1.2,0-1.8-0.9-1.8-2v-3.8h-0.9v-1.5h0.9v-2H44v2h1V22.6z"
	/>
<path fill="#FFFFFF" d="M49.5,28.5c-2.4,0-3.3-1.6-3.3-3.8c0-2.2,0.9-3.8,3.3-3.8s3.3,1.6,3.3,3.8C52.7,26.9,51.8,28.5,49.5,28.5z
	 M49.5,22.7c-1.3,0-1.5,1.1-1.5,2.1c0,1,0.2,2.1,1.5,2.1c1.3,0,1.5-1,1.5-2.1C50.9,23.7,50.7,22.7,49.5,22.7z"/>
<path fill="#FFFFFF" d="M60.3,21.1l-2.8,7.3H56l-2.8-7.3h1.9l1.6,4.8l1.7-4.8H60.3z"/>
<path fill="#FFFFFF" d="M67.6,28.4h-1.8v-4.1c0-0.9-0.2-1.6-1.3-1.6c-0.7,0-1.2,0.6-1.2,1.2v4.5h-1.8v-7.3H63l0.1,0.4
	c0.4-0.4,1-0.6,1.5-0.6c2.2,0,3,1.3,3,3.4V28.4z"/>
<path fill="#FFFFFF" d="M70.3,19.7c-0.6,0-1-0.5-1-1.1c0-0.6,0.5-1,1-1c0.6,0,1.1,0.5,1.1,1C71.4,19.3,70.9,19.7,70.3,19.7z
	 M71.2,28.4h-1.7v-7.3h1.7V28.4z"/>
<path fill="#FFFFFF" d="M74.9,28.4h-1.7V18h1.7V28.4z M79.4,28.4h-1.9l-2.5-4l2.1-3.3h1.9l-2.1,3.3L79.4,28.4z"/>
<path fill="#3B4047" d="M35.6,246.4c5.2,0,9.3,4.2,9.3,9.3v-9.3H35.6z"/>
<path fill="#FFCC00" d="M14.3,110.7l10.9-18.8v0l10.9,18.8c6.5-3.8,10.9-10.8,10.9-18.8c0-12-9.7-21.7-21.7-21.7
	c-12,0-21.7,9.7-21.7,21.7C3.5,100,7.9,107,14.3,110.7z"/>
<g>
	<line fill="none" stroke="#212428" stroke-width="3" stroke-miterlimit="10" x1="25.2" y1="91.9" x2="38.7" y2="74.2"/>
	<line fill="none" stroke="#212428" stroke-width="3" stroke-miterlimit="10" x1="25.2" y1="91.9" x2="46.7" y2="86.1"/>
	<line fill="none" stroke="#212428" stroke-width="3" stroke-miterlimit="10" x1="25.2" y1="91.9" x2="45.8" y2="100.4"/>
	<line fill="none" stroke="#212428" stroke-width="3" stroke-miterlimit="10" x1="25.2" y1="91.9" x2="25.2" y2="69.6"/>
	<line fill="none" stroke="#212428" stroke-width="3" stroke-miterlimit="10" x1="25.2" y1="91.9" x2="11.6" y2="74.3"/>
	<line fill="none" stroke="#212428" stroke-width="3" stroke-miterlimit="10" x1="25.2" y1="91.9" x2="3.6" y2="86.2"/>
	<line fill="none" stroke="#212428" stroke-width="3" stroke-miterlimit="10" x1="25.2" y1="91.9" x2="4.6" y2="100.5"/>
</g>
<g>
	<path fill="#D9D9D9" d="M26.3,350.7c-2.7,0-4.8,2.2-4.8,4.8c0,2.7,2.2,4.8,4.8,4.8c2.7,0,4.8-2.2,4.8-4.8
		C31.1,352.9,28.9,350.7,26.3,350.7z M26.3,358.2c-1.5,0-2.7-1.2-2.7-2.7c0-1.5,1.2-2.7,2.7-2.7c1.5,0,2.7,1.2,2.7,2.7
		C28.9,357,27.7,358.2,26.3,358.2z"/>
	<path fill="#D9D9D9" d="M46.4,350.7v0.8c-0.8-0.5-1.7-0.8-2.7-0.8c-2.7,0-4.8,2.2-4.8,4.8c0,2.7,2.2,4.8,4.8,4.8
		c1,0,1.9-0.3,2.7-0.8v0.8h2.1v-9.6H46.4z M43.7,358.2c-1.5,0-2.7-1.2-2.7-2.7c0-1.5,1.2-2.7,2.7-2.7c1.5,0,2.7,1.2,2.7,2.7
		C46.4,357,45.2,358.2,43.7,358.2z"/>
	<path fill="#D9D9D9" d="M18.7,354.4c1-0.9,1.6-2.2,1.6-3.7h-2c0,1.5-1.1,2.7-2.5,2.7c0,0,0,0,0,0v-2.7h-2.1v9.6h2.1v-4.8
		c0,0,0,0,0,0c1.5,0,2.7,1.2,2.7,2.7v2.1h2.1v-2.1C20.6,356.7,19.8,355.3,18.7,354.4z"/>
	<path fill="#D9D9D9" d="M39.1,351.6c-1.3-1-3.1-1.1-4.7-0.4v-0.5h-2.1v9.6h2.1v-6.7c1-1,2.6-1.1,3.6-0.2
		C38.3,352.8,38.7,352.1,39.1,351.6z"/>
	<path fill="#D9D9D9" d="M56.8,357.4c-0.5,0.5-1.2,0.8-1.9,0.8c-1.5,0-2.7-1.2-2.7-2.7v-4.8h-2.1v4.8c0,2.7,2.2,4.8,4.8,4.8
		c1.3,0,2.5-0.5,3.4-1.4L56.8,357.4z"/>
	<g>
		<polygon fill="#949494" points="76.6,353.6 74.7,351.7 72.3,354.1 69.8,351.7 69.8,351.7 69.8,351.7 69.8,351.7 68.6,350.4 
			67.1,350.8 66.7,352.3 70.4,356 66.1,360.3 69.8,360.4 72.3,357.9 74.7,360.4 78.5,360.4 74.2,356 		"/>
		<path fill="#949494" d="M64.2,348.1c-2.7,0-4.8,2.2-4.8,4.8v7.5h2.7v-3.8h2.1v-2.7h-2.1v-1c0-1.2,1-2.1,2.1-2.1
			c0.6,0,1.1,0.2,1.5,0.6l0.4-1.5l1.5-0.4l0,0C66.8,348.6,65.6,348.1,64.2,348.1z"/>
	</g>
</g>
</svg>
