<?xml version="1.0" encoding="utf-8"?>
<!-- Generator: Adobe Illustrator 22.1.0, SVG Export Plug-In . SVG Version: 6.00 Build 0)  -->
<svg version="1.1"
	 id="svg8" inkscape:version="0.92.2 5c3e80d, 2017-08-06" sodipodi:docname="MyModule.svg" xmlns:cc="http://creativecommons.org/ns#" xmlns:dc="http://purl.org/dc/elements/1.1/" xmlns:inkscape="http://www.inkscape.org/namespaces/inkscape" xmlns:rdf="http://www.w3.org/1999/02/22-rdf-syntax-ns#" xmlns:sodipodi="http://sodipodi.sourceforge.net/DTD/sodipodi-0.dtd" xmlns:svg="http://www.w3.org/2000/svg"
	 xmlns="http://www.w3.org/2000/svg" xmlns:xlink="http://www.w3.org/1999/xlink" x="0px" y="0px" viewBox="0 0 870 380"
	 enable-background="new 0 0 870 380" xml:space="preserve">
<sodipodi:namedview  bordercolor="#666666" borderopacity="1.0" id="base" inkscape:bbox-nodes="true" inkscape:current-layer="layer1" inkscape:cx="188.48062" inkscape:cy="170.63765" inkscape:document-units="mm" inkscape:pageopacity="0.0" inkscape:pageshadow="2" inkscape:snap-bbox="true" inkscape:snap-bbox-edge-midpoints="true" inkscape:snap-page="true" inkscape:window-height="900" inkscape:window-maximized="0" inkscape:window-width="1600" inkscape:window-x="0" inkscape:window-y="0" inkscape:zoom="1.4" pagecolor="#ffffff" showgrid="false" units="px">
	</sodipodi:namedview>
<g id="layer1" transform="translate(0,-196.45832)" inkscape:groupmode="layer" inkscape:label="Layer 1">
	<path id="rect817" inkscape:connector-curvature="0" fill="#515559" d="M0,196.5h870v380H0V196.5z"/>
	<g>
		<path fill="#C80000" d="M456.5,570.8h-42.9c-2,0-3.7-1.7-3.7-3.7v-5.3c0-2,1.7-3.7,3.7-3.7h42.9c2,0,3.7,1.7,3.7,3.7v5.3
			C460.1,569.2,458.5,570.8,456.5,570.8z"/>
		<path fill="#FFFFFF" d="M456.5,570.8h-12.1v-12.6h12.1c2,0,3.7,1.7,3.7,3.7v5.3C460.1,569.2,458.5,570.8,456.5,570.8z"/>
		<g>
			<path fill="#FFFFFF" d="M412.5,567.9v-7h1.3v7H412.5z M415.3,564.3l2.6,3.5h-1.5l-2.5-3.5l2.3-3.5h1.4L415.3,564.3z"/>
			<path fill="#FFFFFF" d="M420.9,567.9c-2.1,0-2.9-1.7-2.9-3.6s0.8-3.6,2.9-3.6s2.9,1.7,2.9,3.6C423.8,566.2,423,567.9,420.9,567.9
				z M420.9,562c-1.4,0-1.6,1.2-1.6,2.3s0.3,2.3,1.6,2.3s1.6-1.2,1.6-2.3S422.3,562,420.9,562z"/>
			<path fill="#FFFFFF" d="M428.4,564.8c0.1,0.1,0.3,0.3,0.3,0.4l1.6,2.6h-1.5l-1.4-2.4c-0.2-0.4-0.3-0.5-0.8-0.5h-0.5v2.9H425v-7
				h2.5c1.4,0,2.4,0.6,2.4,2.1C429.9,563.9,429.3,564.6,428.4,564.8z M427.5,562.1h-1.3v1.8h1.3c0.6,0,1.1-0.2,1.1-0.9
				C428.6,562.2,428.1,562.1,427.5,562.1z"/>
			<path fill="#FFFFFF" d="M437.1,567.9h-1.4L435,566h-2.5l-0.7,1.8h-1.4l2.7-7h1.1L437.1,567.9z M434.6,564.9l-0.8-2.3l-0.8,2.3
				H434.6z"/>
			<path fill="#FFFFFF" d="M442.1,567.9h-4.3v-7h1.3v5.8h3.1V567.9z"/>
		</g>
		<g>
			<path fill="#C80000" d="M451.2,561.5h-3.8v2.5h3.4v0.6h-3.4v3.3h-0.6v-7h4.4V561.5z"/>
			<path fill="#C80000" d="M457.3,567.9h-0.7l-2-3.1l-2,3.1h-0.7l2.3-3.6l-2.2-3.4h0.7l1.8,2.9l1.8-2.9h0.7l-2.2,3.4L457.3,567.9z"
				/>
		</g>
	</g>
	<g>
		<g>
			<path fill="#FFFFFF" d="M416.3,214.5h-2v-5.8l-2.3,5.8h-1.3l-2.3-5.8v5.8h-2v-10.7h1.9l3,7.6l3-7.6h1.8V214.5z"/>
			<path fill="#FFFFFF" d="M419.2,205.6c-0.6,0-1.1-0.5-1.1-1.1s0.5-1.1,1.1-1.1c0.6,0,1.1,0.5,1.1,1.1S419.8,205.6,419.2,205.6z
				 M420.1,214.5h-1.8v-7.6h1.8V214.5z"/>
			<path fill="#FFFFFF" d="M428.9,214.5h-2.2l-1.5-2.4l-1.5,2.4h-2.2l2.7-3.9l-2.6-3.7h2.2l1.4,2.2l1.4-2.2h2.2l-2.6,3.7
				L428.9,214.5z"/>
			<path fill="#FFFFFF" d="M432.7,214.7c-2.4,0-3.4-1.7-3.4-3.9c0-2.2,1-3.9,3.4-3.9c2.4,0,3.4,1.7,3.4,3.9
				C436,213,435.1,214.7,432.7,214.7z M432.7,208.6c-1.3,0-1.5,1.1-1.5,2.2c0,1.1,0.2,2.1,1.5,2.1c1.3,0,1.5-1.1,1.5-2.1
				C434.2,209.7,434,208.6,432.7,208.6z"/>
			<path fill="#FFFFFF" d="M443.9,206.9l-2.9,7.6h-1.5l-2.9-7.6h2l1.6,5l1.7-5H443.9z"/>
			<path fill="#FFFFFF" d="M451.4,214.5h-1.8v-4.2c0-1-0.2-1.7-1.3-1.7c-0.7,0-1.2,0.6-1.2,1.2v4.7h-1.8v-7.6h1.5l0.1,0.5
				c0.4-0.4,1-0.6,1.6-0.6c2.2,0,3.1,1.4,3.1,3.5V214.5z"/>
			<path fill="#FFFFFF" d="M454.2,205.6c-0.6,0-1.1-0.5-1.1-1.1s0.5-1.1,1.1-1.1c0.6,0,1.1,0.5,1.1,1.1S454.8,205.6,454.2,205.6z
				 M455.1,214.5h-1.8v-7.6h1.8V214.5z"/>
			<path fill="#FFFFFF" d="M458.9,214.5h-1.8v-10.7h1.8V214.5z M463.5,214.5h-2l-2.6-4.2l2.2-3.4h1.9l-2.2,3.4L463.5,214.5z"/>
		</g>
		<rect x="406.5" y="216.1" fill="#C80000" width="9.9" height="2.1"/>
	</g>
</g>
<g>
	<g>
		<path d="M36.7,35.7h-1.5v-6.5l-1.1,0.7l-0.7-1.1l2.2-1.4h1.1V35.7z"/>
	</g>
	<g>
		<path d="M77.9,35.7h-5.3v-1c0.2-3,3.6-3.7,3.6-5.1c0-0.6-0.6-1-1.2-1s-1.1,0.5-1.3,1l-1.3-0.7c0.6-1.1,1.3-1.7,2.6-1.7
			c1.5,0,2.7,0.9,2.7,2.4c0,2.3-3,2.6-3.5,4.6h3.6v1.5H77.9z"/>
	</g>
	<g>
		<path d="M115.2,35.8c-1.4,0-2.3-0.6-2.7-1.9l1.4-0.6c0.2,0.6,0.7,1,1.3,1c0.7,0,1.3-0.5,1.3-1.2c0-1-0.8-1.2-1.7-1.2v-1.2
			c0.7,0,1.5-0.2,1.5-1.1c0-0.6-0.6-1-1.2-1s-1,0.4-1.2,0.9l-1.3-0.6c0.5-1.2,1.3-1.8,2.6-1.8c1.4,0,2.6,1,2.6,2.4
			c0,0.7-0.3,1.3-0.8,1.6c0.6,0.4,1,1.1,1,1.9C117.9,34.8,116.7,35.8,115.2,35.8z"/>
	</g>
	<g>
		<path d="M158.2,33.9h-0.6v1.9h-1.4v-1.9h-3.7v-1.2l3.2-5.3h1.6l-3.1,5.1h2v-2.4l1.4,0.2v2.2h0.6V33.9z"/>
	</g>
	<g>
		<path d="M195.4,35.8c-1.4,0-2.2-0.8-2.7-2.1l1.4-0.4c0.2,0.6,0.6,1.1,1.3,1.1c0.9,0,1.4-0.7,1.4-1.5s-0.4-1.5-1.4-1.5
			c-0.5,0-0.8,0.2-1.2,0.5h-1.3v-4.5h4.7v1.4h-3.3v1.5c0.4-0.3,0.8-0.3,1.2-0.3c1.8,0,2.7,1.2,2.7,2.8
			C198.2,34.6,197.2,35.8,195.4,35.8z"/>
	</g>
	<g>
		<path d="M235.6,35.8c-1.8,0-2.8-1.5-2.8-3.1c0-2.1,0.9-4.1,2.6-5.3h1.8c-1.2,0.9-2.2,1.9-2.7,3.4c0.3-0.3,0.7-0.5,1.2-0.5
			c1.6,0,2.6,1.2,2.6,2.8C238.3,34.7,237.3,35.8,235.6,35.8z M235.5,31.7c-0.7,0-1.2,0.6-1.2,1.4c0,0.7,0.5,1.3,1.2,1.3
			s1.3-0.6,1.3-1.3C236.8,32.3,236.3,31.7,235.5,31.7z"/>
	</g>
	<g>
		<path d="M278.3,28.6c-1.6,2.1-2.4,4.2-2.3,7.1h-1.6c0-2.6,0.8-5.1,2.3-7h-2.4v0.7H273v-2.1h5.3V28.6z"/>
	</g>
	<g>
		<path d="M315.7,35.9c-1.6,0-2.8-1.1-2.8-2.7c0-0.8,0.5-1.6,1.2-2c-0.6-0.3-0.9-1-0.9-1.6c0-1.4,1.2-2.3,2.5-2.3s2.5,0.9,2.5,2.3
			c0,0.6-0.3,1.3-0.9,1.6c0.8,0.5,1.2,1.2,1.2,2C318.6,34.8,317.4,35.9,315.7,35.9z M315.7,31.8c-0.7,0-1.3,0.6-1.3,1.3
			s0.6,1.3,1.3,1.3c0.7,0,1.3-0.5,1.3-1.3C317.1,32.4,316.5,31.8,315.7,31.8z M315.7,28.6c-0.6,0-1,0.4-1,1s0.5,1,1,1
			c0.6,0,1-0.4,1-1C316.8,29,316.3,28.6,315.7,28.6z"/>
	</g>
	<g>
		<path d="M356,35.7h-1.9c1.1-0.9,2.2-1.9,2.7-3.3c-0.3,0.3-0.7,0.4-1.1,0.4c-1.6,0-2.6-1.2-2.6-2.7c0-1.6,1.1-2.9,2.7-2.9
			c1.8,0,2.8,1.5,2.8,3.1C358.5,32.5,357.7,34.4,356,35.7z M355.7,28.7c-0.7,0-1.2,0.6-1.2,1.3s0.5,1.3,1.3,1.3s1.2-0.6,1.2-1.3
			C356.9,29.3,356.4,28.7,355.7,28.7z"/>
	</g>
	<g>
		<path d="M393.5,35.7H392v-6.5l-1.1,0.7l-0.7-1.1l2.2-1.4h1.1V35.7z"/>
		<path d="M398.5,35.8c-2.3,0-3.1-2.4-3.1-4.3c0-1.9,0.8-4.3,3.1-4.3c2.3,0,3,2.3,3,4.3S400.7,35.8,398.5,35.8z M398.5,28.7
			c-1.4,0-1.5,1.9-1.5,2.8c0,1,0.2,2.8,1.5,2.8c1.4,0,1.5-1.9,1.5-2.8S399.8,28.7,398.5,28.7z"/>
	</g>
	<g>
		<path d="M435.2,35.7h-1.5v-6.5l-1.1,0.7l-0.7-1.1l2.2-1.4h1.1V35.7z"/>
		<path d="M440,35.7h-1.5v-6.5l-1.1,0.7l-0.7-1.1l2.2-1.4h1.1V35.7z"/>
	</g>
	<g>
		<path d="M474.1,35.7h-1.5v-6.5l-1.1,0.7l-0.7-1.1l2.2-1.4h1.1V35.7z"/>
		<path d="M481.4,35.7h-5.3v-1c0.2-3,3.6-3.7,3.6-5.1c0-0.6-0.6-1-1.2-1s-1.1,0.5-1.3,1l-1.3-0.7c0.6-1.1,1.3-1.7,2.6-1.7
			c1.5,0,2.7,0.9,2.7,2.4c0,2.3-3,2.6-3.5,4.6h3.6L481.4,35.7L481.4,35.7z"/>
	</g>
	<g>
		<path d="M514.2,35.7h-1.5v-6.5l-1.1,0.7l-0.7-1.1l2.2-1.4h1.1V35.7z"/>
		<path d="M518.7,35.8c-1.4,0-2.3-0.6-2.7-1.9l1.4-0.6c0.2,0.6,0.7,1,1.3,1c0.7,0,1.3-0.5,1.3-1.2c0-1-0.8-1.2-1.7-1.2v-1.2
			c0.7,0,1.5-0.2,1.5-1.1c0-0.6-0.6-1-1.2-1c-0.6,0-1,0.4-1.2,0.9l-1.3-0.6c0.5-1.2,1.3-1.8,2.6-1.8c1.4,0,2.6,1,2.6,2.4
			c0,0.7-0.3,1.3-0.8,1.6c0.6,0.4,1,1.1,1,1.9C521.4,34.8,520.2,35.8,518.7,35.8z"/>
	</g>
	<g>
		<path d="M554.2,35.7h-1.5v-6.5l-1.1,0.7l-0.7-1.1l2.2-1.4h1.1V35.7z"/>
		<path d="M561.6,33.9H561v1.9h-1.4v-1.9h-3.7v-1.2l3.2-5.3h1.6l-3.1,5.1h2v-2.4l1.4,0.2v2.2h0.6V33.9z"/>
	</g>
	<g>
		<path d="M594.4,35.7h-1.5v-6.5l-1.1,0.7l-0.7-1.1l2.2-1.4h1.1V35.7z"/>
		<path d="M598.9,35.8c-1.4,0-2.2-0.8-2.7-2.1l1.4-0.4c0.2,0.6,0.6,1.1,1.3,1.1c0.9,0,1.4-0.7,1.4-1.5s-0.4-1.5-1.4-1.5
			c-0.5,0-0.8,0.2-1.2,0.5h-1.3v-4.5h4.7v1.4h-3.3v1.5c0.4-0.3,0.8-0.3,1.2-0.3c1.8,0,2.7,1.2,2.7,2.8
			C601.7,34.6,600.7,35.8,598.9,35.8z"/>
	</g>
	<g>
		<path d="M634.4,35.7H633v-6.5l-1.1,0.7l-0.7-1.1l2.2-1.4h1.1L634.4,35.7L634.4,35.7z"/>
		<path d="M639,35.8c-1.8,0-2.8-1.5-2.8-3.1c0-2.1,0.9-4.1,2.6-5.3h1.8c-1.2,0.9-2.2,1.9-2.7,3.4c0.3-0.3,0.7-0.5,1.2-0.5
			c1.6,0,2.6,1.2,2.6,2.8C641.8,34.7,640.7,35.8,639,35.8z M639,31.7c-0.7,0-1.2,0.6-1.2,1.4c0,0.7,0.5,1.3,1.2,1.3s1.3-0.6,1.3-1.3
			C640.3,32.3,639.8,31.7,639,31.7z"/>
	</g>
</g>
<path fill="#7D848A" d="M670,113.5H20.3c-5.2,0-9.3-4.2-9.3-9.3V50.4c0-5.2,4.2-9.3,9.3-9.3H670c5.2,0,9.3,4.2,9.3,9.3v53.7
	C679.3,109.3,675.2,113.5,670,113.5z"/>
<path fill="#414447" d="M670,358.5H20.3c-5.2,0-9.3-4.2-9.3-9.3v-95.6c0-5.2,4.2-9.3,9.3-9.3H670c5.2,0,9.3,4.2,9.3,9.3v95.6
	C679.3,354.3,675.2,358.5,670,358.5z"/>
<path fill="#282A2B" d="M670,296.3H20.3c-5.2,0-9.3-4.2-9.3-9.3V256c0-5.2,4.2-9.3,9.3-9.3H670c5.2,0,9.3,4.2,9.3,9.3v30.9
	C679.3,292.1,675.2,296.3,670,296.3z"/>
<path fill="#686E73" d="M670,293H20.3c-5.2,0-9.3-4.2-9.3-9.3V125.9c0-5.2,4.2-9.3,9.3-9.3H670c5.2,0,9.3,4.2,9.3,9.3v157.8
	C679.3,288.8,675.2,293,670,293z"/>
<path fill="#686E73" d="M842.8,296.3H695.6c-5.2,0-9.3-4.2-9.3-9.3V133.8c0-5.2,4.2-9.3,9.3-9.3h147.2c5.2,0,9.3,4.2,9.3,9.3v153.1
	C852.1,292.1,847.9,296.3,842.8,296.3z"/>
<path fill="#7C94AD" d="M852.1,140.7H686.2v-6.9c0-5.2,4.2-9.3,9.3-9.3h147.2c5.2,0,9.3,4.2,9.3,9.3V140.7z"/>
<path fill="#7D848A" d="M842.8,121.2H695.6c-5.2,0-9.3-4.2-9.3-9.3v-85c0-5.2,4.2-9.3,9.3-9.3h147.2c5.2,0,9.3,4.2,9.3,9.3v85
	C852.1,117,847.9,121.2,842.8,121.2z"/>
<path fill="#7C9484" d="M852.1,30.8H686.2v-3.9c0-5.2,4.2-9.3,9.3-9.3h147.2c5.2,0,9.3,4.2,9.3,9.3V30.8z"/>
<g>
	<path fill="#B2BBC4" d="M654.5,135.4H653v2.8h-1.3v-7h2.7c1.4,0,2.4,0.6,2.4,2.1C656.8,134.8,655.9,135.4,654.5,135.4z
		 M654.4,132.4H653v1.8h1.4c0.6,0,1.1-0.1,1.1-0.9C655.5,132.6,655,132.4,654.4,132.4z"/>
	<path fill="#B2BBC4" d="M662.8,138.2h-1.4l-0.7-1.8h-2.5l-0.7,1.8h-1.4l2.7-7h1.1L662.8,138.2z M660.4,135.3l-0.8-2.2l-0.8,2.2
		H660.4z"/>
	<path fill="#B2BBC4" d="M668.6,138.2h-1l-2.8-4.4v4.4h-1.3v-7h1l2.8,4.4v-4.4h1.2V138.2z"/>
</g>
<g>
	<path fill="#B2BBC4" d="M658,206.5l-2.4,7h-1.2l-2.3-7h1.3l1.6,5.1l1.6-5.1H658z"/>
	<path fill="#B2BBC4" d="M661.2,213.6c-2.1,0-2.9-1.7-2.9-3.6s0.8-3.6,2.9-3.6c2.1,0,2.9,1.7,2.9,3.6
		C664.1,211.9,663.3,213.6,661.2,213.6z M661.2,207.7c-1.4,0-1.6,1.2-1.6,2.3s0.3,2.3,1.6,2.3s1.6-1.2,1.6-2.3
		S662.6,207.7,661.2,207.7z"/>
	<path fill="#B2BBC4" d="M669.6,213.5h-4.3v-7h1.2v5.8h3.1V213.5z"/>
</g>
<g>
	<path fill="#B2BBC4" d="M656,286.7h-1.3v-3.7l-1.5,3.7h-0.8l-1.5-3.7v3.7h-1.3v-7h1.2l1.9,5l2-5h1.2V286.7z"/>
	<path fill="#B2BBC4" d="M662.5,283.8c0,1.8-0.7,3-2.6,3c-1.9,0-2.6-1.2-2.6-3v-4.1h1.2v4c0,1,0.2,1.8,1.4,1.8
		c1.2,0,1.4-0.8,1.4-1.8v-4h1.2V283.8z"/>
	<path fill="#B2BBC4" d="M668.7,281h-2v5.7h-1.3V281h-2v-1.2h5.3V281z"/>
	<path fill="#B2BBC4" d="M674.4,286.7h-4.7v-7h4.7v1.2h-3.5v1.6h3v1.2h-3v1.8h3.5V286.7z"/>
</g>
<g>
	<path fill="#B2BBC4" d="M661,315.7h-1.3v-7h1.3V315.7z"/>
	<path fill="#B2BBC4" d="M667.5,315.7h-1l-2.8-4.4v4.4h-1.3v-7h1l2.8,4.4v-4.4h1.2V315.7z"/>
</g>
<g>
	<path fill="#B2BBC4" d="M662.8,336.2c-0.6,0.7-1,1-2,1c-1.7,0-2.4-1.4-2.4-2.9c0-1.5,0.7-2.9,2.4-2.9c0.9,0,1.4,0.3,1.9,0.9
		l-0.7,0.7c-0.3-0.4-0.7-0.7-1.2-0.7c-1.1,0-1.4,1-1.4,1.9c0,0.9,0.3,1.9,1.4,1.9c0.6,0,0.9-0.3,1.2-0.7L662.8,336.2z"/>
	<path fill="#B2BBC4" d="M667.8,331.5l-1.9,5.6h-1l-1.9-5.6h1.1l1.3,4.1l1.3-4.1H667.8z"/>
	<path fill="#B2BBC4" d="M658.4,342.1h-1.2v2.2h-1v-5.6h2.2c1.1,0,1.9,0.5,1.9,1.7C660.3,341.6,659.6,342.1,658.4,342.1z
		 M658.4,339.7h-1.1v1.4h1.1c0.5,0,0.9-0.1,0.9-0.7C659.3,339.8,658.9,339.7,658.4,339.7z"/>
	<path fill="#B2BBC4" d="M665.1,344.3H664l-0.5-1.5h-2l-0.5,1.5h-1.1l2.2-5.6h0.9L665.1,344.3z M663.2,342l-0.7-1.8l-0.7,1.8H663.2z
		"/>
	<path fill="#B2BBC4" d="M669.8,344.3h-0.8l-2.2-3.5v3.5h-1v-5.6h0.8l2.2,3.5v-3.5h1V344.3z"/>
	<path fill="#B2BBC4" d="M658,346.8h1c-1,0.9-1.4,1.9-1.4,2.8c0,0.9,0.3,1.9,1.4,2.8h-1c-0.8-0.7-1.2-1.8-1.2-2.8
		C656.7,348.6,657.1,347.5,658,346.8z"/>
	<path fill="#B2BBC4" d="M662.1,352.4H660v-5.6h2c1.1,0,1.9,0.5,1.9,1.6c0,0.4-0.2,0.8-0.5,1c0.5,0.3,0.7,0.8,0.7,1.3
		C664.1,351.9,663.2,352.4,662.1,352.4z M662,347.7h-1v1.4h1c0.5,0,0.9-0.1,0.9-0.7S662.5,347.7,662,347.7z M662.1,350H661v1.4h1.1
		c0.5,0,1-0.1,1-0.7C663.1,350.1,662.6,350,662.1,350z"/>
	<path fill="#B2BBC4" d="M666,352.4h-1v-5.6h1V352.4z"/>
	<path fill="#B2BBC4" d="M668.1,352.4h-1c1.1-0.9,1.4-1.9,1.4-2.8c0-0.9-0.4-1.9-1.4-2.8h1c0.8,0.8,1.2,1.8,1.2,2.8
		C669.3,350.6,668.9,351.6,668.1,352.4z"/>
</g>
<path d="M839.7,358.5h-24.1c-2,0-3.7-1.7-3.7-3.7v-24.4c0-2,1.7-3.7,3.7-3.7h24.1c2,0,3.7,1.7,3.7,3.7v24.4
	C843.3,356.9,841.7,358.5,839.7,358.5z"/>
<path d="M805.7,358.5h-24.1c-2,0-3.7-1.7-3.7-3.7v-24.4c0-2,1.7-3.7,3.7-3.7h24.1c2,0,3.7,1.7,3.7,3.7v24.4
	C809.3,356.9,807.7,358.5,805.7,358.5z"/>
<path d="M838.7,67.5h-24.1c-2,0-3.7-1.7-3.7-3.7V39.4c0-2,1.7-3.7,3.7-3.7h24.1c2,0,3.7,1.7,3.7,3.7v24.4
	C842.4,65.8,840.7,67.5,838.7,67.5z"/>
<path d="M804.7,67.5h-24.1c-2,0-3.7-1.7-3.7-3.7V39.4c0-2,1.7-3.7,3.7-3.7h24.1c2,0,3.7,1.7,3.7,3.7v24.4
	C808.4,65.8,806.7,67.5,804.7,67.5z"/>
<path d="M838.7,117.8h-24.1c-2,0-3.7-1.7-3.7-3.7V89.7c0-2,1.7-3.7,3.7-3.7h24.1c2,0,3.7,1.7,3.7,3.7v24.4
	C842.4,116.1,840.7,117.8,838.7,117.8z"/>
<path d="M804.7,117.8h-24.1c-2,0-3.7-1.7-3.7-3.7V89.7c0-2,1.7-3.7,3.7-3.7h24.1c2,0,3.7,1.7,3.7,3.7v24.4
	C808.4,116.1,806.7,117.8,804.7,117.8z"/>
<path fill="#3C3F42" d="M676,62.9h-5.1c-0.9,0-1.7-0.8-1.7-1.7v-6.8c0-0.9,0.8-1.7,1.7-1.7h5.1c0.9,0,1.7,0.8,1.7,1.7v6.8
	C677.7,62.2,676.9,62.9,676,62.9z"/>
<path fill="#3C3F42" d="M709.5,138.2h-5.1c-0.9,0-1.7-0.8-1.7-1.7v-6.8c0-0.9,0.8-1.7,1.7-1.7h5.1c0.9,0,1.7,0.8,1.7,1.7v6.8
	C711.2,137.4,710.4,138.2,709.5,138.2z"/>
<path fill="#3C3F42" d="M676,101.9h-5.1c-0.9,0-1.7-0.8-1.7-1.7v-6.8c0-0.9,0.8-1.7,1.7-1.7h5.1c0.9,0,1.7,0.8,1.7,1.7v6.8
	C677.7,101.2,676.9,101.9,676,101.9z"/>
<path fill="#3C3F42" d="M796.2,324.5h-5.1c-0.9,0-1.7-0.8-1.7-1.7V316c0-0.9,0.8-1.7,1.7-1.7h5.1c0.9,0,1.7,0.8,1.7,1.7v6.8
	C797.9,323.8,797.2,324.5,796.2,324.5z"/>
<path fill="#3C3F42" d="M830.2,324.6h-5.1c-0.9,0-1.7-0.8-1.7-1.7v-6.8c0-0.9,0.8-1.7,1.7-1.7h5.1c0.9,0,1.7,0.8,1.7,1.7v6.8
	C831.9,323.8,831.2,324.6,830.2,324.6z"/>
<g>
	<path fill="#B2BBC4" d="M655.5,61.2h-1.4l-0.7-1.8H651l-0.7,1.8H649l2.7-7h1.1L655.5,61.2z M653.1,58.3l-0.8-2.2l-0.8,2.2H653.1z"
		/>
	<path fill="#B2BBC4" d="M661,58.3c0,1.8-0.7,3-2.6,3c-1.9,0-2.6-1.2-2.6-3v-4.1h1.2v4c0,1,0.2,1.8,1.4,1.8c1.2,0,1.4-0.8,1.4-1.8
		v-4h1.2V58.3z"/>
	<path fill="#B2BBC4" d="M668,61.2h-1.5l-1.6-2.5l-1.6,2.5h-1.5l2.4-3.6l-2.2-3.4h1.5l1.5,2.3l1.5-2.3h1.5l-2.2,3.4L668,61.2z"/>
	<path fill="#B2BBC4" d="M674.1,61.2h-1.2v-5.4l-0.9,0.6l-0.6-0.9l1.8-1.2h0.9V61.2z"/>
</g>
<g>
	<path fill="#B2BBC4" d="M798,310.6h-1.3v-3.7l-1.5,3.7h-0.8l-1.5-3.7v3.7h-1.3v-7h1.2l1.9,5l2-5h1.2V310.6z"/>
	<path fill="#B2BBC4" d="M800.6,310.6h-1.3v-7h1.3V310.6z"/>
	<path fill="#B2BBC4" d="M807.6,310.6h-1.5l-1.6-2.5l-1.6,2.5h-1.5l2.4-3.6l-2.2-3.4h1.5l1.5,2.3l1.5-2.3h1.5l-2.2,3.4L807.6,310.6z
		"/>
	<path fill="#B2BBC4" d="M814,310.7c-2.1,0-2.9-1.7-2.9-3.6c0-1.8,0.8-3.6,2.9-3.6c2.1,0,2.9,1.7,2.9,3.6
		C816.9,309,816.1,310.7,814,310.7z M814,304.8c-1.4,0-1.6,1.2-1.6,2.3c0,1.1,0.3,2.3,1.6,2.3s1.6-1.2,1.6-2.3
		C815.7,306,815.4,304.8,814,304.8z"/>
	<path fill="#B2BBC4" d="M823.2,307.7c0,1.8-0.7,3-2.6,3c-1.9,0-2.6-1.2-2.6-3v-4.1h1.2v4c0,1,0.2,1.8,1.4,1.8
		c1.2,0,1.4-0.8,1.4-1.8v-4h1.2V307.7z"/>
	<path fill="#B2BBC4" d="M829.4,304.9h-2v5.7h-1.3v-5.7h-2v-1.2h5.3V304.9z"/>
</g>
<g>
	<path fill="#FFFFFF" d="M809.2,136.2h-1.3v-3.7l-1.5,3.7h-0.8l-1.5-3.7v3.7h-1.3v-7h1.2l1.9,5l2-5h1.2V136.2z"/>
	<path fill="#FFFFFF" d="M811.8,136.2h-1.3v-7h1.3V136.2z"/>
	<path fill="#FFFFFF" d="M818.9,136.2h-1.5l-1.6-2.5l-1.6,2.5h-1.5l2.4-3.6l-2.2-3.4h1.5l1.5,2.3l1.5-2.3h1.5l-2.2,3.4L818.9,136.2z
		"/>
</g>
<g>
	<path fill="#B3D6FA" d="M723.3,136.2h-1.4l-0.7-1.8h-2.5l-0.7,1.8h-1.4l2.7-7h1.1L723.3,136.2z M720.8,133.3l-0.8-2.2l-0.8,2.2
		H720.8z"/>
	<path fill="#B3D6FA" d="M728.8,133.3c0,1.8-0.7,3-2.6,3c-1.9,0-2.6-1.2-2.6-3v-4.1h1.2v4c0,1,0.2,1.8,1.4,1.8
		c1.2,0,1.4-0.8,1.4-1.8v-4h1.2V133.3z"/>
	<path fill="#B3D6FA" d="M735.7,136.2h-1.5l-1.6-2.5l-1.6,2.5h-1.5l2.4-3.6l-2.2-3.4h1.5l1.5,2.3l1.5-2.3h1.5l-2.2,3.4L735.7,136.2z
		"/>
</g>
<g>
	<path fill="#B2BBC4" d="M796,322.6h-4.3v-7h1.2v5.8h3.1V322.6z"/>
</g>
<g>
	<path fill="#B2BBC4" d="M707.7,136.2h-1.2v-5.4l-0.9,0.6l-0.6-0.9l1.8-1.2h0.9V136.2z"/>
</g>
<path fill="#3C3F42" d="M748.3,138.2h-5.1c-0.9,0-1.7-0.8-1.7-1.7v-6.8c0-0.9,0.8-1.7,1.7-1.7h5.1c0.9,0,1.7,0.8,1.7,1.7v6.8
	C750.1,137.4,749.3,138.2,748.3,138.2z"/>
<path fill="#3C3F42" d="M794.1,138.2h-5.1c-0.9,0-1.7-0.8-1.7-1.7v-6.8c0-0.9,0.8-1.7,1.7-1.7h5.1c0.9,0,1.7,0.8,1.7,1.7v6.8
	C795.8,137.4,795,138.2,794.1,138.2z"/>
<path fill="#3C3F42" d="M830.9,138.2h-5.1c-0.9,0-1.7-0.8-1.7-1.7v-6.8c0-0.9,0.8-1.7,1.7-1.7h5.1c0.9,0,1.7,0.8,1.7,1.7v6.8
	C832.6,137.4,831.8,138.2,830.9,138.2z"/>
<g>
	<path fill="#B2BBC4" d="M748.2,136.2h-4.4v-0.8c0.1-2.5,3-3.1,3-4.2c0-0.5-0.5-0.8-1-0.8c-0.5,0-0.9,0.4-1.1,0.8l-1.1-0.6
		c0.5-0.9,1.1-1.4,2.1-1.4c1.2,0,2.2,0.7,2.2,2c0,1.9-2.5,2.2-2.9,3.8h3V136.2z"/>
</g>
<g>
	<path fill="#B2BBC4" d="M828.7,319.6c0.1,0.1,0.2,0.3,0.3,0.4l1.6,2.6h-1.5l-1.4-2.4c-0.2-0.4-0.3-0.5-0.8-0.5h-0.5v2.9h-1.3v-7
		h2.5c1.3,0,2.4,0.6,2.4,2.1C830.2,318.6,829.6,319.3,828.7,319.6z M827.8,316.9h-1.3v1.8h1.3c0.6,0,1.1-0.2,1.1-0.9
		C828.9,317,828.4,316.9,827.8,316.9z"/>
</g>
<path fill="#3C3F42" d="M713.9,324.5h-5.1c-0.9,0-1.7-0.8-1.7-1.7V316c0-0.9,0.8-1.7,1.7-1.7h5.1c0.9,0,1.7,0.8,1.7,1.7v6.8
	C715.6,323.8,714.9,324.5,713.9,324.5z"/>
<path fill="#3C3F42" d="M747.9,324.6h-5.1c-0.9,0-1.7-0.8-1.7-1.7v-6.8c0-0.9,0.8-1.7,1.7-1.7h5.1c0.9,0,1.7,0.8,1.7,1.7v6.8
	C749.6,323.8,748.9,324.6,747.9,324.6z"/>
<g>
	<path fill="#B2BBC4" d="M720.5,310.6h-1.3v-3.7l-1.5,3.7H717l-1.5-3.7v3.7h-1.3v-7h1.2l1.9,5l2-5h1.2V310.6z"/>
	<path fill="#B2BBC4" d="M723.2,310.6h-1.3v-7h1.3V310.6z"/>
	<path fill="#B2BBC4" d="M730.2,310.6h-1.5l-1.6-2.5l-1.6,2.5h-1.5l2.4-3.6l-2.2-3.4h1.5l1.5,2.3l1.5-2.3h1.5l-2.2,3.4L730.2,310.6z
		"/>
	<path fill="#B2BBC4" d="M735.3,310.6h-1.3v-7h1.3V310.6z"/>
	<path fill="#B2BBC4" d="M741.8,310.6h-1l-2.8-4.4v4.4h-1.3v-7h1l2.8,4.4v-4.4h1.2V310.6z"/>
</g>
<g>
	<path fill="#B2BBC4" d="M713.7,322.6h-4.3v-7h1.2v5.8h3.1V322.6z"/>
</g>
<g>
	<path fill="#B2BBC4" d="M746.4,319.6c0.1,0.1,0.2,0.3,0.3,0.4l1.6,2.6H747l-1.4-2.4c-0.2-0.4-0.3-0.5-0.8-0.5h-0.5v2.9H743v-7h2.5
		c1.3,0,2.4,0.6,2.4,2.1C747.9,318.6,747.3,319.3,746.4,319.6z M745.5,316.9h-1.3v1.8h1.3c0.6,0,1.1-0.2,1.1-0.9
		C746.6,317,746.1,316.9,745.5,316.9z"/>
</g>
<g>
	<path fill="#B2BBC4" d="M655.5,100.2h-1.4l-0.7-1.8H651l-0.7,1.8H649l2.7-7h1.1L655.5,100.2z M653.1,97.3l-0.8-2.2l-0.8,2.2H653.1z
		"/>
	<path fill="#B2BBC4" d="M661,97.3c0,1.8-0.7,3-2.6,3c-1.9,0-2.6-1.2-2.6-3v-4.1h1.2v4c0,1,0.2,1.8,1.4,1.8c1.2,0,1.4-0.8,1.4-1.8
		v-4h1.2V97.3z"/>
	<path fill="#B2BBC4" d="M668,100.2h-1.5l-1.6-2.5l-1.6,2.5h-1.5l2.4-3.6l-2.2-3.4h1.5l1.5,2.3l1.5-2.3h1.5l-2.2,3.4L668,100.2z"/>
	<path fill="#B2BBC4" d="M676.1,100.2h-4.4v-0.8c0.1-2.5,3-3.1,3-4.2c0-0.5-0.5-0.8-1-0.8c-0.5,0-0.9,0.4-1.1,0.8l-1.1-0.6
		c0.5-0.9,1.1-1.4,2.1-1.4c1.2,0,2.2,0.7,2.2,2c0,1.9-2.5,2.2-2.9,3.8h3V100.2z"/>
</g>
<rect x="11" y="76.7" fill="#515559" width="841.1" height="1.2"/>
<rect x="18.5" y="313" fill="#4F5257" width="622.1" height="1.2"/>
<rect x="25.4" y="135.6" fill="#757A80" width="609.8" height="1.2"/>
<rect x="25.4" y="210.8" fill="#757A80" width="609.8" height="1.2"/>
<rect x="25.4" y="162.9" fill="#757A80" width="609.8" height="1.2"/>
<rect x="25.4" y="257.3" fill="#757A80" width="609.8" height="1.2"/>
<rect x="698.7" y="210.8" fill="#757A80" width="137.3" height="1.2"/>
<rect x="698.7" y="162.9" fill="#757A80" width="137.3" height="1.2"/>
<rect x="698.7" y="257.3" fill="#757A80" width="137.3" height="1.2"/>
<rect x="18.5" y="341.1" fill="#4F5257" width="622.1" height="1.2"/>
<g>
	<path fill="#FFFFFF" d="M793.6,136.2h-4.3v-7h1.2v5.8h3.1V136.2z"/>
</g>
<g>
	<path fill="#FFFFFF" d="M829.6,133.2c0.1,0.1,0.2,0.3,0.3,0.4l1.6,2.6h-1.5l-1.4-2.4c-0.2-0.4-0.3-0.5-0.8-0.5h-0.5v2.9h-1.3v-7
		h2.5c1.3,0,2.4,0.6,2.4,2.1C831,132.3,830.5,133,829.6,133.2z M828.7,130.5h-1.3v1.8h1.3c0.6,0,1.1-0.2,1.1-0.9
		C829.8,130.6,829.3,130.5,828.7,130.5z"/>
</g>
<path fill="#3C3F42" d="M794.1,82.4h-5.1c-0.9,0-1.7-0.8-1.7-1.7v-6.8c0-0.9,0.8-1.7,1.7-1.7h5.1c0.9,0,1.7,0.8,1.7,1.7v6.8
	C795.8,81.6,795,82.4,794.1,82.4z"/>
<path fill="#3C3F42" d="M830.9,82.4h-5.1c-0.9,0-1.7-0.8-1.7-1.7v-6.8c0-0.9,0.8-1.7,1.7-1.7h5.1c0.9,0,1.7,0.8,1.7,1.7v6.8
	C832.6,81.6,831.8,82.4,830.9,82.4z"/>
<g>
	<path fill="#FFFFFF" d="M794,80.5h-4.3v-7h1.2v5.8h3.1V80.5z"/>
</g>
<g>
	<path fill="#FFFFFF" d="M829.6,77.6c0.1,0.1,0.2,0.3,0.3,0.4l1.6,2.6h-1.5l-1.4-2.4c-0.2-0.4-0.3-0.5-0.8-0.5h-0.5v2.9h-1.3v-7h2.5
		c1.3,0,2.4,0.6,2.4,2.1C831,76.6,830.5,77.3,829.6,77.6z M828.7,74.8h-1.3v1.8h1.3c0.6,0,1.1-0.2,1.1-0.9
		C829.8,75,829.3,74.8,828.7,74.8z"/>
</g>
<path fill="#3C3F42" d="M709.4,82.4h-5.1c-0.9,0-1.7-0.8-1.7-1.7v-6.8c0-0.9,0.8-1.7,1.7-1.7h5.1c0.9,0,1.7,0.8,1.7,1.7v6.8
	C711.1,81.6,710.4,82.4,709.4,82.4z"/>
<path fill="#3C3F42" d="M748.3,82.4h-5.1c-0.9,0-1.7-0.8-1.7-1.7v-6.8c0-0.9,0.8-1.7,1.7-1.7h5.1c0.9,0,1.7,0.8,1.7,1.7v6.8
	C750.1,81.6,749.3,82.4,748.3,82.4z"/>
<g>
	<path fill="#FFFFFF" d="M709.3,80.5H705v-7h1.2v5.8h3.1V80.5z"/>
</g>
<g>
	<path fill="#FFFFFF" d="M746.9,77.6c0.1,0.1,0.2,0.3,0.3,0.4l1.6,2.6h-1.5l-1.4-2.4c-0.2-0.4-0.3-0.5-0.8-0.5h-0.5v2.9h-1.3v-7h2.5
		c1.3,0,2.4,0.6,2.4,2.1C748.4,76.6,747.8,77.3,746.9,77.6z M746,74.8h-1.3v1.8h1.3c0.6,0,1.1-0.2,1.1-0.9
		C747.1,75,746.6,74.8,746,74.8z"/>
</g>
<g>
	<path fill="#7D848A" d="M53.9,16.1c-0.9,1.1-1.5,1.5-2.9,1.5c-2.5,0-3.6-2.1-3.6-4.3c0-2.3,1.1-4.3,3.6-4.3c1.3,0,2.1,0.4,2.9,1.4
		l-1.1,1c-0.5-0.6-1-1-1.8-1c-1.6,0-2.1,1.5-2.1,2.8c0,1.3,0.5,2.8,2.1,2.8c0.8,0,1.3-0.4,1.8-1L53.9,16.1z"/>
	<path fill="#7D848A" d="M58.1,17.6c-2.5,0-3.5-2.1-3.5-4.3s0.9-4.3,3.5-4.3s3.5,2.1,3.5,4.3C61.5,15.6,60.6,17.6,58.1,17.6z
		 M58.1,10.6c-1.6,0-2,1.5-2,2.8c0,1.3,0.3,2.8,2,2.8s1.9-1.5,1.9-2.8C60,12.1,59.7,10.6,58.1,10.6z"/>
	<path fill="#7D848A" d="M68.9,17.5h-1.2l-3.3-5.2v5.2h-1.5V9.2h1.2l3.3,5.2V9.2h1.5V17.5z"/>
	<path fill="#7D848A" d="M73.6,17.7c-1.8,0-2.9-0.8-3.4-2.5l1.4-0.3c0.3,0.9,1,1.3,1.9,1.3c0.7,0,1.6-0.4,1.6-1.2
		c0-1.7-4.7-0.6-4.7-3.6c0-1.6,1.4-2.4,2.8-2.4c1.5,0,2.4,0.6,3.1,1.9l-1.3,0.6c-0.4-0.7-0.9-1.1-1.8-1.1c-0.5,0-1.3,0.2-1.3,0.9
		c0,1.5,4.7,0.5,4.7,3.6C76.7,16.7,75.2,17.7,73.6,17.7z"/>
	<path fill="#7D848A" d="M83.5,10.7h-2.4v6.9h-1.5v-6.9h-2.4V9.2h6.3V10.7z"/>
	<path fill="#7D848A" d="M90.7,17.5h-1.6l-0.8-2.2h-3l-0.8,2.2h-1.6l3.2-8.4h1.4L90.7,17.5z M87.8,14l-1-2.7l-1,2.7H87.8z"/>
	<path fill="#7D848A" d="M97.7,17.5h-1.2l-3.3-5.2v5.2h-1.5V9.2h1.2l3.3,5.2V9.2h1.5V17.5z"/>
	<path fill="#7D848A" d="M105.2,10.7h-2.4v6.9h-1.5v-6.9h-2.4V9.2h6.3V10.7z"/>
	<path fill="#7D848A" d="M109,14.9h-3.5v-1.1h3.5V14.9z"/>
	<path fill="#7D848A" d="M113.9,14.2h-1.8v3.4h-1.5V9.2h3.2c1.6,0,2.8,0.7,2.8,2.5C116.7,13.5,115.6,14.2,113.9,14.2z M113.8,10.6
		h-1.7v2.1h1.7c0.8,0,1.4-0.2,1.4-1.1C115.2,10.8,114.6,10.6,113.8,10.6z"/>
	<path fill="#7D848A" d="M121,17.6c-2.5,0-3.5-2.1-3.5-4.3s0.9-4.3,3.5-4.3s3.5,2.1,3.5,4.3C124.5,15.6,123.5,17.6,121,17.6z
		 M121,10.6c-1.6,0-2,1.5-2,2.8c0,1.3,0.3,2.8,2,2.8s1.9-1.5,1.9-2.8C123,12.1,122.7,10.6,121,10.6z"/>
	<path fill="#7D848A" d="M134.9,9.2l-2,8.4h-1.7l-1.4-5.5l-1.4,5.5h-1.7l-2-8.4h1.5l1.3,5.9l1.5-5.9h1.2l1.5,5.9l1.3-5.9H134.9z"/>
	<path fill="#7D848A" d="M141.6,17.5h-5.7V9.2h5.7v1.5h-4.1v1.9h3.6v1.4h-3.6v2.1h4.1V17.5z"/>
	<path fill="#7D848A" d="M147.1,13.9c0.1,0.1,0.3,0.3,0.4,0.5l2,3.1h-1.8l-1.7-2.8c-0.3-0.4-0.4-0.6-0.9-0.6h-0.6v3.5H143V9.2h3
		c1.6,0,2.9,0.8,2.9,2.5C148.9,12.8,148.2,13.6,147.1,13.9z M146,10.6h-1.5v2.1h1.5c0.8,0,1.3-0.2,1.3-1.1
		C147.4,10.8,146.8,10.6,146,10.6z"/>
	<path fill="#7D848A" d="M157.3,14.2h-1.8v3.4h-1.5V9.2h3.2c1.6,0,2.8,0.7,2.8,2.5C160.1,13.5,159.1,14.2,157.3,14.2z M157.2,10.6
		h-1.7v2.1h1.7c0.8,0,1.4-0.2,1.4-1.1C158.6,10.8,158,10.6,157.2,10.6z"/>
	<path fill="#7D848A" d="M167.3,17.5h-1.6l-0.8-2.2h-3l-0.8,2.2h-1.6l3.2-8.4h1.4L167.3,17.5z M164.4,14l-1-2.7l-1,2.7H164.4z"/>
	<path fill="#7D848A" d="M174.3,17.5h-1.2l-3.3-5.2v5.2h-1.5V9.2h1.2l3.3,5.2V9.2h1.5V17.5z"/>
	<path fill="#7D848A" d="M182.1,17.5h-1.2l-3.3-5.2v5.2H176V9.2h1.2l3.3,5.2V9.2h1.5V17.5z"/>
	<path fill="#7D848A" d="M185.3,17.5h-1.5V9.2h1.5V17.5z"/>
	<path fill="#7D848A" d="M193.1,17.5h-1.2l-3.3-5.2v5.2h-1.5V9.2h1.2l3.3,5.2V9.2h1.5V17.5z"/>
	<path fill="#7D848A" d="M200.9,12.9v4.6h-1.3v-0.8c-0.4,0.7-1,0.9-1.8,0.9c-2.5,0-3.4-2.1-3.4-4.3c0-2.2,1-4.3,3.5-4.3
		c1.3,0,2.1,0.5,2.8,1.5l-1.1,1c-0.5-0.6-0.9-1-1.8-1c-1.6,0-2,1.5-2,2.8c0,1.3,0.3,2.8,2,2.8c1.1,0,1.5-0.9,1.5-1.9h-1.6v-1.3
		H200.9z"/>
	<path fill="#7D848A" d="M208.7,17.5h-1.5v-6.5l-1.1,0.7l-0.7-1.1l2.2-1.4h1.1V17.5z"/>
	<path fill="#7D848A" d="M213.3,17.6c-1.8,0-2.8-1.5-2.8-3.1c0-2.1,0.9-4.1,2.6-5.3h1.8c-1.2,0.9-2.2,1.9-2.7,3.4
		c0.3-0.3,0.7-0.5,1.2-0.5c1.6,0,2.6,1.2,2.6,2.8C216,16.5,215,17.6,213.3,17.6z M213.3,13.5c-0.7,0-1.2,0.6-1.2,1.4
		c0,0.7,0.5,1.3,1.2,1.3s1.3-0.6,1.3-1.3C214.5,14.1,214,13.5,213.3,13.5z"/>
	<path fill="#7D848A" d="M220.7,14.9h-3.5v-1.1h3.5V14.9z"/>
	<path fill="#7D848A" d="M228.5,16.1c-0.9,1.1-1.5,1.5-2.9,1.5c-2.5,0-3.6-2.1-3.6-4.3c0-2.3,1.1-4.3,3.6-4.3c1.3,0,2.1,0.4,2.9,1.4
		l-1.1,1c-0.5-0.6-1-1-1.8-1c-1.6,0-2.1,1.5-2.1,2.8c0,1.3,0.5,2.8,2.1,2.8c0.8,0,1.3-0.4,1.8-1L228.5,16.1z"/>
	<path fill="#7D848A" d="M236,17.5h-1.5v-3.6h-3.3v3.6h-1.5V9.2h1.5v3.4h3.3V9.2h1.5V17.5z"/>
	<path fill="#7D848A" d="M244.7,17.5H243l-0.8-2.2h-3l-0.8,2.2h-1.6l3.2-8.4h1.4L244.7,17.5z M241.8,14l-1-2.7l-1,2.7H241.8z"/>
	<path fill="#7D848A" d="M251.6,17.5h-1.2l-3.3-5.2v5.2h-1.5V9.2h1.2l3.3,5.2V9.2h1.5V17.5z"/>
	<path fill="#7D848A" d="M259.4,17.5h-1.2l-3.3-5.2v5.2h-1.5V9.2h1.2l3.3,5.2V9.2h1.5V17.5z"/>
	<path fill="#7D848A" d="M266.8,17.5h-5.7V9.2h5.7v1.5h-4.1v1.9h3.6v1.4h-3.6v2.1h4.1V17.5z"/>
	<path fill="#7D848A" d="M273.4,17.5h-5.2V9.2h1.5v6.9h3.7V17.5z"/>
	<path fill="#7D848A" d="M285.8,17.5h-1.5v-4.5l-1.8,4.5h-1l-1.8-4.5v4.5h-1.5V9.2h1.5l2.3,6l2.4-6h1.4V17.5z"/>
	<path fill="#7D848A" d="M288.9,17.5h-1.5V9.2h1.5V17.5z"/>
	<path fill="#7D848A" d="M297.4,17.5h-1.8l-1.9-3l-1.9,3H290l2.8-4.3l-2.7-4.1h1.8l1.8,2.8l1.8-2.8h1.8l-2.7,4.1L297.4,17.5z"/>
	<path fill="#7D848A" d="M304.1,17.5h-5.7V9.2h5.7v1.5h-4.1v1.9h3.6v1.4h-3.6v2.1h4.1V17.5z"/>
	<path fill="#7D848A" d="M309.6,13.9c0.1,0.1,0.3,0.3,0.4,0.5l2,3.1h-1.8l-1.7-2.8c-0.3-0.4-0.4-0.6-0.9-0.6H307v3.5h-1.5V9.2h3
		c1.6,0,2.9,0.8,2.9,2.5C311.4,12.8,310.7,13.6,309.6,13.9z M308.5,10.6H307v2.1h1.5c0.8,0,1.3-0.2,1.3-1.1
		C309.9,10.8,309.3,10.6,308.5,10.6z"/>
</g>
<rect x="768.6" y="35.7" fill="#969FA6" width="1.2" height="37.9"/>
<rect x="768.5" y="80.6" fill="#969FA6" width="1.2" height="38.1"/>
<rect x="768.6" y="144.4" fill="#7D848A" width="1.2" height="148.6"/>
<g>
	<path fill="#C7EDD3" d="M709.6,20.9h2.3c1.4,0,2.5,0.5,2.5,2c0,1.5-1.1,2.1-2.5,2.1h-1.1v2.7h-1.2V20.9z M711.8,24.1
		c0.9,0,1.5-0.4,1.5-1.2c0-0.8-0.5-1.1-1.5-1.1h-1v2.2H711.8z M711.7,24.8l0.9-0.7l2.1,3.7h-1.4L711.7,24.8z"/>
	<path fill="#C7EDD3" d="M715.8,20.9h4.1v1H717v1.8h2.5v1H717v2h3v1h-4.2V20.9z"/>
	<path fill="#C7EDD3" d="M722.9,21.9h-2v-1h5.2v1h-2v5.8h-1.2V21.9z"/>
	<path fill="#C7EDD3" d="M727.2,24.8v-3.9h1.2v3.9c0,1.5,0.6,2,1.4,2c0.8,0,1.4-0.5,1.4-2v-3.9h1.2v3.9c0,2.3-1,3.1-2.6,3.1
		C728.2,27.9,727.2,27,727.2,24.8z"/>
	<path fill="#C7EDD3" d="M734.1,20.9h2.3c1.4,0,2.5,0.5,2.5,2c0,1.5-1.1,2.1-2.5,2.1h-1.1v2.7h-1.2V20.9z M736.3,24.1
		c0.9,0,1.5-0.4,1.5-1.2c0-0.8-0.5-1.1-1.5-1.1h-1v2.2H736.3z M736.2,24.8l0.9-0.7l2.1,3.7h-1.4L736.2,24.8z"/>
	<path fill="#C7EDD3" d="M740.3,20.9h1.3l2.1,3.9l0.7,1.5h0c-0.1-0.7-0.2-1.6-0.2-2.3v-3h1.2v6.9h-1.3l-2.1-3.9l-0.7-1.5h0
		c0.1,0.7,0.2,1.6,0.2,2.3v3h-1.2V20.9z"/>
</g>
<g>
	<path fill="#C7EDD3" d="M797.1,26.9l0.7-0.8c0.5,0.5,1.2,0.8,1.8,0.8c0.8,0,1.2-0.4,1.2-0.9c0-0.6-0.4-0.7-1.1-1l-0.9-0.4
		c-0.7-0.3-1.4-0.8-1.4-1.8c0-1.1,1-1.9,2.3-1.9c0.8,0,1.6,0.3,2.1,0.9l-0.6,0.8c-0.4-0.4-0.9-0.6-1.5-0.6c-0.7,0-1.1,0.3-1.1,0.8
		c0,0.5,0.5,0.7,1.1,1l0.9,0.4c0.8,0.3,1.4,0.9,1.4,1.9c0,1.1-0.9,2-2.5,2C798.7,27.9,797.8,27.5,797.1,26.9z"/>
	<path fill="#C7EDD3" d="M803.3,20.9h4.1v1h-2.9v1.8h2.5v1h-2.5v2h3v1h-4.2V20.9z"/>
	<path fill="#C7EDD3" d="M809,20.9h1.3l2.1,3.9l0.7,1.5h0c-0.1-0.7-0.2-1.6-0.2-2.3v-3h1.2v6.9h-1.3l-2.1-3.9l-0.7-1.5h0
		c0.1,0.7,0.2,1.6,0.2,2.3v3H809V20.9z"/>
	<path fill="#C7EDD3" d="M815.9,20.9h1.8c2.1,0,3.3,1.1,3.3,3.4c0,2.3-1.2,3.5-3.3,3.5h-1.9V20.9z M817.6,26.8
		c1.4,0,2.2-0.8,2.2-2.5c0-1.7-0.8-2.4-2.2-2.4h-0.5v4.9H817.6z"/>
</g>
<g>
	<g>
		<g>
			<path fill="#868F94" d="M32.1,118.6v19.1l7,12.1c5.2-2.8,8.7-8.3,8.7-14.6C47.8,126.3,40.9,119.1,32.1,118.6z"/>
			<path fill="#868F94" d="M30.2,118.6c-8.7,0.5-15.6,7.7-15.6,16.5c0,6.3,3.5,11.8,8.7,14.6l7-12.1V118.6z"/>
		</g>
		<rect x="30.2" y="118.6" fill="#FFFFFF" width="1.9" height="19.1"/>
	</g>
	<g>
		<g>
			<path fill="#868F94" d="M72.1,118.6v19.1l7,12.1c5.2-2.8,8.7-8.3,8.7-14.6C87.7,126.3,80.8,119.1,72.1,118.6z"/>
			<path fill="#868F94" d="M70.2,118.6c-8.7,0.5-15.6,7.7-15.6,16.5c0,6.3,3.5,11.8,8.7,14.6l7-12.1V118.6z"/>
		</g>
		<rect x="70.2" y="118.6" fill="#FFFFFF" width="1.9" height="19.1"/>
	</g>
	<g>
		<g>
			<path fill="#868F94" d="M112.1,118.6v19.1l7,12.1c5.2-2.8,8.7-8.3,8.7-14.6C127.7,126.3,120.8,119.1,112.1,118.6z"/>
			<path fill="#868F94" d="M110.2,118.6c-8.7,0.5-15.6,7.7-15.6,16.5c0,6.3,3.5,11.8,8.7,14.6l7-12.1V118.6z"/>
		</g>
		<rect x="110.2" y="118.6" fill="#FFFFFF" width="1.9" height="19.1"/>
	</g>
	<g>
		<g>
			<path fill="#868F94" d="M152,118.6v19.1l7,12.1c5.2-2.8,8.7-8.3,8.7-14.6C167.7,126.3,160.8,119.1,152,118.6z"/>
			<path fill="#868F94" d="M150.1,118.6c-8.7,0.5-15.6,7.7-15.6,16.5c0,6.3,3.5,11.8,8.7,14.6l7-12.1V118.6z"/>
		</g>
		<rect x="150.1" y="118.6" fill="#FFFFFF" width="1.9" height="19.1"/>
	</g>
	<g>
		<g>
			<path fill="#868F94" d="M192,118.6v19.1l7,12.1c5.2-2.8,8.7-8.3,8.7-14.6C207.6,126.3,200.7,119.1,192,118.6z"/>
			<path fill="#868F94" d="M190.1,118.6c-8.7,0.5-15.6,7.7-15.6,16.5c0,6.3,3.5,11.8,8.7,14.6l7-12.1V118.6z"/>
		</g>
		<rect x="190.1" y="118.6" fill="#FFFFFF" width="1.9" height="19.1"/>
	</g>
	<g>
		<g>
			<path fill="#868F94" d="M232,118.6v19.1l7,12.1c5.2-2.8,8.7-8.3,8.7-14.6C247.6,126.3,240.7,119.1,232,118.6z"/>
			<path fill="#868F94" d="M230,118.6c-8.7,0.5-15.6,7.7-15.6,16.5c0,6.3,3.5,11.8,8.7,14.6l7-12.1V118.6z"/>
		</g>
		<rect x="230" y="118.6" fill="#FFFFFF" width="1.9" height="19.1"/>
	</g>
	<g>
		<g>
			<path fill="#868F94" d="M271.9,118.6v19.1l7,12.1c5.2-2.8,8.7-8.3,8.7-14.6C287.6,126.3,280.6,119.1,271.9,118.6z"/>
			<path fill="#868F94" d="M270,118.6c-8.7,0.5-15.6,7.7-15.6,16.5c0,6.3,3.5,11.8,8.7,14.6l7-12.1V118.6z"/>
		</g>
		<rect x="270" y="118.6" fill="#FFFFFF" width="1.9" height="19.1"/>
	</g>
	<g>
		<g>
			<path fill="#868F94" d="M311.9,118.6v19.1l7,12.1c5.2-2.8,8.7-8.3,8.7-14.6C327.5,126.3,320.6,119.1,311.9,118.6z"/>
			<path fill="#868F94" d="M310,118.6c-8.7,0.5-15.6,7.7-15.6,16.5c0,6.3,3.5,11.8,8.7,14.6l7-12.1V118.6z"/>
		</g>
		<rect x="310" y="118.6" fill="#FFFFFF" width="1.9" height="19.1"/>
	</g>
	<g>
		<g>
			<path fill="#868F94" d="M351.9,118.6v19.1l7,12.1c5.2-2.8,8.7-8.3,8.7-14.6C367.5,126.3,360.6,119.1,351.9,118.6z"/>
			<path fill="#868F94" d="M349.9,118.6c-8.7,0.5-15.6,7.7-15.6,16.5c0,6.3,3.5,11.8,8.7,14.6l7-12.1V118.6z"/>
		</g>
		<rect x="349.9" y="118.6" fill="#FFFFFF" width="1.9" height="19.1"/>
	</g>
	<g>
		<g>
			<path fill="#868F94" d="M391.8,118.6v19.1l7,12.1c5.2-2.8,8.7-8.3,8.7-14.6C407.5,126.3,400.5,119.1,391.8,118.6z"/>
			<path fill="#868F94" d="M389.9,118.6c-8.7,0.5-15.6,7.7-15.6,16.5c0,6.3,3.5,11.8,8.7,14.6l7-12.1V118.6z"/>
		</g>
		<rect x="389.9" y="118.6" fill="#FFFFFF" width="1.9" height="19.1"/>
	</g>
	<g>
		<g>
			<path fill="#868F94" d="M431.8,118.6v19.1l7,12.1c5.2-2.8,8.7-8.3,8.7-14.6C447.4,126.3,440.5,119.1,431.8,118.6z"/>
			<path fill="#868F94" d="M429.9,118.6c-8.7,0.5-15.6,7.7-15.6,16.5c0,6.3,3.5,11.8,8.7,14.6l7-12.1V118.6z"/>
		</g>
		<rect x="429.9" y="118.6" fill="#FFFFFF" width="1.9" height="19.1"/>
	</g>
	<g>
		<g>
			<path fill="#868F94" d="M471.7,118.6v19.1l7,12.1c5.2-2.8,8.7-8.3,8.7-14.6C487.4,126.3,480.5,119.1,471.7,118.6z"/>
			<path fill="#868F94" d="M469.8,118.6c-8.7,0.5-15.6,7.7-15.6,16.5c0,6.3,3.5,11.8,8.7,14.6l7-12.1V118.6z"/>
		</g>
		<rect x="469.8" y="118.6" fill="#FFFFFF" width="1.9" height="19.1"/>
	</g>
	<g>
		<g>
			<path fill="#868F94" d="M511.7,118.6v19.1l7,12.1c5.2-2.8,8.7-8.3,8.7-14.6C527.4,126.3,520.4,119.1,511.7,118.6z"/>
			<path fill="#868F94" d="M509.8,118.6c-8.7,0.5-15.6,7.7-15.6,16.5c0,6.3,3.5,11.8,8.7,14.6l7-12.1V118.6z"/>
		</g>
		<rect x="509.8" y="118.6" fill="#FFFFFF" width="1.9" height="19.1"/>
	</g>
	<g>
		<g>
			<path fill="#868F94" d="M551.7,118.6v19.1l7,12.1c5.2-2.8,8.7-8.3,8.7-14.6C567.3,126.3,560.4,119.1,551.7,118.6z"/>
			<path fill="#868F94" d="M549.8,118.6c-8.7,0.5-15.6,7.7-15.6,16.5c0,6.3,3.5,11.8,8.7,14.6l7-12.1V118.6z"/>
		</g>
		<rect x="549.8" y="118.6" fill="#FFFFFF" width="1.9" height="19.1"/>
	</g>
	<g>
		<g>
			<path fill="#868F94" d="M591.6,118.6v19.1l7,12.1c5.2-2.8,8.7-8.3,8.7-14.6C607.3,126.3,600.4,119.1,591.6,118.6z"/>
			<path fill="#868F94" d="M589.7,118.6c-8.7,0.5-15.6,7.7-15.6,16.5c0,6.3,3.5,11.8,8.7,14.6l7-12.1V118.6z"/>
		</g>
		<rect x="589.7" y="118.6" fill="#FFFFFF" width="1.9" height="19.1"/>
	</g>
	<g>
		<g>
			<path fill="#868F94" d="M631.6,118.6v19.1l7,12.1c5.2-2.8,8.7-8.3,8.7-14.6C647.2,126.3,640.3,119.1,631.6,118.6z"/>
			<path fill="#868F94" d="M629.7,118.6c-8.7,0.5-15.6,7.7-15.6,16.5c0,6.3,3.5,11.8,8.7,14.6l7-12.1V118.6z"/>
		</g>
		<rect x="629.7" y="118.6" fill="#FFFFFF" width="1.9" height="19.1"/>
	</g>
</g>
<g>
	<g>
		<path fill="#ADB8BF" d="M31.2,80.1c-8.9,0-16.1,7.2-16.1,16.1c0,6.1,3.4,11.4,8.4,14.1L31.2,97l7.7,13.3c5-2.7,8.4-8,8.4-14.1
			C47.3,87.3,40.1,80.1,31.2,80.1z"/>
	</g>
	<g>
		<path fill="#ADB8BF" d="M71.2,80.1c-8.9,0-16.1,7.2-16.1,16.1c0,6.1,3.4,11.4,8.4,14.1L71.2,97l7.7,13.3c5-2.7,8.4-8,8.4-14.1
			C87.2,87.3,80.1,80.1,71.2,80.1z"/>
	</g>
	<g>
		<path fill="#ADB8BF" d="M111.2,80.1c-8.9,0-16.1,7.2-16.1,16.1c0,6.1,3.4,11.4,8.4,14.1l7.7-13.3l7.7,13.3c5-2.7,8.4-8,8.4-14.1
			C127.2,87.3,120,80.1,111.2,80.1z"/>
	</g>
	<g>
		<path fill="#ADB8BF" d="M151.2,80.1c-8.9,0-16.1,7.2-16.1,16.1c0,6.1,3.4,11.4,8.4,14.1l7.7-13.3l7.7,13.3c5-2.7,8.4-8,8.4-14.1
			C167.2,87.3,160,80.1,151.2,80.1z"/>
	</g>
	<g>
		<path fill="#ADB8BF" d="M191.2,80.1c-8.9,0-16.1,7.2-16.1,16.1c0,6.1,3.4,11.4,8.4,14.1l7.7-13.3l7.7,13.3c5-2.7,8.4-8,8.4-14.1
			C207.2,87.3,200,80.1,191.2,80.1z"/>
	</g>
	<g>
		<path fill="#ADB8BF" d="M231.2,80.1c-8.9,0-16.1,7.2-16.1,16.1c0,6.1,3.4,11.4,8.4,14.1l7.7-13.3l7.7,13.3c5-2.7,8.4-8,8.4-14.1
			C247.2,87.3,240,80.1,231.2,80.1z"/>
	</g>
	<g>
		<path fill="#ADB8BF" d="M271.2,80.1c-8.9,0-16.1,7.2-16.1,16.1c0,6.1,3.4,11.4,8.4,14.1l7.7-13.3l7.7,13.3c5-2.7,8.4-8,8.4-14.1
			C287.2,87.3,280,80.1,271.2,80.1z"/>
	</g>
	<g>
		<path fill="#ADB8BF" d="M311.1,80.1c-8.9,0-16.1,7.2-16.1,16.1c0,6.1,3.4,11.4,8.4,14.1l7.7-13.3l7.7,13.3c5-2.7,8.4-8,8.4-14.1
			C327.2,87.3,320,80.1,311.1,80.1z"/>
	</g>
	<g>
		<path fill="#ADB8BF" d="M351.1,80.1c-8.9,0-16.1,7.2-16.1,16.1c0,6.1,3.4,11.4,8.4,14.1l7.7-13.3l7.7,13.3c5-2.7,8.4-8,8.4-14.1
			C367.2,87.3,360,80.1,351.1,80.1z"/>
	</g>
	<g>
		<path fill="#ADB8BF" d="M391.1,80.1c-8.9,0-16.1,7.2-16.1,16.1c0,6.1,3.4,11.4,8.4,14.1l7.7-13.3l7.7,13.3c5-2.7,8.4-8,8.4-14.1
			C407.2,87.3,400,80.1,391.1,80.1z"/>
	</g>
	<g>
		<path fill="#ADB8BF" d="M431.1,80.1c-8.9,0-16.1,7.2-16.1,16.1c0,6.1,3.4,11.4,8.4,14.1l7.7-13.3l7.7,13.3c5-2.7,8.4-8,8.4-14.1
			C447.2,87.3,440,80.1,431.1,80.1z"/>
	</g>
	<g>
		<path fill="#ADB8BF" d="M471.1,80.1c-8.9,0-16.1,7.2-16.1,16.1c0,6.1,3.4,11.4,8.4,14.1l7.7-13.3l7.7,13.3c5-2.7,8.4-8,8.4-14.1
			C487.2,87.3,480,80.1,471.1,80.1z"/>
	</g>
	<g>
		<path fill="#ADB8BF" d="M511.1,80.1c-8.9,0-16.1,7.2-16.1,16.1c0,6.1,3.4,11.4,8.4,14.1l7.7-13.3l7.7,13.3c5-2.7,8.4-8,8.4-14.1
			C527.2,87.3,520,80.1,511.1,80.1z"/>
	</g>
	<g>
		<path fill="#ADB8BF" d="M551.1,80.1c-8.9,0-16.1,7.2-16.1,16.1c0,6.1,3.4,11.4,8.4,14.1l7.7-13.3l7.7,13.3c5-2.7,8.4-8,8.4-14.1
			C567.2,87.3,560,80.1,551.1,80.1z"/>
	</g>
	<g>
		<path fill="#ADB8BF" d="M591.1,80.1c-8.9,0-16.1,7.2-16.1,16.1c0,6.1,3.4,11.4,8.4,14.1l7.7-13.3l7.7,13.3c5-2.7,8.4-8,8.4-14.1
			C607.2,87.3,600,80.1,591.1,80.1z"/>
	</g>
	<g>
		<path fill="#ADB8BF" d="M631.1,80.1c-8.9,0-16.1,7.2-16.1,16.1c0,6.1,3.4,11.4,8.4,14.1l7.7-13.3l7.7,13.3c5-2.7,8.4-8,8.4-14.1
			C647.2,87.3,640,80.1,631.1,80.1z"/>
	</g>
</g>
<g>
	<g>
		<path fill="#ADB8BF" d="M31.2,43.1c-8.9,0-16.1,7.2-16.1,16.1c0,6.1,3.4,11.4,8.4,14.1l7.7-13.3l7.7,13.3c5-2.7,8.4-8,8.4-14.1
			C47.3,50.3,40.1,43.1,31.2,43.1z"/>
	</g>
	<g>
		<path fill="#ADB8BF" d="M71.2,43.1c-8.9,0-16.1,7.2-16.1,16.1c0,6.1,3.4,11.4,8.4,14.1l7.7-13.3l7.7,13.3c5-2.7,8.4-8,8.4-14.1
			C87.2,50.3,80.1,43.1,71.2,43.1z"/>
	</g>
	<g>
		<path fill="#ADB8BF" d="M111.2,43.1c-8.9,0-16.1,7.2-16.1,16.1c0,6.1,3.4,11.4,8.4,14.1l7.7-13.3l7.7,13.3c5-2.7,8.4-8,8.4-14.1
			C127.2,50.3,120,43.1,111.2,43.1z"/>
	</g>
	<g>
		<path fill="#ADB8BF" d="M151.2,43.1c-8.9,0-16.1,7.2-16.1,16.1c0,6.1,3.4,11.4,8.4,14.1l7.7-13.3l7.7,13.3c5-2.7,8.4-8,8.4-14.1
			C167.2,50.3,160,43.1,151.2,43.1z"/>
	</g>
	<g>
		<path fill="#ADB8BF" d="M191.2,43.1c-8.9,0-16.1,7.2-16.1,16.1c0,6.1,3.4,11.4,8.4,14.1l7.7-13.3l7.7,13.3c5-2.7,8.4-8,8.4-14.1
			C207.2,50.3,200,43.1,191.2,43.1z"/>
	</g>
	<g>
		<path fill="#ADB8BF" d="M231.2,43.1c-8.9,0-16.1,7.2-16.1,16.1c0,6.1,3.4,11.4,8.4,14.1l7.7-13.3l7.7,13.3c5-2.7,8.4-8,8.4-14.1
			C247.2,50.3,240,43.1,231.2,43.1z"/>
	</g>
	<g>
		<path fill="#ADB8BF" d="M271.2,43.1c-8.9,0-16.1,7.2-16.1,16.1c0,6.1,3.4,11.4,8.4,14.1l7.7-13.3l7.7,13.3c5-2.7,8.4-8,8.4-14.1
			C287.2,50.3,280,43.1,271.2,43.1z"/>
	</g>
	<g>
		<path fill="#ADB8BF" d="M311.1,43.1c-8.9,0-16.1,7.2-16.1,16.1c0,6.1,3.4,11.4,8.4,14.1l7.7-13.3l7.7,13.3c5-2.7,8.4-8,8.4-14.1
			C327.2,50.3,320,43.1,311.1,43.1z"/>
	</g>
	<g>
		<path fill="#ADB8BF" d="M351.1,43.1c-8.9,0-16.1,7.2-16.1,16.1c0,6.1,3.4,11.4,8.4,14.1l7.7-13.3l7.7,13.3c5-2.7,8.4-8,8.4-14.1
			C367.2,50.3,360,43.1,351.1,43.1z"/>
	</g>
	<g>
		<path fill="#ADB8BF" d="M391.1,43.1c-8.9,0-16.1,7.2-16.1,16.1c0,6.1,3.4,11.4,8.4,14.1l7.7-13.3l7.7,13.3c5-2.7,8.4-8,8.4-14.1
			C407.2,50.3,400,43.1,391.1,43.1z"/>
	</g>
	<g>
		<path fill="#ADB8BF" d="M431.1,43.1c-8.9,0-16.1,7.2-16.1,16.1c0,6.1,3.4,11.4,8.4,14.1l7.7-13.3l7.7,13.3c5-2.7,8.4-8,8.4-14.1
			C447.2,50.3,440,43.1,431.1,43.1z"/>
	</g>
	<g>
		<path fill="#ADB8BF" d="M471.1,43.1c-8.9,0-16.1,7.2-16.1,16.1c0,6.1,3.4,11.4,8.4,14.1l7.7-13.3l7.7,13.3c5-2.7,8.4-8,8.4-14.1
			C487.2,50.3,480,43.1,471.1,43.1z"/>
	</g>
	<g>
		<path fill="#ADB8BF" d="M511.1,43.1c-8.9,0-16.1,7.2-16.1,16.1c0,6.1,3.4,11.4,8.4,14.1l7.7-13.3l7.7,13.3c5-2.7,8.4-8,8.4-14.1
			C527.2,50.3,520,43.1,511.1,43.1z"/>
	</g>
	<g>
		<path fill="#ADB8BF" d="M551.1,43.1c-8.9,0-16.1,7.2-16.1,16.1c0,6.1,3.4,11.4,8.4,14.1l7.7-13.3l7.7,13.3c5-2.7,8.4-8,8.4-14.1
			C567.2,50.3,560,43.1,551.1,43.1z"/>
	</g>
	<g>
		<path fill="#ADB8BF" d="M591.1,43.1c-8.9,0-16.1,7.2-16.1,16.1c0,6.1,3.4,11.4,8.4,14.1l7.7-13.3l7.7,13.3c5-2.7,8.4-8,8.4-14.1
			C607.2,50.3,600,43.1,591.1,43.1z"/>
	</g>
	<g>
		<path fill="#ADB8BF" d="M631.1,43.1c-8.9,0-16.1,7.2-16.1,16.1c0,6.1,3.4,11.4,8.4,14.1l7.7-13.3l7.7,13.3c5-2.7,8.4-8,8.4-14.1
			C647.2,50.3,640,43.1,631.1,43.1z"/>
	</g>
</g>
</svg>
