<?xml version="1.0" encoding="utf-8"?>
<!-- Generator: Adobe Illustrator 22.1.0, SVG Export Plug-In . SVG Version: 6.00 Build 0)  -->
<svg version="1.1"
	 id="svg8" inkscape:version="0.92.2 5c3e80d, 2017-08-06" sodipodi:docname="MyModule.svg" xmlns:cc="http://creativecommons.org/ns#" xmlns:dc="http://purl.org/dc/elements/1.1/" xmlns:inkscape="http://www.inkscape.org/namespaces/inkscape" xmlns:rdf="http://www.w3.org/1999/02/22-rdf-syntax-ns#" xmlns:sodipodi="http://sodipodi.sourceforge.net/DTD/sodipodi-0.dtd" xmlns:svg="http://www.w3.org/2000/svg"
	 xmlns="http://www.w3.org/2000/svg" xmlns:xlink="http://www.w3.org/1999/xlink" x="0px" y="0px" viewBox="0 0 870 380"
	 enable-background="new 0 0 870 380" xml:space="preserve">
<sodipodi:namedview  bordercolor="#666666" borderopacity="1.0" id="base" inkscape:bbox-nodes="true" inkscape:current-layer="layer1" inkscape:cx="188.48062" inkscape:cy="170.63765" inkscape:document-units="mm" inkscape:pageopacity="0.0" inkscape:pageshadow="2" inkscape:snap-bbox="true" inkscape:snap-bbox-edge-midpoints="true" inkscape:snap-page="true" inkscape:window-height="900" inkscape:window-maximized="0" inkscape:window-width="1600" inkscape:window-x="0" inkscape:window-y="0" inkscape:zoom="1.4" pagecolor="#ffffff" showgrid="false" units="px">
	</sodipodi:namedview>
<g id="layer1" transform="translate(0,-196.45832)" inkscape:groupmode="layer" inkscape:label="Layer 1">
	<path id="rect817" inkscape:connector-curvature="0" fill="#515559" d="M0,196.5h870v380H0V196.5z"/>
</g>
<g>
	<g>
		<path d="M32.7,375.9h-1.5v-6.5l-1.1,0.7l-0.7-1.1l2.2-1.4h1.1V375.9z"/>
	</g>
	<g>
		<path d="M73.9,375.9h-5.3v-1c0.2-3,3.6-3.7,3.6-5.1c0-0.6-0.6-1-1.2-1s-1.1,0.5-1.3,1l-1.3-0.7c0.6-1.1,1.3-1.7,2.6-1.7
			c1.5,0,2.7,0.9,2.7,2.4c0,2.3-3,2.6-3.5,4.6h3.6v1.5H73.9z"/>
	</g>
	<g>
		<path d="M111.2,376c-1.4,0-2.3-0.6-2.7-1.9l1.4-0.6c0.2,0.6,0.7,1,1.3,1c0.7,0,1.3-0.5,1.3-1.2c0-1-0.8-1.2-1.7-1.2v-1.2
			c0.7,0,1.5-0.2,1.5-1.1c0-0.6-0.6-1-1.2-1s-1,0.4-1.2,0.9l-1.3-0.6c0.5-1.2,1.3-1.8,2.6-1.8c1.4,0,2.6,1,2.6,2.4
			c0,0.7-0.3,1.3-0.8,1.6c0.6,0.4,1,1.1,1,1.9C113.9,375,112.7,376,111.2,376z"/>
	</g>
	<g>
		<path d="M154.2,374.1h-0.6v1.9h-1.4v-1.9h-3.7v-1.2l3.2-5.3h1.6l-3.1,5.1h2v-2.4l1.4,0.2v2.2h0.6V374.1z"/>
	</g>
	<g>
		<path d="M191.4,376c-1.4,0-2.2-0.8-2.7-2.1l1.4-0.4c0.2,0.6,0.6,1.1,1.3,1.1c0.9,0,1.4-0.7,1.4-1.5s-0.4-1.5-1.4-1.5
			c-0.5,0-0.8,0.2-1.2,0.5h-1.3v-4.5h4.7v1.4h-3.3v1.5c0.4-0.3,0.8-0.3,1.2-0.3c1.8,0,2.7,1.2,2.7,2.8
			C194.2,374.8,193.2,376,191.4,376z"/>
	</g>
	<g>
		<path d="M231.6,376c-1.8,0-2.8-1.5-2.8-3.1c0-2.1,0.9-4.1,2.6-5.3h1.8c-1.2,0.9-2.2,1.9-2.7,3.4c0.3-0.3,0.7-0.5,1.2-0.5
			c1.6,0,2.6,1.2,2.6,2.8C234.3,374.9,233.3,376,231.6,376z M231.5,371.9c-0.7,0-1.2,0.6-1.2,1.4c0,0.7,0.5,1.3,1.2,1.3
			s1.3-0.6,1.3-1.3C232.8,372.5,232.3,371.9,231.5,371.9z"/>
	</g>
	<g>
		<path d="M274.3,368.8c-1.6,2.1-2.4,4.2-2.3,7.1h-1.6c0-2.6,0.8-5.1,2.3-7h-2.4v0.7H269v-2.1h5.3V368.8z"/>
	</g>
	<g>
		<path d="M311.7,376.1c-1.6,0-2.8-1.1-2.8-2.7c0-0.8,0.5-1.6,1.2-2c-0.6-0.3-0.9-1-0.9-1.6c0-1.4,1.2-2.3,2.5-2.3s2.5,0.9,2.5,2.3
			c0,0.6-0.3,1.3-0.9,1.6c0.8,0.5,1.2,1.2,1.2,2C314.6,375,313.4,376.1,311.7,376.1z M311.7,372c-0.7,0-1.3,0.6-1.3,1.3
			c0,0.7,0.6,1.3,1.3,1.3c0.7,0,1.3-0.5,1.3-1.3C313.1,372.6,312.5,372,311.7,372z M311.7,368.8c-0.6,0-1,0.4-1,1c0,0.6,0.5,1,1,1
			c0.6,0,1-0.4,1-1C312.8,369.2,312.3,368.8,311.7,368.8z"/>
	</g>
	<g>
		<path d="M352,375.9h-1.9c1.1-0.9,2.2-1.9,2.7-3.3c-0.3,0.3-0.7,0.4-1.1,0.4c-1.6,0-2.6-1.2-2.6-2.7c0-1.6,1.1-2.9,2.7-2.9
			c1.8,0,2.8,1.5,2.8,3.1C354.5,372.7,353.7,374.6,352,375.9z M351.7,368.9c-0.7,0-1.2,0.6-1.2,1.3c0,0.7,0.5,1.3,1.3,1.3
			s1.2-0.6,1.2-1.3C352.9,369.5,352.4,368.9,351.7,368.9z"/>
	</g>
	<g>
		<path d="M389.5,375.9H388v-6.5l-1.1,0.7l-0.7-1.1l2.2-1.4h1.1V375.9z"/>
		<path d="M394.5,376c-2.3,0-3.1-2.4-3.1-4.3s0.8-4.3,3.1-4.3c2.3,0,3,2.3,3,4.3S396.7,376,394.5,376z M394.5,368.9
			c-1.4,0-1.5,1.9-1.5,2.8c0,1,0.2,2.8,1.5,2.8c1.4,0,1.5-1.9,1.5-2.8S395.8,368.9,394.5,368.9z"/>
	</g>
	<g>
		<path d="M431.2,375.9h-1.5v-6.5l-1.1,0.7l-0.7-1.1l2.2-1.4h1.1V375.9z"/>
		<path d="M436,375.9h-1.5v-6.5l-1.1,0.7l-0.7-1.1l2.2-1.4h1.1V375.9z"/>
	</g>
	<g>
		<path d="M470.1,375.9h-1.5v-6.5l-1.1,0.7l-0.7-1.1l2.2-1.4h1.1V375.9z"/>
		<path d="M477.4,375.9h-5.3v-1c0.2-3,3.6-3.7,3.6-5.1c0-0.6-0.6-1-1.2-1s-1.1,0.5-1.3,1l-1.3-0.7c0.6-1.1,1.3-1.7,2.6-1.7
			c1.5,0,2.7,0.9,2.7,2.4c0,2.3-3,2.6-3.5,4.6h3.6L477.4,375.9L477.4,375.9z"/>
	</g>
	<g>
		<path d="M510.2,375.9h-1.5v-6.5l-1.1,0.7l-0.7-1.1l2.2-1.4h1.1V375.9z"/>
		<path d="M514.7,376c-1.4,0-2.3-0.6-2.7-1.9l1.4-0.6c0.2,0.6,0.7,1,1.3,1c0.7,0,1.3-0.5,1.3-1.2c0-1-0.8-1.2-1.7-1.2v-1.2
			c0.7,0,1.5-0.2,1.5-1.1c0-0.6-0.6-1-1.2-1c-0.6,0-1,0.4-1.2,0.9l-1.3-0.6c0.5-1.2,1.3-1.8,2.6-1.8c1.4,0,2.6,1,2.6,2.4
			c0,0.7-0.3,1.3-0.8,1.6c0.6,0.4,1,1.1,1,1.9C517.4,375,516.2,376,514.7,376z"/>
	</g>
	<g>
		<path d="M550.2,375.9h-1.5v-6.5l-1.1,0.7l-0.7-1.1l2.2-1.4h1.1V375.9z"/>
		<path d="M557.6,374.1H557v1.9h-1.4v-1.9h-3.7v-1.2l3.2-5.3h1.6l-3.1,5.1h2v-2.4l1.4,0.2v2.2h0.6V374.1z"/>
	</g>
	<g>
		<path d="M590.4,375.9h-1.5v-6.5l-1.1,0.7l-0.7-1.1l2.2-1.4h1.1V375.9z"/>
		<path d="M594.9,376c-1.4,0-2.2-0.8-2.7-2.1l1.4-0.4c0.2,0.6,0.6,1.1,1.3,1.1c0.9,0,1.4-0.7,1.4-1.5s-0.4-1.5-1.4-1.5
			c-0.5,0-0.8,0.2-1.2,0.5h-1.3v-4.5h4.7v1.4h-3.3v1.5c0.4-0.3,0.8-0.3,1.2-0.3c1.8,0,2.7,1.2,2.7,2.8
			C597.7,374.8,596.7,376,594.9,376z"/>
	</g>
	<g>
		<path d="M630.4,375.9H629v-6.5l-1.1,0.7l-0.7-1.1l2.2-1.4h1.1L630.4,375.9L630.4,375.9z"/>
		<path d="M635,376c-1.8,0-2.8-1.5-2.8-3.1c0-2.1,0.9-4.1,2.6-5.3h1.8c-1.2,0.9-2.2,1.9-2.7,3.4c0.3-0.3,0.7-0.5,1.2-0.5
			c1.6,0,2.6,1.2,2.6,2.8C637.8,374.9,636.7,376,635,376z M635,371.9c-0.7,0-1.2,0.6-1.2,1.4c0,0.7,0.5,1.3,1.2,1.3s1.3-0.6,1.3-1.3
			C636.3,372.5,635.8,371.9,635,371.9z"/>
	</g>
</g>
<path fill="#414447" d="M670,364.3H20.3c-5.2,0-9.3-4.2-9.3-9.3v-98.4c0-5.2,4.2-9.3,9.3-9.3H670c5.2,0,9.3,4.2,9.3,9.3v98.4
	C679.3,360.1,675.2,364.3,670,364.3z"/>
<path fill="#282A2B" d="M670,285.2H20.3c-5.2,0-9.3-4.2-9.3-9.3v-30.9c0-5.2,4.2-9.3,9.3-9.3H670c5.2,0,9.3,4.2,9.3,9.3v30.9
	C679.3,281,675.2,285.2,670,285.2z"/>
<path fill="#848A8F" d="M842.8,338.9H695.6c-5.2,0-9.3-4.2-9.3-9.3V255c0-5.2,4.2-9.3,9.3-9.3h147.2c5.2,0,9.3,4.2,9.3,9.3v74.6
	C852.1,334.7,847.9,338.9,842.8,338.9z"/>
<path fill="#515557" d="M842.8,273.2H695.6c-5.2,0-9.3-4.2-9.3-9.3v-7.3c0-5.2,4.2-9.3,9.3-9.3h147.2c5.2,0,9.3,4.2,9.3,9.3v7.3
	C852.1,269,847.9,273.2,842.8,273.2z"/>
<path fill="#686E73" d="M842.8,271.5H695.6c-5.2,0-9.3-4.2-9.3-9.3V109c0-5.2,4.2-9.3,9.3-9.3h147.2c5.2,0,9.3,4.2,9.3,9.3v153.1
	C852.1,267.3,847.9,271.5,842.8,271.5z"/>
<path fill="#7C94AD" d="M852.1,115.9H686.2V109c0-5.2,4.2-9.3,9.3-9.3h147.2c5.2,0,9.3,4.2,9.3,9.3V115.9z"/>
<path fill="#7D848A" d="M842.8,96.4H695.6c-5.2,0-9.3-4.2-9.3-9.3V16.7c0-5.2,4.2-9.3,9.3-9.3h147.2c5.2,0,9.3,4.2,9.3,9.3v70.4
	C852.1,92.2,847.9,96.4,842.8,96.4z"/>
<path fill="#7C9484" d="M852.1,20.7H686.2v-4c0-5.2,4.2-9.3,9.3-9.3h147.2c5.2,0,9.3,4.2,9.3,9.3V20.7z"/>
<g>
	<path fill="#B2BBC4" d="M661,301.5h-1.3v-7h1.3V301.5z"/>
	<path fill="#B2BBC4" d="M667.5,301.5h-1l-2.8-4.4v4.4h-1.3v-7h1l2.8,4.4v-4.4h1.2V301.5z"/>
</g>
<g>
	<path fill="#B2BBC4" d="M654.3,321.4c-0.6,0.7-1,1-2,1c-1.7,0-2.4-1.4-2.4-2.9c0-1.5,0.7-2.9,2.4-2.9c0.9,0,1.4,0.3,1.9,0.9
		l-0.7,0.7c-0.3-0.4-0.7-0.7-1.2-0.7c-1.1,0-1.4,1-1.4,1.9c0,0.9,0.3,1.9,1.4,1.9c0.6,0,0.9-0.3,1.2-0.7L654.3,321.4z"/>
	<path fill="#B2BBC4" d="M659.3,316.7l-1.9,5.6h-1l-1.9-5.6h1.1l1.3,4.1l1.3-4.1H659.3z"/>
	<path fill="#B2BBC4" d="M664.5,320.1h-1.2v2.2h-1v-5.6h2.2c1.1,0,1.9,0.5,1.9,1.7C666.4,319.6,665.6,320.1,664.5,320.1z
		 M664.4,317.7h-1.1v1.4h1.1c0.5,0,0.9-0.1,0.9-0.7C665.3,317.8,664.9,317.7,664.4,317.7z"/>
	<path fill="#B2BBC4" d="M671.2,322.3h-1.1l-0.5-1.5h-2l-0.5,1.5H666l2.2-5.6h0.9L671.2,322.3z M669.2,320l-0.7-1.8l-0.7,1.8H669.2z
		"/>
	<path fill="#B2BBC4" d="M675.8,322.3H675l-2.2-3.5v3.5h-1v-5.6h0.8l2.2,3.5v-3.5h1V322.3z"/>
	<path fill="#B2BBC4" d="M662.1,329.6H660V324h2c1.1,0,1.9,0.5,1.9,1.6c0,0.4-0.2,0.8-0.5,1c0.5,0.3,0.7,0.8,0.7,1.3
		C664.1,329.1,663.2,329.6,662.1,329.6z M662,324.9h-1v1.4h1c0.5,0,0.9-0.1,0.9-0.7S662.5,324.9,662,324.9z M662.1,327.2H661v1.4
		h1.1c0.5,0,1-0.1,1-0.7C663.1,327.3,662.6,327.2,662.1,327.2z"/>
	<path fill="#B2BBC4" d="M666,329.6h-1V324h1V329.6z"/>
</g>
<g>
	<path fill="#B2BBC4" d="M654.4,347.1c-0.6,0.7-1,1-2,1c-1.7,0-2.4-1.4-2.4-2.9c0-1.5,0.7-2.9,2.4-2.9c0.9,0,1.4,0.3,1.9,0.9
		l-0.7,0.7c-0.3-0.4-0.7-0.7-1.2-0.7c-1.1,0-1.4,1-1.4,1.9c0,0.9,0.3,1.9,1.4,1.9c0.6,0,0.9-0.3,1.2-0.7L654.4,347.1z"/>
	<path fill="#B2BBC4" d="M659.4,342.4l-1.9,5.6h-1l-1.9-5.6h1.1l1.3,4.1l1.3-4.1H659.4z"/>
	<path fill="#B2BBC4" d="M666.7,342.4l-1.9,5.6h-1l-1.9-5.6h1.1l1.3,4.1l1.3-4.1H666.7z"/>
	<path fill="#B2BBC4" d="M669.3,348.1c-1.7,0-2.3-1.4-2.3-2.9c0-1.5,0.6-2.9,2.3-2.9s2.3,1.4,2.3,2.9
		C671.6,346.7,671,348.1,669.3,348.1z M669.3,343.3c-1.1,0-1.3,1-1.3,1.9s0.2,1.9,1.3,1.9s1.3-1,1.3-1.9S670.4,343.3,669.3,343.3z"
		/>
	<path fill="#B2BBC4" d="M675.9,348h-3.5v-5.6h1v4.6h2.5V348z"/>
	<path fill="#B2BBC4" d="M661.4,352.9c0,1.4-0.6,2.4-2.1,2.4c-1.5,0-2.1-1-2.1-2.4v-3.3h1v3.2c0,0.8,0.2,1.5,1.1,1.5
		c1,0,1.1-0.7,1.1-1.5v-3.2h1V352.9z"/>
	<path fill="#B2BBC4" d="M666.6,355.2h-0.8l-2.2-3.5v3.5h-1v-5.6h0.8l2.2,3.5v-3.5h1V355.2z"/>
	<path fill="#B2BBC4" d="M668.7,355.2h-1v-5.6h1V355.2z"/>
</g>
<path d="M839.7,333.7h-24.1c-2,0-3.7-1.7-3.7-3.7v-24.4c0-2,1.7-3.7,3.7-3.7h24.1c2,0,3.7,1.7,3.7,3.7v24.4
	C843.3,332.1,841.7,333.7,839.7,333.7z"/>
<path d="M805.7,333.7h-24.1c-2,0-3.7-1.7-3.7-3.7v-24.4c0-2,1.7-3.7,3.7-3.7h24.1c2,0,3.7,1.7,3.7,3.7v24.4
	C809.3,332.1,807.7,333.7,805.7,333.7z"/>
<path d="M838.7,55.2h-24.1c-2,0-3.7-1.7-3.7-3.7V27.2c0-2,1.7-3.7,3.7-3.7h24.1c2,0,3.7,1.7,3.7,3.7v24.4
	C842.4,53.6,840.7,55.2,838.7,55.2z"/>
<path d="M804.7,55.2h-24.1c-2,0-3.7-1.7-3.7-3.7V27.2c0-2,1.7-3.7,3.7-3.7h24.1c2,0,3.7,1.7,3.7,3.7v24.4
	C808.4,53.6,806.7,55.2,804.7,55.2z"/>
<path d="M838.7,93.9h-24.1c-2,0-3.7-1.7-3.7-3.7V65.9c0-2,1.7-3.7,3.7-3.7h24.1c2,0,3.7,1.7,3.7,3.7v24.4
	C842.4,92.3,840.7,93.9,838.7,93.9z"/>
<path d="M804.7,93.9h-24.1c-2,0-3.7-1.7-3.7-3.7V65.9c0-2,1.7-3.7,3.7-3.7h24.1c2,0,3.7,1.7,3.7,3.7v24.4
	C808.4,92.3,806.7,93.9,804.7,93.9z"/>
<path fill="#3C3F42" d="M709.5,113.4h-5.1c-0.9,0-1.7-0.8-1.7-1.7v-6.8c0-0.9,0.8-1.7,1.7-1.7h5.1c0.9,0,1.7,0.8,1.7,1.7v6.8
	C711.2,112.6,710.4,113.4,709.5,113.4z"/>
<path fill="#3C3F42" d="M796.2,299.7h-5.1c-0.9,0-1.7-0.8-1.7-1.7v-6.8c0-0.9,0.8-1.7,1.7-1.7h5.1c0.9,0,1.7,0.8,1.7,1.7v6.8
	C797.9,299,797.2,299.7,796.2,299.7z"/>
<path fill="#3C3F42" d="M830.2,299.8h-5.1c-0.9,0-1.7-0.8-1.7-1.7v-6.8c0-0.9,0.8-1.7,1.7-1.7h5.1c0.9,0,1.7,0.8,1.7,1.7v6.8
	C831.9,299,831.2,299.8,830.2,299.8z"/>
<g>
	<path fill="#B2BBC4" d="M798,285.8h-1.3v-3.7l-1.5,3.7h-0.8l-1.5-3.7v3.7h-1.3v-7h1.2l1.9,5l2-5h1.2V285.8z"/>
	<path fill="#B2BBC4" d="M800.6,285.8h-1.3v-7h1.3V285.8z"/>
	<path fill="#B2BBC4" d="M807.6,285.8h-1.5l-1.6-2.5l-1.6,2.5h-1.5l2.4-3.6l-2.2-3.4h1.5l1.5,2.3l1.5-2.3h1.5l-2.2,3.4L807.6,285.8z
		"/>
	<path fill="#B2BBC4" d="M814,285.9c-2.1,0-2.9-1.7-2.9-3.6s0.8-3.6,2.9-3.6c2.1,0,2.9,1.7,2.9,3.6
		C816.9,284.2,816.1,285.9,814,285.9z M814,280c-1.4,0-1.6,1.2-1.6,2.3s0.3,2.3,1.6,2.3s1.6-1.2,1.6-2.3S815.4,280,814,280z"/>
	<path fill="#B2BBC4" d="M823.2,282.9c0,1.8-0.7,3-2.6,3c-1.9,0-2.6-1.2-2.6-3v-4.1h1.2v4c0,1,0.2,1.8,1.4,1.8
		c1.2,0,1.4-0.8,1.4-1.8v-4h1.2V282.9z"/>
	<path fill="#B2BBC4" d="M829.4,280.1h-2v5.7h-1.3v-5.7h-2v-1.2h5.3V280.1z"/>
</g>
<g>
	<path fill="#FFFFFF" d="M809.2,111.5h-1.3v-3.7l-1.5,3.7h-0.8l-1.5-3.7v3.7h-1.3v-7h1.2l1.9,5l2-5h1.2V111.5z"/>
	<path fill="#FFFFFF" d="M811.8,111.5h-1.3v-7h1.3V111.5z"/>
	<path fill="#FFFFFF" d="M818.9,111.5h-1.5l-1.6-2.5l-1.6,2.5h-1.5l2.4-3.6l-2.2-3.4h1.5l1.5,2.3l1.5-2.3h1.5l-2.2,3.4L818.9,111.5z
		"/>
</g>
<g>
	<path fill="#B3D6FA" d="M723.3,111.5h-1.4l-0.7-1.8h-2.5l-0.7,1.8h-1.4l2.7-7h1.1L723.3,111.5z M720.8,108.5l-0.8-2.2l-0.8,2.2
		H720.8z"/>
	<path fill="#B3D6FA" d="M728.8,108.6c0,1.8-0.7,3-2.6,3c-1.9,0-2.6-1.2-2.6-3v-4.1h1.2v4c0,1,0.2,1.8,1.4,1.8
		c1.2,0,1.4-0.8,1.4-1.8v-4h1.2V108.6z"/>
	<path fill="#B3D6FA" d="M735.7,111.5h-1.5l-1.6-2.5l-1.6,2.5h-1.5l2.4-3.6l-2.2-3.4h1.5l1.5,2.3l1.5-2.3h1.5l-2.2,3.4L735.7,111.5z
		"/>
</g>
<g>
	<path fill="#B2BBC4" d="M796,297.8h-4.3v-7h1.2v5.8h3.1V297.8z"/>
</g>
<g>
	<path fill="#B2BBC4" d="M707.7,111.5h-1.2V106l-0.9,0.6l-0.6-0.9l1.8-1.2h0.9V111.5z"/>
</g>
<path fill="#3C3F42" d="M748.3,113.4h-5.1c-0.9,0-1.7-0.8-1.7-1.7v-6.8c0-0.9,0.8-1.7,1.7-1.7h5.1c0.9,0,1.7,0.8,1.7,1.7v6.8
	C750.1,112.6,749.3,113.4,748.3,113.4z"/>
<path fill="#3C3F42" d="M794.1,113.4h-5.1c-0.9,0-1.7-0.8-1.7-1.7v-6.8c0-0.9,0.8-1.7,1.7-1.7h5.1c0.9,0,1.7,0.8,1.7,1.7v6.8
	C795.8,112.6,795,113.4,794.1,113.4z"/>
<path fill="#3C3F42" d="M830.9,113.4h-5.1c-0.9,0-1.7-0.8-1.7-1.7v-6.8c0-0.9,0.8-1.7,1.7-1.7h5.1c0.9,0,1.7,0.8,1.7,1.7v6.8
	C832.6,112.6,831.8,113.4,830.9,113.4z"/>
<g>
	<path fill="#B2BBC4" d="M748.2,111.5h-4.4v-0.8c0.1-2.5,3-3.1,3-4.2c0-0.5-0.5-0.8-1-0.8c-0.5,0-0.9,0.4-1.1,0.8l-1.1-0.6
		c0.5-0.9,1.1-1.4,2.1-1.4c1.2,0,2.2,0.7,2.2,2c0,1.9-2.5,2.2-2.9,3.8h3V111.5z"/>
</g>
<g>
	<path fill="#B2BBC4" d="M828.7,294.8c0.1,0.1,0.2,0.3,0.3,0.4l1.6,2.6h-1.5l-1.4-2.4c-0.2-0.4-0.3-0.5-0.8-0.5h-0.5v2.9h-1.3v-7
		h2.5c1.3,0,2.4,0.6,2.4,2.1C830.2,293.8,829.6,294.6,828.7,294.8z M827.8,292.1h-1.3v1.8h1.3c0.6,0,1.1-0.2,1.1-0.9
		C828.9,292.2,828.4,292.1,827.8,292.1z"/>
</g>
<path fill="#3C3F42" d="M713.9,299.7h-5.1c-0.9,0-1.7-0.8-1.7-1.7v-6.8c0-0.9,0.8-1.7,1.7-1.7h5.1c0.9,0,1.7,0.8,1.7,1.7v6.8
	C715.6,299,714.9,299.7,713.9,299.7z"/>
<path fill="#3C3F42" d="M747.9,299.8h-5.1c-0.9,0-1.7-0.8-1.7-1.7v-6.8c0-0.9,0.8-1.7,1.7-1.7h5.1c0.9,0,1.7,0.8,1.7,1.7v6.8
	C749.6,299,748.9,299.8,747.9,299.8z"/>
<g>
	<path fill="#B2BBC4" d="M720.5,285.8h-1.3v-3.7l-1.5,3.7H717l-1.5-3.7v3.7h-1.3v-7h1.2l1.9,5l2-5h1.2V285.8z"/>
	<path fill="#B2BBC4" d="M723.2,285.8h-1.3v-7h1.3V285.8z"/>
	<path fill="#B2BBC4" d="M730.2,285.8h-1.5l-1.6-2.5l-1.6,2.5h-1.5l2.4-3.6l-2.2-3.4h1.5l1.5,2.3l1.5-2.3h1.5l-2.2,3.4L730.2,285.8z
		"/>
	<path fill="#B2BBC4" d="M735.3,285.8h-1.3v-7h1.3V285.8z"/>
	<path fill="#B2BBC4" d="M741.8,285.8h-1l-2.8-4.4v4.4h-1.3v-7h1l2.8,4.4v-4.4h1.2V285.8z"/>
</g>
<g>
	<path fill="#B2BBC4" d="M713.7,297.8h-4.3v-7h1.2v5.8h3.1V297.8z"/>
</g>
<g>
	<path fill="#B2BBC4" d="M746.4,294.8c0.1,0.1,0.2,0.3,0.3,0.4l1.6,2.6H747l-1.4-2.4c-0.2-0.4-0.3-0.5-0.8-0.5h-0.5v2.9H743v-7h2.5
		c1.3,0,2.4,0.6,2.4,2.1C747.9,293.8,747.3,294.6,746.4,294.8z M745.5,292.1h-1.3v1.8h1.3c0.6,0,1.1-0.2,1.1-0.9
		C746.6,292.2,746.1,292.1,745.5,292.1z"/>
</g>
<rect x="682.7" y="58.2" fill="#515559" width="177.3" height="1.2"/>
<rect x="18.5" y="297.5" fill="#4F5257" width="622.1" height="1.2"/>
<rect x="698.7" y="186" fill="#757A80" width="137.3" height="1.2"/>
<rect x="698.7" y="138.1" fill="#8A8F96" width="137.3" height="1.2"/>
<rect x="698.7" y="232.5" fill="#8A8F96" width="137.3" height="1.2"/>
<rect x="18.5" y="323.2" fill="#4F5257" width="622.1" height="1.2"/>
<rect x="18.5" y="349.5" fill="#4F5257" width="622.1" height="1.2"/>
<g>
	<path fill="#FFFFFF" d="M793.6,111.5h-4.3v-7h1.2v5.8h3.1V111.5z"/>
</g>
<g>
	<path fill="#FFFFFF" d="M829.6,108.4c0.1,0.1,0.2,0.3,0.3,0.4l1.6,2.6h-1.5l-1.4-2.4c-0.2-0.4-0.3-0.5-0.8-0.5h-0.5v2.9h-1.3v-7
		h2.5c1.3,0,2.4,0.6,2.4,2.1C831,107.5,830.5,108.2,829.6,108.4z M828.7,105.7h-1.3v1.8h1.3c0.6,0,1.1-0.2,1.1-0.9
		C829.8,105.8,829.3,105.7,828.7,105.7z"/>
</g>
<path fill="#3C3F42" d="M794.1,19.4h-5.1c-0.9,0-1.7-0.8-1.7-1.7v-6.8c0-0.9,0.8-1.7,1.7-1.7h5.1c0.9,0,1.7,0.8,1.7,1.7v6.8
	C795.8,18.6,795,19.4,794.1,19.4z"/>
<path fill="#3C3F42" d="M830.9,19.4h-5.1c-0.9,0-1.7-0.8-1.7-1.7v-6.8c0-0.9,0.8-1.7,1.7-1.7h5.1c0.9,0,1.7,0.8,1.7,1.7v6.8
	C832.6,18.6,831.8,19.4,830.9,19.4z"/>
<g>
	<path fill="#FFFFFF" d="M794,17.5h-4.3v-7h1.2v5.8h3.1V17.5z"/>
</g>
<g>
	<path fill="#FFFFFF" d="M829.6,14.6c0.1,0.1,0.2,0.3,0.3,0.4l1.6,2.6h-1.5l-1.4-2.4c-0.2-0.4-0.3-0.5-0.8-0.5h-0.5v2.9h-1.3v-7h2.5
		c1.3,0,2.4,0.6,2.4,2.1C831,13.6,830.5,14.3,829.6,14.6z M828.7,11.8h-1.3v1.8h1.3c0.6,0,1.1-0.2,1.1-0.9
		C829.8,12,829.3,11.8,828.7,11.8z"/>
</g>
<path fill="#3C3F42" d="M709.4,19.4h-5.1c-0.9,0-1.7-0.8-1.7-1.7v-6.8c0-0.9,0.8-1.7,1.7-1.7h5.1c0.9,0,1.7,0.8,1.7,1.7v6.8
	C711.1,18.6,710.4,19.4,709.4,19.4z"/>
<path fill="#3C3F42" d="M748.3,19.4h-5.1c-0.9,0-1.7-0.8-1.7-1.7v-6.8c0-0.9,0.8-1.7,1.7-1.7h5.1c0.9,0,1.7,0.8,1.7,1.7v6.8
	C750.1,18.6,749.3,19.4,748.3,19.4z"/>
<g>
	<path fill="#FFFFFF" d="M709.3,17.5H705v-7h1.2v5.8h3.1V17.5z"/>
</g>
<g>
	<path fill="#FFFFFF" d="M746.9,14.6c0.1,0.1,0.2,0.3,0.3,0.4l1.6,2.6h-1.5l-1.4-2.4c-0.2-0.4-0.3-0.5-0.8-0.5h-0.5v2.9h-1.3v-7h2.5
		c1.3,0,2.4,0.6,2.4,2.1C748.4,13.6,747.8,14.3,746.9,14.6z M746,11.8h-1.3v1.8h1.3c0.6,0,1.1-0.2,1.1-0.9
		C747.1,12,746.6,11.8,746,11.8z"/>
</g>
<g>
	<path fill="#7D848A" d="M238.8,11.3c-0.8,0.9-1.3,1.3-2.5,1.3c-2.1,0-3.1-1.8-3.1-3.7c0-1.9,0.9-3.7,3.1-3.7c1.1,0,1.8,0.4,2.5,1.2
		l-0.9,0.9c-0.4-0.5-0.8-0.8-1.6-0.8c-1.4,0-1.8,1.3-1.8,2.4c0,1.1,0.4,2.4,1.8,2.4c0.7,0,1.2-0.4,1.6-0.9L238.8,11.3z"/>
	<path fill="#7D848A" d="M242.4,12.6c-2.2,0-3-1.8-3-3.7c0-1.9,0.8-3.7,3-3.7s3,1.8,3,3.7C245.4,10.8,244.6,12.6,242.4,12.6z
		 M242.4,6.5c-1.4,0-1.7,1.3-1.7,2.4c0,1.1,0.3,2.4,1.7,2.4s1.7-1.3,1.7-2.4C244.1,7.7,243.8,6.5,242.4,6.5z"/>
	<path fill="#7D848A" d="M251.8,12.5h-1.1L247.9,8v4.5h-1.3V5.3h1.1l2.9,4.5V5.3h1.3V12.5z"/>
	<path fill="#7D848A" d="M255.9,12.6c-1.5,0-2.5-0.7-2.9-2.1l1.2-0.2c0.2,0.8,0.8,1.1,1.7,1.1c0.6,0,1.4-0.3,1.4-1
		c0-1.5-4-0.5-4-3.1c0-1.4,1.2-2,2.5-2c1.3,0,2.1,0.5,2.7,1.6l-1.1,0.5c-0.3-0.6-0.8-0.9-1.5-0.9c-0.5,0-1.1,0.2-1.1,0.8
		c0,1.3,4,0.4,4,3.1C258.5,11.8,257.2,12.6,255.9,12.6z"/>
	<path fill="#7D848A" d="M264.4,6.5h-2.1v5.9H261V6.5h-2.1V5.3h5.5V6.5z"/>
	<path fill="#7D848A" d="M270.6,12.5h-1.4l-0.7-1.9H266l-0.7,1.9h-1.4l2.8-7.2h1.2L270.6,12.5z M268.1,9.5l-0.9-2.3l-0.8,2.3H268.1z
		"/>
	<path fill="#7D848A" d="M276.6,12.5h-1.1L272.7,8v4.5h-1.3V5.3h1.1l2.9,4.5V5.3h1.3V12.5z"/>
	<path fill="#7D848A" d="M283.1,6.5H281v5.9h-1.3V6.5h-2.1V5.3h5.5V6.5z"/>
	<path fill="#7D848A" d="M286.5,10.2h-3v-1h3V10.2z"/>
	<path fill="#7D848A" d="M290.7,9.6h-1.5v2.9h-1.3V5.3h2.8c1.4,0,2.4,0.6,2.4,2.2C293.1,9,292.1,9.6,290.7,9.6z M290.6,6.5h-1.5v1.9
		h1.5c0.7,0,1.2-0.1,1.2-0.9C291.8,6.7,291.2,6.5,290.6,6.5z"/>
	<path fill="#7D848A" d="M296.8,12.6c-2.2,0-3-1.8-3-3.7c0-1.9,0.8-3.7,3-3.7s3,1.8,3,3.7C299.8,10.8,299,12.6,296.8,12.6z
		 M296.8,6.5c-1.4,0-1.7,1.3-1.7,2.4c0,1.1,0.3,2.4,1.7,2.4s1.7-1.3,1.7-2.4C298.5,7.7,298.2,6.5,296.8,6.5z"/>
	<path fill="#7D848A" d="M308.8,5.3l-1.7,7.2h-1.4l-1.2-4.7l-1.2,4.7h-1.4l-1.7-7.2h1.3l1.1,5.1l1.3-5.1h1.1l1.3,5.1l1.1-5.1H308.8z
		"/>
	<path fill="#7D848A" d="M314.5,12.5h-4.9V5.3h4.9v1.3H311v1.6h3.1v1.2H311v1.8h3.6V12.5z"/>
	<path fill="#7D848A" d="M319.4,9.4c0.1,0.1,0.3,0.3,0.4,0.4l1.7,2.7h-1.5l-1.5-2.5c-0.2-0.4-0.3-0.5-0.8-0.5h-0.5v3h-1.3V5.3h2.6
		c1.4,0,2.5,0.7,2.5,2.2C320.9,8.4,320.3,9.1,319.4,9.4z M318.4,6.5h-1.3v1.8h1.3c0.7,0,1.2-0.2,1.2-0.9
		C319.6,6.7,319,6.5,318.4,6.5z"/>
	<path fill="#7D848A" d="M328.2,9.6h-1.5v2.9h-1.3V5.3h2.8c1.4,0,2.4,0.6,2.4,2.2C330.6,9,329.7,9.6,328.2,9.6z M328.1,6.5h-1.5v1.9
		h1.5c0.7,0,1.2-0.1,1.2-0.9C329.3,6.7,328.7,6.5,328.1,6.5z"/>
	<path fill="#7D848A" d="M336.8,12.5h-1.4l-0.7-1.9h-2.5l-0.7,1.9h-1.4l2.8-7.2h1.2L336.8,12.5z M334.3,9.5l-0.9-2.3l-0.8,2.3H334.3
		z"/>
	<path fill="#7D848A" d="M342.8,12.5h-1.1L338.9,8v4.5h-1.3V5.3h1.1l2.9,4.5V5.3h1.3V12.5z"/>
	<path fill="#7D848A" d="M349.5,12.5h-1.1L345.6,8v4.5h-1.3V5.3h1.1l2.9,4.5V5.3h1.3V12.5z"/>
	<path fill="#7D848A" d="M352.3,12.5H351V5.3h1.3V12.5z"/>
	<path fill="#7D848A" d="M359.1,12.5H358L355.2,8v4.5h-1.3V5.3h1.1l2.9,4.5V5.3h1.3V12.5z"/>
	<path fill="#7D848A" d="M365.8,8.5v4h-1.1v-0.7c-0.4,0.6-0.9,0.8-1.5,0.8c-2.1,0-3-1.8-3-3.7c0-1.9,0.8-3.7,3-3.7
		c1.1,0,1.8,0.4,2.4,1.3l-0.9,0.8c-0.4-0.5-0.8-0.9-1.5-0.9c-1.4,0-1.7,1.3-1.7,2.4c0,1.1,0.3,2.4,1.7,2.4c1,0,1.3-0.8,1.3-1.7h-1.4
		V8.5H365.8z"/>
	<path fill="#7D848A" d="M372.5,12.5h-1.3V6.9l-1,0.6l-0.6-1l1.9-1.2h0.9V12.5z"/>
	<path fill="#7D848A" d="M376.5,12.6c-1.5,0-2.4-1.3-2.4-2.7c0-1.8,0.8-3.5,2.2-4.6h1.5c-1,0.8-1.9,1.7-2.3,2.9
		c0.3-0.3,0.6-0.4,1-0.4c1.4,0,2.2,1.1,2.2,2.4C378.9,11.6,378,12.6,376.5,12.6z M376.5,9c-0.6,0-1.1,0.6-1.1,1.2
		c0,0.6,0.4,1.1,1.1,1.1s1.1-0.5,1.1-1.1C377.6,9.5,377.2,9,376.5,9z"/>
	<path fill="#7D848A" d="M382.9,10.2h-3v-1h3V10.2z"/>
	<path fill="#7D848A" d="M389.6,11.3c-0.8,0.9-1.3,1.3-2.5,1.3c-2.1,0-3.1-1.8-3.1-3.7c0-1.9,0.9-3.7,3.1-3.7c1.1,0,1.8,0.4,2.5,1.2
		l-0.9,0.9c-0.4-0.5-0.8-0.8-1.6-0.8c-1.4,0-1.8,1.3-1.8,2.4c0,1.1,0.4,2.4,1.8,2.4c0.7,0,1.2-0.4,1.6-0.9L389.6,11.3z"/>
	<path fill="#7D848A" d="M396.1,12.5h-1.3V9.4h-2.9v3.1h-1.3V5.3h1.3v2.9h2.9V5.3h1.3V12.5z"/>
	<path fill="#7D848A" d="M403.6,12.5h-1.4l-0.7-1.9H399l-0.7,1.9h-1.4l2.8-7.2h1.2L403.6,12.5z M401.1,9.5l-0.9-2.3l-0.8,2.3H401.1z
		"/>
	<path fill="#7D848A" d="M409.6,12.5h-1.1L405.7,8v4.5h-1.3V5.3h1.1l2.9,4.5V5.3h1.3V12.5z"/>
	<path fill="#7D848A" d="M416.3,12.5h-1.1L412.4,8v4.5h-1.3V5.3h1.1l2.9,4.5V5.3h1.3V12.5z"/>
	<path fill="#7D848A" d="M422.7,12.5h-4.9V5.3h4.9v1.3h-3.6v1.6h3.1v1.2h-3.1v1.8h3.6V12.5z"/>
	<path fill="#7D848A" d="M428.4,12.5H424V5.3h1.3v6h3.2V12.5z"/>
	<path fill="#7D848A" d="M439.1,12.5h-1.3V8.6l-1.5,3.9h-0.8l-1.5-3.9v3.9h-1.3V5.3h1.3l2,5.1l2.1-5.1h1.2V12.5z"/>
	<path fill="#7D848A" d="M441.8,12.5h-1.3V5.3h1.3V12.5z"/>
	<path fill="#7D848A" d="M449.1,12.5h-1.6l-1.6-2.6l-1.7,2.6h-1.5l2.5-3.7l-2.3-3.5h1.6l1.5,2.4l1.5-2.4h1.5l-2.3,3.5L449.1,12.5z"
		/>
	<path fill="#7D848A" d="M454.9,12.5H450V5.3h4.9v1.3h-3.6v1.6h3.1v1.2h-3.1v1.8h3.6V12.5z"/>
	<path fill="#7D848A" d="M459.7,9.4c0.1,0.1,0.3,0.3,0.4,0.4l1.7,2.7h-1.5l-1.5-2.5c-0.2-0.4-0.3-0.5-0.8-0.5h-0.5v3h-1.3V5.3h2.6
		c1.4,0,2.5,0.7,2.5,2.2C461.3,8.4,460.7,9.1,459.7,9.4z M458.8,6.5h-1.3v1.8h1.3c0.7,0,1.2-0.2,1.2-0.9
		C460,6.7,459.4,6.5,458.8,6.5z"/>
</g>
<rect x="768.6" y="23.5" fill="#969FA6" width="1.2" height="31.7"/>
<rect x="768.5" y="62.2" fill="#969FA6" width="1.2" height="31.7"/>
<rect x="768.6" y="119.7" fill="#7D848A" width="1.2" height="148.6"/>
<g>
	<path fill="#C7EDD3" d="M719.6,10.5h2.2c1.4,0,2.4,0.5,2.4,1.9c0,1.4-1,2-2.4,2h-1V17h-1.2V10.5z M721.6,13.5
		c0.9,0,1.4-0.4,1.4-1.1c0-0.8-0.5-1-1.4-1h-0.9v2.1H721.6z M721.5,14.2l0.8-0.7l2,3.6h-1.3L721.5,14.2z"/>
	<path fill="#C7EDD3" d="M725.5,10.5h3.9v1h-2.8v1.7h2.4v1h-2.4v1.9h2.9v1h-4V10.5z"/>
	<path fill="#C7EDD3" d="M732.2,11.5h-1.9v-1h4.9v1h-1.9V17h-1.2V11.5z"/>
</g>
<g>
	<path fill="#C7EDD3" d="M798.3,16.2l0.7-0.8c0.5,0.4,1.1,0.7,1.7,0.7c0.7,0,1.1-0.3,1.1-0.8c0-0.5-0.4-0.7-1-1l-0.9-0.4
		c-0.6-0.3-1.3-0.8-1.3-1.7c0-1,0.9-1.8,2.2-1.8c0.8,0,1.5,0.3,2,0.8l-0.6,0.7c-0.4-0.4-0.9-0.6-1.4-0.6c-0.6,0-1,0.3-1,0.8
		c0,0.5,0.5,0.7,1,0.9l0.9,0.4c0.8,0.3,1.3,0.8,1.3,1.8c0,1.1-0.9,1.9-2.3,1.9C799.8,17.2,798.9,16.8,798.3,16.2z"/>
	<path fill="#C7EDD3" d="M804.2,10.5h3.9v1h-2.8v1.7h2.4v1h-2.4v1.9h2.9v1h-4V10.5z"/>
	<path fill="#C7EDD3" d="M809.6,10.5h1.2l2,3.7l0.7,1.4h0c-0.1-0.7-0.1-1.5-0.1-2.2v-2.8h1.1V17h-1.2l-2-3.7l-0.7-1.4h0
		c0.1,0.7,0.1,1.5,0.1,2.2V17h-1.1V10.5z"/>
	<path fill="#C7EDD3" d="M816.1,10.5h1.7c2,0,3.2,1.1,3.2,3.2c0,2.2-1.2,3.3-3.1,3.3h-1.8V10.5z M817.8,16.1c1.3,0,2.1-0.7,2.1-2.4
		c0-1.6-0.8-2.3-2.1-2.3h-0.5v4.7H817.8z"/>
</g>
<polyline fill="none" stroke="#3C3F42" stroke-miterlimit="10" points="791.2,240.5 791.2,245.6 829.6,245.6 829.6,240.5 "/>
<g>
	<polygon fill="#3C3F42" points="788.2,242.9 791.2,239.9 794.2,242.9 	"/>
</g>
<path fill="#8A9299" d="M817.9,266.5h-14.2c-0.9,0-1.7-0.8-1.7-1.7v-25.3c0-0.9,0.8-1.7,1.7-1.7h14.2c0.9,0,1.7,0.8,1.7,1.7v25.3
	C819.6,265.8,818.8,266.5,817.9,266.5z"/>
<g>
	<path fill="#FFFFFF" d="M807.4,244.9h-2.7v-4.4h0.8v3.6h1.9V244.9z"/>
	<path fill="#FFFFFF" d="M808.9,244.9h-0.8v-4.4h0.8V244.9z"/>
	<path fill="#FFFFFF" d="M813,244.9h-0.7l-1.8-2.8v2.8h-0.8v-4.4h0.7l1.8,2.8v-2.8h0.8V244.9z"/>
	<path fill="#FFFFFF" d="M813.9,244.9v-4.4h0.8v4.4H813.9z M815.6,242.7l1.6,2.2h-0.9l-1.6-2.2l1.5-2.2h0.9L815.6,242.7z"/>
</g>
<path fill="#7D848A" d="M670,88.6H20.3c-5.2,0-9.3-4.2-9.3-9.3V25.5c0-5.2,4.2-9.3,9.3-9.3H670c5.2,0,9.3,4.2,9.3,9.3v53.7
	C679.3,84.4,675.2,88.6,670,88.6z"/>
<path fill="#686E73" d="M670,282.9H20.3c-5.2,0-9.3-4.2-9.3-9.3V101c0-5.2,4.2-9.3,9.3-9.3H670c5.2,0,9.3,4.2,9.3,9.3v172.6
	C679.3,278.7,675.2,282.9,670,282.9z"/>
<g>
	<path fill="#B2BBC4" d="M654.5,110.5H653v2.8h-1.3v-7h2.7c1.4,0,2.4,0.6,2.4,2.1C656.8,109.9,655.9,110.5,654.5,110.5z
		 M654.4,107.5H653v1.8h1.4c0.6,0,1.1-0.1,1.1-0.9C655.5,107.7,655,107.5,654.4,107.5z"/>
	<path fill="#B2BBC4" d="M662.8,113.3h-1.4l-0.7-1.8h-2.5l-0.7,1.8h-1.4l2.7-7h1.1L662.8,113.3z M660.4,110.4l-0.8-2.2l-0.8,2.2
		H660.4z"/>
	<path fill="#B2BBC4" d="M668.6,113.3h-1l-2.8-4.4v4.4h-1.3v-7h1l2.8,4.4v-4.4h1.2V113.3z"/>
</g>
<g>
	<path fill="#B2BBC4" d="M658,181.6l-2.4,7h-1.2l-2.3-7h1.3l1.6,5.1l1.6-5.1H658z"/>
	<path fill="#B2BBC4" d="M661.2,188.7c-2.1,0-2.9-1.7-2.9-3.6c0-1.8,0.8-3.6,2.9-3.6c2.1,0,2.9,1.7,2.9,3.6
		C664.1,187,663.3,188.7,661.2,188.7z M661.2,182.8c-1.4,0-1.6,1.2-1.6,2.3c0,1.1,0.3,2.3,1.6,2.3s1.6-1.2,1.6-2.3
		C662.9,184,662.6,182.8,661.2,182.8z"/>
	<path fill="#B2BBC4" d="M669.6,188.6h-4.3v-7h1.2v5.8h3.1V188.6z"/>
</g>
<g>
	<path fill="#B2BBC4" d="M656,260.4h-1.3v-3.7l-1.5,3.7h-0.8l-1.5-3.7v3.7h-1.3v-7h1.2l1.9,5l2-5h1.2V260.4z"/>
	<path fill="#B2BBC4" d="M662.5,257.5c0,1.8-0.7,3-2.6,3c-1.9,0-2.6-1.2-2.6-3v-4.1h1.2v4c0,1,0.2,1.8,1.4,1.8
		c1.2,0,1.4-0.8,1.4-1.8v-4h1.2V257.5z"/>
	<path fill="#B2BBC4" d="M668.7,254.6h-2v5.7h-1.3v-5.7h-2v-1.2h5.3V254.6z"/>
	<path fill="#B2BBC4" d="M674.4,260.4h-4.7v-7h4.7v1.2h-3.5v1.6h3v1.2h-3v1.8h3.5V260.4z"/>
</g>
<g>
	<path fill="#B2BBC4" d="M653,278c-1.5,0-2.4-0.7-2.8-2.1l1.2-0.2c0.2,0.8,0.8,1.1,1.6,1.1c0.6,0,1.3-0.3,1.3-1c0-1.4-3.9-0.5-3.9-3
		c0-1.3,1.2-2,2.4-2c1.2,0,2,0.5,2.6,1.5l-1.1,0.5c-0.3-0.6-0.8-0.9-1.5-0.9c-0.4,0-1.1,0.2-1.1,0.8c0,1.2,3.9,0.4,3.9,3
		C655.6,277.2,654.3,278,653,278z"/>
	<path fill="#B2BBC4" d="M659.3,277.9c-2.1,0-2.9-1.7-2.9-3.6s0.8-3.6,2.9-3.6c2.1,0,2.9,1.7,2.9,3.6
		C662.2,276.2,661.4,277.9,659.3,277.9z M659.3,272.1c-1.4,0-1.6,1.2-1.6,2.3c0,1.1,0.3,2.3,1.6,2.3s1.6-1.2,1.6-2.3
		C660.9,273.3,660.7,272.1,659.3,272.1z"/>
	<path fill="#B2BBC4" d="M667.6,277.9h-4.3v-7h1.2v5.8h3.1V277.9z"/>
	<path fill="#B2BBC4" d="M671,277.9c-2.1,0-2.9-1.7-2.9-3.6s0.8-3.6,2.9-3.6c2.1,0,2.9,1.7,2.9,3.6
		C673.9,276.2,673.1,277.9,671,277.9z M671,272.1c-1.4,0-1.6,1.2-1.6,2.3c0,1.1,0.3,2.3,1.6,2.3s1.6-1.2,1.6-2.3
		C672.6,273.3,672.4,272.1,671,272.1z"/>
</g>
<path fill="#3C3F42" d="M676,38h-5.1c-0.9,0-1.7-0.8-1.7-1.7v-6.8c0-0.9,0.8-1.7,1.7-1.7h5.1c0.9,0,1.7,0.8,1.7,1.7v6.8
	C677.7,37.3,676.9,38,676,38z"/>
<path fill="#3C3F42" d="M676,77h-5.1c-0.9,0-1.7-0.8-1.7-1.7v-6.8c0-0.9,0.8-1.7,1.7-1.7h5.1c0.9,0,1.7,0.8,1.7,1.7v6.8
	C677.7,76.3,676.9,77,676,77z"/>
<g>
	<path fill="#B2BBC4" d="M655.5,36.3h-1.4l-0.7-1.8H651l-0.7,1.8H649l2.7-7h1.1L655.5,36.3z M653.1,33.4l-0.8-2.2l-0.8,2.2H653.1z"
		/>
	<path fill="#B2BBC4" d="M661,33.4c0,1.8-0.7,3-2.6,3c-1.9,0-2.6-1.2-2.6-3v-4.1h1.2v4c0,1,0.2,1.8,1.4,1.8c1.2,0,1.4-0.8,1.4-1.8
		v-4h1.2V33.4z"/>
	<path fill="#B2BBC4" d="M668,36.3h-1.5l-1.6-2.5l-1.6,2.5h-1.5l2.4-3.6l-2.2-3.4h1.5l1.5,2.3l1.5-2.3h1.5l-2.2,3.4L668,36.3z"/>
	<path fill="#B2BBC4" d="M674.1,36.3h-1.2v-5.4l-0.9,0.6l-0.6-0.9l1.8-1.2h0.9V36.3z"/>
</g>
<g>
	<path fill="#B2BBC4" d="M655.5,75.3h-1.4l-0.7-1.8H651l-0.7,1.8H649l2.7-7h1.1L655.5,75.3z M653.1,72.4l-0.8-2.2l-0.8,2.2H653.1z"
		/>
	<path fill="#B2BBC4" d="M661,72.4c0,1.8-0.7,3-2.6,3c-1.9,0-2.6-1.2-2.6-3v-4.1h1.2v4c0,1,0.2,1.8,1.4,1.8c1.2,0,1.4-0.8,1.4-1.8
		v-4h1.2V72.4z"/>
	<path fill="#B2BBC4" d="M668,75.3h-1.5l-1.6-2.5l-1.6,2.5h-1.5l2.4-3.6l-2.2-3.4h1.5l1.5,2.3l1.5-2.3h1.5l-2.2,3.4L668,75.3z"/>
	<path fill="#B2BBC4" d="M676.1,75.3h-4.4v-0.8c0.1-2.5,3-3.1,3-4.2c0-0.5-0.5-0.8-1-0.8c-0.5,0-0.9,0.4-1.1,0.8l-1.1-0.6
		c0.5-0.9,1.1-1.4,2.1-1.4c1.2,0,2.2,0.7,2.2,2c0,1.9-2.5,2.2-2.9,3.8h3V75.3z"/>
</g>
<rect x="7.3" y="51.8" fill="#515559" width="674.3" height="1.2"/>
<rect x="25.4" y="110.7" fill="#757A80" width="609.8" height="1.2"/>
<rect x="25.4" y="185.9" fill="#757A80" width="609.8" height="1.2"/>
<rect x="25.4" y="232.4" fill="#8A8F96" width="609.8" height="1.2"/>
<g>
	<g>
		<g>
			<path fill="#868F94" d="M32.1,93.7v19.1l7,12.1c5.2-2.8,8.7-8.3,8.7-14.6C47.8,101.4,40.9,94.2,32.1,93.7z"/>
			<path fill="#868F94" d="M30.2,93.7c-8.7,0.5-15.6,7.7-15.6,16.5c0,6.3,3.5,11.8,8.7,14.6l7-12.1V93.7z"/>
		</g>
		<rect x="30.2" y="93.7" fill="#FFFFFF" width="1.9" height="19.1"/>
	</g>
	<g>
		<g>
			<path fill="#868F94" d="M72.1,93.7v19.1l7,12.1c5.2-2.8,8.7-8.3,8.7-14.6C87.7,101.4,80.8,94.2,72.1,93.7z"/>
			<path fill="#868F94" d="M70.2,93.7c-8.7,0.5-15.6,7.7-15.6,16.5c0,6.3,3.5,11.8,8.7,14.6l7-12.1V93.7z"/>
		</g>
		<rect x="70.2" y="93.7" fill="#FFFFFF" width="1.9" height="19.1"/>
	</g>
	<g>
		<g>
			<path fill="#868F94" d="M112.1,93.7v19.1l7,12.1c5.2-2.8,8.7-8.3,8.7-14.6C127.7,101.4,120.8,94.2,112.1,93.7z"/>
			<path fill="#868F94" d="M110.2,93.7c-8.7,0.5-15.6,7.7-15.6,16.5c0,6.3,3.5,11.8,8.7,14.6l7-12.1V93.7z"/>
		</g>
		<rect x="110.2" y="93.7" fill="#FFFFFF" width="1.9" height="19.1"/>
	</g>
	<g>
		<g>
			<path fill="#868F94" d="M152,93.7v19.1l7,12.1c5.2-2.8,8.7-8.3,8.7-14.6C167.7,101.4,160.8,94.2,152,93.7z"/>
			<path fill="#868F94" d="M150.1,93.7c-8.7,0.5-15.6,7.7-15.6,16.5c0,6.3,3.5,11.8,8.7,14.6l7-12.1V93.7z"/>
		</g>
		<rect x="150.1" y="93.7" fill="#FFFFFF" width="1.9" height="19.1"/>
	</g>
	<g>
		<g>
			<path fill="#868F94" d="M192,93.7v19.1l7,12.1c5.2-2.8,8.7-8.3,8.7-14.6C207.6,101.4,200.7,94.2,192,93.7z"/>
			<path fill="#868F94" d="M190.1,93.7c-8.7,0.5-15.6,7.7-15.6,16.5c0,6.3,3.5,11.8,8.7,14.6l7-12.1V93.7z"/>
		</g>
		<rect x="190.1" y="93.7" fill="#FFFFFF" width="1.9" height="19.1"/>
	</g>
	<g>
		<g>
			<path fill="#868F94" d="M232,93.7v19.1l7,12.1c5.2-2.8,8.7-8.3,8.7-14.6C247.6,101.4,240.7,94.2,232,93.7z"/>
			<path fill="#868F94" d="M230,93.7c-8.7,0.5-15.6,7.7-15.6,16.5c0,6.3,3.5,11.8,8.7,14.6l7-12.1V93.7z"/>
		</g>
		<rect x="230" y="93.7" fill="#FFFFFF" width="1.9" height="19.1"/>
	</g>
	<g>
		<g>
			<path fill="#868F94" d="M271.9,93.7v19.1l7,12.1c5.2-2.8,8.7-8.3,8.7-14.6C287.6,101.4,280.6,94.2,271.9,93.7z"/>
			<path fill="#868F94" d="M270,93.7c-8.7,0.5-15.6,7.7-15.6,16.5c0,6.3,3.5,11.8,8.7,14.6l7-12.1V93.7z"/>
		</g>
		<rect x="270" y="93.7" fill="#FFFFFF" width="1.9" height="19.1"/>
	</g>
	<g>
		<g>
			<path fill="#868F94" d="M311.9,93.7v19.1l7,12.1c5.2-2.8,8.7-8.3,8.7-14.6C327.5,101.4,320.6,94.2,311.9,93.7z"/>
			<path fill="#868F94" d="M310,93.7c-8.7,0.5-15.6,7.7-15.6,16.5c0,6.3,3.5,11.8,8.7,14.6l7-12.1V93.7z"/>
		</g>
		<rect x="310" y="93.7" fill="#FFFFFF" width="1.9" height="19.1"/>
	</g>
	<g>
		<g>
			<path fill="#868F94" d="M351.9,93.7v19.1l7,12.1c5.2-2.8,8.7-8.3,8.7-14.6C367.5,101.4,360.6,94.2,351.9,93.7z"/>
			<path fill="#868F94" d="M349.9,93.7c-8.7,0.5-15.6,7.7-15.6,16.5c0,6.3,3.5,11.8,8.7,14.6l7-12.1V93.7z"/>
		</g>
		<rect x="349.9" y="93.7" fill="#FFFFFF" width="1.9" height="19.1"/>
	</g>
	<g>
		<g>
			<path fill="#868F94" d="M391.8,93.7v19.1l7,12.1c5.2-2.8,8.7-8.3,8.7-14.6C407.5,101.4,400.5,94.2,391.8,93.7z"/>
			<path fill="#868F94" d="M389.9,93.7c-8.7,0.5-15.6,7.7-15.6,16.5c0,6.3,3.5,11.8,8.7,14.6l7-12.1V93.7z"/>
		</g>
		<rect x="389.9" y="93.7" fill="#FFFFFF" width="1.9" height="19.1"/>
	</g>
	<g>
		<g>
			<path fill="#868F94" d="M431.8,93.7v19.1l7,12.1c5.2-2.8,8.7-8.3,8.7-14.6C447.4,101.4,440.5,94.2,431.8,93.7z"/>
			<path fill="#868F94" d="M429.9,93.7c-8.7,0.5-15.6,7.7-15.6,16.5c0,6.3,3.5,11.8,8.7,14.6l7-12.1V93.7z"/>
		</g>
		<rect x="429.9" y="93.7" fill="#FFFFFF" width="1.9" height="19.1"/>
	</g>
	<g>
		<g>
			<path fill="#868F94" d="M471.7,93.7v19.1l7,12.1c5.2-2.8,8.7-8.3,8.7-14.6C487.4,101.4,480.5,94.2,471.7,93.7z"/>
			<path fill="#868F94" d="M469.8,93.7c-8.7,0.5-15.6,7.7-15.6,16.5c0,6.3,3.5,11.8,8.7,14.6l7-12.1V93.7z"/>
		</g>
		<rect x="469.8" y="93.7" fill="#FFFFFF" width="1.9" height="19.1"/>
	</g>
	<g>
		<g>
			<path fill="#868F94" d="M511.7,93.7v19.1l7,12.1c5.2-2.8,8.7-8.3,8.7-14.6C527.4,101.4,520.4,94.2,511.7,93.7z"/>
			<path fill="#868F94" d="M509.8,93.7c-8.7,0.5-15.6,7.7-15.6,16.5c0,6.3,3.5,11.8,8.7,14.6l7-12.1V93.7z"/>
		</g>
		<rect x="509.8" y="93.7" fill="#FFFFFF" width="1.9" height="19.1"/>
	</g>
	<g>
		<g>
			<path fill="#868F94" d="M551.7,93.7v19.1l7,12.1c5.2-2.8,8.7-8.3,8.7-14.6C567.3,101.4,560.4,94.2,551.7,93.7z"/>
			<path fill="#868F94" d="M549.8,93.7c-8.7,0.5-15.6,7.7-15.6,16.5c0,6.3,3.5,11.8,8.7,14.6l7-12.1V93.7z"/>
		</g>
		<rect x="549.8" y="93.7" fill="#FFFFFF" width="1.9" height="19.1"/>
	</g>
	<g>
		<g>
			<path fill="#868F94" d="M591.6,93.7v19.1l7,12.1c5.2-2.8,8.7-8.3,8.7-14.6C607.3,101.4,600.4,94.2,591.6,93.7z"/>
			<path fill="#868F94" d="M589.7,93.7c-8.7,0.5-15.6,7.7-15.6,16.5c0,6.3,3.5,11.8,8.7,14.6l7-12.1V93.7z"/>
		</g>
		<rect x="589.7" y="93.7" fill="#FFFFFF" width="1.9" height="19.1"/>
	</g>
	<g>
		<g>
			<path fill="#868F94" d="M631.6,93.7v19.1l7,12.1c5.2-2.8,8.7-8.3,8.7-14.6C647.2,101.4,640.3,94.2,631.6,93.7z"/>
			<path fill="#868F94" d="M629.7,93.7c-8.7,0.5-15.6,7.7-15.6,16.5c0,6.3,3.5,11.8,8.7,14.6l7-12.1V93.7z"/>
		</g>
		<rect x="629.7" y="93.7" fill="#FFFFFF" width="1.9" height="19.1"/>
	</g>
</g>
<g>
	<g>
		<path fill="#ADB8BF" d="M31.2,55.2c-8.9,0-16.1,7.2-16.1,16.1c0,6.1,3.4,11.4,8.4,14.1l7.7-13.3l7.7,13.3c5-2.7,8.4-8,8.4-14.1
			C47.3,62.4,40.1,55.2,31.2,55.2z"/>
	</g>
	<g>
		<path fill="#ADB8BF" d="M71.2,55.2c-8.9,0-16.1,7.2-16.1,16.1c0,6.1,3.4,11.4,8.4,14.1l7.7-13.3l7.7,13.3c5-2.7,8.4-8,8.4-14.1
			C87.2,62.4,80.1,55.2,71.2,55.2z"/>
	</g>
	<g>
		<path fill="#ADB8BF" d="M111.2,55.2c-8.9,0-16.1,7.2-16.1,16.1c0,6.1,3.4,11.4,8.4,14.1l7.7-13.3l7.7,13.3c5-2.7,8.4-8,8.4-14.1
			C127.2,62.4,120,55.2,111.2,55.2z"/>
	</g>
	<g>
		<path fill="#ADB8BF" d="M151.2,55.2c-8.9,0-16.1,7.2-16.1,16.1c0,6.1,3.4,11.4,8.4,14.1l7.7-13.3l7.7,13.3c5-2.7,8.4-8,8.4-14.1
			C167.2,62.4,160,55.2,151.2,55.2z"/>
	</g>
	<g>
		<path fill="#ADB8BF" d="M191.2,55.2c-8.9,0-16.1,7.2-16.1,16.1c0,6.1,3.4,11.4,8.4,14.1l7.7-13.3l7.7,13.3c5-2.7,8.4-8,8.4-14.1
			C207.2,62.4,200,55.2,191.2,55.2z"/>
	</g>
	<g>
		<path fill="#ADB8BF" d="M231.2,55.2c-8.9,0-16.1,7.2-16.1,16.1c0,6.1,3.4,11.4,8.4,14.1l7.7-13.3l7.7,13.3c5-2.7,8.4-8,8.4-14.1
			C247.2,62.4,240,55.2,231.2,55.2z"/>
	</g>
	<g>
		<path fill="#ADB8BF" d="M271.2,55.2c-8.9,0-16.1,7.2-16.1,16.1c0,6.1,3.4,11.4,8.4,14.1l7.7-13.3l7.7,13.3c5-2.7,8.4-8,8.4-14.1
			C287.2,62.4,280,55.2,271.2,55.2z"/>
	</g>
	<g>
		<path fill="#ADB8BF" d="M311.1,55.2c-8.9,0-16.1,7.2-16.1,16.1c0,6.1,3.4,11.4,8.4,14.1l7.7-13.3l7.7,13.3c5-2.7,8.4-8,8.4-14.1
			C327.2,62.4,320,55.2,311.1,55.2z"/>
	</g>
	<g>
		<path fill="#ADB8BF" d="M351.1,55.2c-8.9,0-16.1,7.2-16.1,16.1c0,6.1,3.4,11.4,8.4,14.1l7.7-13.3l7.7,13.3c5-2.7,8.4-8,8.4-14.1
			C367.2,62.4,360,55.2,351.1,55.2z"/>
	</g>
	<g>
		<path fill="#ADB8BF" d="M391.1,55.2c-8.9,0-16.1,7.2-16.1,16.1c0,6.1,3.4,11.4,8.4,14.1l7.7-13.3l7.7,13.3c5-2.7,8.4-8,8.4-14.1
			C407.2,62.4,400,55.2,391.1,55.2z"/>
	</g>
	<g>
		<path fill="#ADB8BF" d="M431.1,55.2c-8.9,0-16.1,7.2-16.1,16.1c0,6.1,3.4,11.4,8.4,14.1l7.7-13.3l7.7,13.3c5-2.7,8.4-8,8.4-14.1
			C447.2,62.4,440,55.2,431.1,55.2z"/>
	</g>
	<g>
		<path fill="#ADB8BF" d="M471.1,55.2c-8.9,0-16.1,7.2-16.1,16.1c0,6.1,3.4,11.4,8.4,14.1l7.7-13.3l7.7,13.3c5-2.7,8.4-8,8.4-14.1
			C487.2,62.4,480,55.2,471.1,55.2z"/>
	</g>
	<g>
		<path fill="#ADB8BF" d="M511.1,55.2c-8.9,0-16.1,7.2-16.1,16.1c0,6.1,3.4,11.4,8.4,14.1l7.7-13.3l7.7,13.3c5-2.7,8.4-8,8.4-14.1
			C527.2,62.4,520,55.2,511.1,55.2z"/>
	</g>
	<g>
		<path fill="#ADB8BF" d="M551.1,55.2c-8.9,0-16.1,7.2-16.1,16.1c0,6.1,3.4,11.4,8.4,14.1l7.7-13.3l7.7,13.3c5-2.7,8.4-8,8.4-14.1
			C567.2,62.4,560,55.2,551.1,55.2z"/>
	</g>
	<g>
		<path fill="#ADB8BF" d="M591.1,55.2c-8.9,0-16.1,7.2-16.1,16.1c0,6.1,3.4,11.4,8.4,14.1l7.7-13.3l7.7,13.3c5-2.7,8.4-8,8.4-14.1
			C607.2,62.4,600,55.2,591.1,55.2z"/>
	</g>
	<g>
		<path fill="#ADB8BF" d="M631.1,55.2c-8.9,0-16.1,7.2-16.1,16.1c0,6.1,3.4,11.4,8.4,14.1l7.7-13.3l7.7,13.3c5-2.7,8.4-8,8.4-14.1
			C647.2,62.4,640,55.2,631.1,55.2z"/>
	</g>
</g>
<g>
	<g>
		<path fill="#ADB8BF" d="M31.2,18.2c-8.9,0-16.1,7.2-16.1,16.1c0,6.1,3.4,11.4,8.4,14.1L31.2,35l7.7,13.3c5-2.7,8.4-8,8.4-14.1
			C47.3,25.4,40.1,18.2,31.2,18.2z"/>
	</g>
	<g>
		<path fill="#ADB8BF" d="M71.2,18.2c-8.9,0-16.1,7.2-16.1,16.1c0,6.1,3.4,11.4,8.4,14.1L71.2,35l7.7,13.3c5-2.7,8.4-8,8.4-14.1
			C87.2,25.4,80.1,18.2,71.2,18.2z"/>
	</g>
	<g>
		<path fill="#ADB8BF" d="M111.2,18.2c-8.9,0-16.1,7.2-16.1,16.1c0,6.1,3.4,11.4,8.4,14.1l7.7-13.3l7.7,13.3c5-2.7,8.4-8,8.4-14.1
			C127.2,25.4,120,18.2,111.2,18.2z"/>
	</g>
	<g>
		<path fill="#ADB8BF" d="M151.2,18.2c-8.9,0-16.1,7.2-16.1,16.1c0,6.1,3.4,11.4,8.4,14.1l7.7-13.3l7.7,13.3c5-2.7,8.4-8,8.4-14.1
			C167.2,25.4,160,18.2,151.2,18.2z"/>
	</g>
	<g>
		<path fill="#ADB8BF" d="M191.2,18.2c-8.9,0-16.1,7.2-16.1,16.1c0,6.1,3.4,11.4,8.4,14.1l7.7-13.3l7.7,13.3c5-2.7,8.4-8,8.4-14.1
			C207.2,25.4,200,18.2,191.2,18.2z"/>
	</g>
	<g>
		<path fill="#ADB8BF" d="M231.2,18.2c-8.9,0-16.1,7.2-16.1,16.1c0,6.1,3.4,11.4,8.4,14.1l7.7-13.3l7.7,13.3c5-2.7,8.4-8,8.4-14.1
			C247.2,25.4,240,18.2,231.2,18.2z"/>
	</g>
	<g>
		<path fill="#ADB8BF" d="M271.2,18.2c-8.9,0-16.1,7.2-16.1,16.1c0,6.1,3.4,11.4,8.4,14.1l7.7-13.3l7.7,13.3c5-2.7,8.4-8,8.4-14.1
			C287.2,25.4,280,18.2,271.2,18.2z"/>
	</g>
	<g>
		<path fill="#ADB8BF" d="M311.1,18.2c-8.9,0-16.1,7.2-16.1,16.1c0,6.1,3.4,11.4,8.4,14.1l7.7-13.3l7.7,13.3c5-2.7,8.4-8,8.4-14.1
			C327.2,25.4,320,18.2,311.1,18.2z"/>
	</g>
	<g>
		<path fill="#ADB8BF" d="M351.1,18.2c-8.9,0-16.1,7.2-16.1,16.1c0,6.1,3.4,11.4,8.4,14.1l7.7-13.3l7.7,13.3c5-2.7,8.4-8,8.4-14.1
			C367.2,25.4,360,18.2,351.1,18.2z"/>
	</g>
	<g>
		<path fill="#ADB8BF" d="M391.1,18.2c-8.9,0-16.1,7.2-16.1,16.1c0,6.1,3.4,11.4,8.4,14.1l7.7-13.3l7.7,13.3c5-2.7,8.4-8,8.4-14.1
			C407.2,25.4,400,18.2,391.1,18.2z"/>
	</g>
	<g>
		<path fill="#ADB8BF" d="M431.1,18.2c-8.9,0-16.1,7.2-16.1,16.1c0,6.1,3.4,11.4,8.4,14.1l7.7-13.3l7.7,13.3c5-2.7,8.4-8,8.4-14.1
			C447.2,25.4,440,18.2,431.1,18.2z"/>
	</g>
	<g>
		<path fill="#ADB8BF" d="M471.1,18.2c-8.9,0-16.1,7.2-16.1,16.1c0,6.1,3.4,11.4,8.4,14.1l7.7-13.3l7.7,13.3c5-2.7,8.4-8,8.4-14.1
			C487.2,25.4,480,18.2,471.1,18.2z"/>
	</g>
	<g>
		<path fill="#ADB8BF" d="M511.1,18.2c-8.9,0-16.1,7.2-16.1,16.1c0,6.1,3.4,11.4,8.4,14.1l7.7-13.3l7.7,13.3c5-2.7,8.4-8,8.4-14.1
			C527.2,25.4,520,18.2,511.1,18.2z"/>
	</g>
	<g>
		<path fill="#ADB8BF" d="M551.1,18.2c-8.9,0-16.1,7.2-16.1,16.1c0,6.1,3.4,11.4,8.4,14.1l7.7-13.3l7.7,13.3c5-2.7,8.4-8,8.4-14.1
			C567.2,25.4,560,18.2,551.1,18.2z"/>
	</g>
	<g>
		<path fill="#ADB8BF" d="M591.1,18.2c-8.9,0-16.1,7.2-16.1,16.1c0,6.1,3.4,11.4,8.4,14.1l7.7-13.3l7.7,13.3c5-2.7,8.4-8,8.4-14.1
			C607.2,25.4,600,18.2,591.1,18.2z"/>
	</g>
	<g>
		<path fill="#ADB8BF" d="M631.1,18.2c-8.9,0-16.1,7.2-16.1,16.1c0,6.1,3.4,11.4,8.4,14.1l7.7-13.3l7.7,13.3c5-2.7,8.4-8,8.4-14.1
			C647.2,25.4,640,18.2,631.1,18.2z"/>
	</g>
</g>
<g>
	<polyline fill="none" stroke="#3C3F42" stroke-miterlimit="10" points="32.2,240.4 32.2,245.5 70.6,245.5 70.6,240.4 	"/>
	<g>
		<polygon fill="#3C3F42" points="29.2,242.8 32.2,239.8 35.1,242.8 		"/>
	</g>
	<path fill="#8A9299" d="M58.9,266.4H44.6c-0.9,0-1.7-0.8-1.7-1.7v-25.3c0-0.9,0.8-1.7,1.7-1.7h14.2c0.9,0,1.7,0.8,1.7,1.7v25.3
		C60.6,265.6,59.8,266.4,58.9,266.4z"/>
	<g>
		<path fill="#FFFFFF" d="M48.3,244.8h-2.7v-4.4h0.8v3.6h1.9V244.8z"/>
		<path fill="#FFFFFF" d="M49.9,244.8h-0.8v-4.4h0.8V244.8z"/>
		<path fill="#FFFFFF" d="M54,244.8h-0.7l-1.8-2.8v2.8h-0.8v-4.4h0.7l1.8,2.8v-2.8H54V244.8z"/>
		<path fill="#FFFFFF" d="M54.9,244.8v-4.4h0.8v4.4H54.9z M56.6,242.6l1.6,2.2h-0.9l-1.6-2.2l1.5-2.2h0.9L56.6,242.6z"/>
	</g>
</g>
<g>
	<polyline fill="none" stroke="#3C3F42" stroke-miterlimit="10" points="112.6,240.4 112.6,245.5 151,245.5 151,240.4 	"/>
	<g>
		<polygon fill="#3C3F42" points="109.6,242.8 112.6,239.8 115.6,242.8 		"/>
	</g>
	<path fill="#8A9299" d="M139.3,266.4h-14.2c-0.9,0-1.7-0.8-1.7-1.7v-25.3c0-0.9,0.8-1.7,1.7-1.7h14.2c0.9,0,1.7,0.8,1.7,1.7v25.3
		C141,265.6,140.2,266.4,139.3,266.4z"/>
	<g>
		<path fill="#FFFFFF" d="M128.8,244.8h-2.7v-4.4h0.8v3.6h1.9V244.8z"/>
		<path fill="#FFFFFF" d="M130.3,244.8h-0.8v-4.4h0.8V244.8z"/>
		<path fill="#FFFFFF" d="M134.4,244.8h-0.7l-1.8-2.8v2.8h-0.8v-4.4h0.7l1.8,2.8v-2.8h0.8V244.8z"/>
		<path fill="#FFFFFF" d="M135.3,244.8v-4.4h0.8v4.4H135.3z M137.1,242.6l1.6,2.2h-0.9l-1.6-2.2l1.5-2.2h0.9L137.1,242.6z"/>
	</g>
</g>
<g>
	<polyline fill="none" stroke="#3C3F42" stroke-miterlimit="10" points="192.5,240.4 192.5,245.5 230.9,245.5 230.9,240.4 	"/>
	<g>
		<polygon fill="#3C3F42" points="189.5,242.8 192.5,239.8 195.5,242.8 		"/>
	</g>
	<path fill="#8A9299" d="M219.2,266.4H205c-0.9,0-1.7-0.8-1.7-1.7v-25.3c0-0.9,0.8-1.7,1.7-1.7h14.2c0.9,0,1.7,0.8,1.7,1.7v25.3
		C220.9,265.6,220.2,266.4,219.2,266.4z"/>
	<g>
		<path fill="#FFFFFF" d="M208.7,244.8H206v-4.4h0.8v3.6h1.9V244.8z"/>
		<path fill="#FFFFFF" d="M210.2,244.8h-0.8v-4.4h0.8V244.8z"/>
		<path fill="#FFFFFF" d="M214.3,244.8h-0.7l-1.8-2.8v2.8h-0.8v-4.4h0.7l1.8,2.8v-2.8h0.8V244.8z"/>
		<path fill="#FFFFFF" d="M215.2,244.8v-4.4h0.8v4.4H215.2z M217,242.6l1.6,2.2h-0.9l-1.6-2.2l1.5-2.2h0.9L217,242.6z"/>
	</g>
</g>
<g>
	<polyline fill="none" stroke="#3C3F42" stroke-miterlimit="10" points="272.4,240.4 272.4,245.5 310.8,245.5 310.8,240.4 	"/>
	<g>
		<polygon fill="#3C3F42" points="269.4,242.8 272.4,239.8 275.4,242.8 		"/>
	</g>
	<path fill="#8A9299" d="M299.1,266.4h-14.2c-0.9,0-1.7-0.8-1.7-1.7v-25.3c0-0.9,0.8-1.7,1.7-1.7h14.2c0.9,0,1.7,0.8,1.7,1.7v25.3
		C300.8,265.6,300.1,266.4,299.1,266.4z"/>
	<g>
		<path fill="#FFFFFF" d="M288.6,244.8h-2.7v-4.4h0.8v3.6h1.9V244.8z"/>
		<path fill="#FFFFFF" d="M290.2,244.8h-0.8v-4.4h0.8V244.8z"/>
		<path fill="#FFFFFF" d="M294.3,244.8h-0.7l-1.8-2.8v2.8h-0.8v-4.4h0.7l1.8,2.8v-2.8h0.8V244.8z"/>
		<path fill="#FFFFFF" d="M295.2,244.8v-4.4h0.8v4.4H295.2z M296.9,242.6l1.6,2.2h-0.9l-1.6-2.2l1.5-2.2h0.9L296.9,242.6z"/>
	</g>
</g>
<g>
	<polyline fill="none" stroke="#3C3F42" stroke-miterlimit="10" points="352.4,240.4 352.4,245.5 390.8,245.5 390.8,240.4 	"/>
	<g>
		<polygon fill="#3C3F42" points="349.4,242.8 352.4,239.8 355.4,242.8 		"/>
	</g>
	<path fill="#8A9299" d="M379.1,266.4h-14.2c-0.9,0-1.7-0.8-1.7-1.7v-25.3c0-0.9,0.8-1.7,1.7-1.7h14.2c0.9,0,1.7,0.8,1.7,1.7v25.3
		C380.8,265.6,380,266.4,379.1,266.4z"/>
	<g>
		<path fill="#FFFFFF" d="M368.6,244.8h-2.7v-4.4h0.8v3.6h1.9V244.8z"/>
		<path fill="#FFFFFF" d="M370.1,244.8h-0.8v-4.4h0.8V244.8z"/>
		<path fill="#FFFFFF" d="M374.2,244.8h-0.7l-1.8-2.8v2.8H371v-4.4h0.7l1.8,2.8v-2.8h0.8V244.8z"/>
		<path fill="#FFFFFF" d="M375.1,244.8v-4.4h0.8v4.4H375.1z M376.8,242.6l1.6,2.2h-0.9l-1.6-2.2l1.5-2.2h0.9L376.8,242.6z"/>
	</g>
</g>
<g>
	<polyline fill="none" stroke="#3C3F42" stroke-miterlimit="10" points="432.3,240.4 432.3,245.5 470.7,245.5 470.7,240.4 	"/>
	<g>
		<polygon fill="#3C3F42" points="429.3,242.8 432.3,239.8 435.3,242.8 		"/>
	</g>
	<path fill="#8A9299" d="M459,266.4h-14.2c-0.9,0-1.7-0.8-1.7-1.7v-25.3c0-0.9,0.8-1.7,1.7-1.7H459c0.9,0,1.7,0.8,1.7,1.7v25.3
		C460.7,265.6,459.9,266.4,459,266.4z"/>
	<g>
		<path fill="#FFFFFF" d="M448.5,244.8h-2.7v-4.4h0.8v3.6h1.9V244.8z"/>
		<path fill="#FFFFFF" d="M450,244.8h-0.8v-4.4h0.8V244.8z"/>
		<path fill="#FFFFFF" d="M454.1,244.8h-0.7l-1.8-2.8v2.8h-0.8v-4.4h0.7l1.8,2.8v-2.8h0.8V244.8z"/>
		<path fill="#FFFFFF" d="M455,244.8v-4.4h0.8v4.4H455z M456.8,242.6l1.6,2.2h-0.9l-1.6-2.2l1.5-2.2h0.9L456.8,242.6z"/>
	</g>
</g>
<g>
	<polyline fill="none" stroke="#3C3F42" stroke-miterlimit="10" points="512.2,240.4 512.2,245.5 550.6,245.5 550.6,240.4 	"/>
	<g>
		<polygon fill="#3C3F42" points="509.2,242.8 512.2,239.8 515.2,242.8 		"/>
	</g>
	<path fill="#8A9299" d="M538.9,266.4h-14.2c-0.9,0-1.7-0.8-1.7-1.7v-25.3c0-0.9,0.8-1.7,1.7-1.7h14.2c0.9,0,1.7,0.8,1.7,1.7v25.3
		C540.6,265.6,539.9,266.4,538.9,266.4z"/>
	<g>
		<path fill="#FFFFFF" d="M528.4,244.8h-2.7v-4.4h0.8v3.6h1.9V244.8z"/>
		<path fill="#FFFFFF" d="M529.9,244.8h-0.8v-4.4h0.8V244.8z"/>
		<path fill="#FFFFFF" d="M534,244.8h-0.7l-1.8-2.8v2.8h-0.8v-4.4h0.7l1.8,2.8v-2.8h0.8V244.8z"/>
		<path fill="#FFFFFF" d="M534.9,244.8v-4.4h0.8v4.4H534.9z M536.7,242.6l1.6,2.2h-0.9l-1.6-2.2l1.5-2.2h0.9L536.7,242.6z"/>
	</g>
</g>
<g>
	<polyline fill="none" stroke="#3C3F42" stroke-miterlimit="10" points="592.2,240.4 592.2,245.5 630.6,245.5 630.6,240.4 	"/>
	<g>
		<polygon fill="#3C3F42" points="589.2,242.8 592.2,239.8 595.1,242.8 		"/>
	</g>
	<path fill="#8A9299" d="M618.8,266.4h-14.2c-0.9,0-1.7-0.8-1.7-1.7v-25.3c0-0.9,0.8-1.7,1.7-1.7h14.2c0.9,0,1.7,0.8,1.7,1.7v25.3
		C620.6,265.6,619.8,266.4,618.8,266.4z"/>
	<g>
		<path fill="#FFFFFF" d="M608.3,244.8h-2.7v-4.4h0.8v3.6h1.9V244.8z"/>
		<path fill="#FFFFFF" d="M609.9,244.8h-0.8v-4.4h0.8V244.8z"/>
		<path fill="#FFFFFF" d="M614,244.8h-0.7l-1.8-2.8v2.8h-0.8v-4.4h0.7l1.8,2.8v-2.8h0.8V244.8z"/>
		<path fill="#FFFFFF" d="M614.9,244.8v-4.4h0.8v4.4H614.9z M616.6,242.6l1.6,2.2h-0.9l-1.6-2.2l1.5-2.2h0.9L616.6,242.6z"/>
	</g>
</g>
<g>
	<path fill="#C80000" d="M834.4,365.1h-42.9c-2,0-3.7-1.7-3.7-3.7v-5.3c0-2,1.7-3.7,3.7-3.7h42.9c2,0,3.7,1.7,3.7,3.7v5.3
		C838.1,363.5,836.4,365.1,834.4,365.1z"/>
	<path fill="#FFFFFF" d="M834.4,365.1h-12.1v-12.6h12.1c2,0,3.7,1.7,3.7,3.7v5.3C838.1,363.5,836.4,365.1,834.4,365.1z"/>
	<g>
		<path fill="#FFFFFF" d="M790.5,362.2v-7h1.3v7H790.5z M793.3,358.6l2.6,3.5h-1.5l-2.5-3.5l2.3-3.5h1.4L793.3,358.6z"/>
		<path fill="#FFFFFF" d="M798.9,362.2c-2.1,0-2.9-1.7-2.9-3.6s0.8-3.6,2.9-3.6s2.9,1.7,2.9,3.6C801.8,360.5,801,362.2,798.9,362.2z
			 M798.9,356.3c-1.4,0-1.6,1.2-1.6,2.3s0.3,2.3,1.6,2.3s1.6-1.2,1.6-2.3S800.3,356.3,798.9,356.3z"/>
		<path fill="#FFFFFF" d="M806.4,359.1c0.1,0.1,0.3,0.3,0.3,0.4l1.6,2.6h-1.5l-1.4-2.4c-0.2-0.4-0.3-0.5-0.8-0.5h-0.5v2.9h-1.3v-7
			h2.5c1.4,0,2.4,0.6,2.4,2.1C807.8,358.2,807.3,358.9,806.4,359.1z M805.5,356.4h-1.3v1.8h1.3c0.6,0,1.1-0.2,1.1-0.9
			C806.6,356.5,806.1,356.4,805.5,356.4z"/>
		<path fill="#FFFFFF" d="M815,362.2h-1.4l-0.7-1.8h-2.5l-0.7,1.8h-1.4l2.7-7h1.1L815,362.2z M812.6,359.2l-0.8-2.3l-0.8,2.3H812.6z
			"/>
		<path fill="#FFFFFF" d="M820.1,362.2h-4.3v-7h1.3v5.8h3.1V362.2z"/>
	</g>
	<g>
		<path fill="#C80000" d="M829.2,355.8h-3.8v2.5h3.4v0.6h-3.4v3.3h-0.6v-7h4.4V355.8z"/>
		<path fill="#C80000" d="M835.3,362.2h-0.7l-2-3.1l-2,3.1h-0.7l2.3-3.6l-2.2-3.4h0.7l1.8,2.9l1.8-2.9h0.7l-2.2,3.4L835.3,362.2z"/>
	</g>
</g>
<g>
	<g>
		<path fill="#FFFFFF" d="M711.7,364h-2v-5.8l-2.3,5.8h-1.3l-2.3-5.8v5.8h-2v-10.7h1.9l3,7.6l3-7.6h1.8V364z"/>
		<path fill="#FFFFFF" d="M714.6,355c-0.6,0-1.1-0.5-1.1-1.1s0.5-1.1,1.1-1.1c0.6,0,1.1,0.5,1.1,1.1S715.2,355,714.6,355z
			 M715.5,364h-1.8v-7.6h1.8V364z"/>
		<path fill="#FFFFFF" d="M724.2,364H722l-1.5-2.4L719,364h-2.2l2.7-3.9l-2.6-3.7h2.2l1.4,2.2l1.4-2.2h2.2l-2.6,3.7L724.2,364z"/>
		<path fill="#FFFFFF" d="M728,364.1c-2.4,0-3.4-1.7-3.4-3.9c0-2.2,1-3.9,3.4-3.9c2.4,0,3.4,1.7,3.4,3.9
			C731.4,362.4,730.5,364.1,728,364.1z M728,358c-1.3,0-1.5,1.1-1.5,2.2c0,1.1,0.2,2.1,1.5,2.1c1.3,0,1.5-1.1,1.5-2.1
			C729.5,359.1,729.3,358,728,358z"/>
		<path fill="#FFFFFF" d="M739.2,356.4l-2.9,7.6h-1.5l-2.9-7.6h2l1.6,5l1.7-5H739.2z"/>
		<path fill="#FFFFFF" d="M746.8,364h-1.8v-4.2c0-1-0.2-1.7-1.3-1.7c-0.7,0-1.2,0.6-1.2,1.2v4.7h-1.8v-7.6h1.5l0.1,0.5
			c0.4-0.4,1-0.6,1.6-0.6c2.2,0,3.1,1.4,3.1,3.5V364z"/>
		<path fill="#FFFFFF" d="M749.6,355c-0.6,0-1.1-0.5-1.1-1.1s0.5-1.1,1.1-1.1c0.6,0,1.1,0.5,1.1,1.1S750.2,355,749.6,355z
			 M750.5,364h-1.8v-7.6h1.8V364z"/>
		<path fill="#FFFFFF" d="M754.3,364h-1.8v-10.7h1.8V364z M758.9,364h-2l-2.6-4.2l2.2-3.4h1.9l-2.2,3.4L758.9,364z"/>
	</g>
	<rect x="701.9" y="365.5" fill="#C80000" width="9.9" height="2.1"/>
</g>
<rect x="23.1" y="138" fill="#8A8F96" width="630" height="1.1"/>
<g>
	<path fill="#404447" d="M47.1,128.1H35.7c-2.5,0-4.5,2-4.5,4.5v5.5h10.9h5H52c0,0,0.1,0,0.1-0.1V133
		C52.1,130.3,49.8,128.1,47.1,128.1z"/>
	<path fill="#292C2E" d="M35.7,128.1h-1.4c-2.5,0-4.5,2-4.5,4.5v5.5h1.4v-5.5C31.2,130.1,33.2,128.1,35.7,128.1z"/>
	<path fill="#8A8F96" d="M48.8,128.1h-1.7c2.7,0,5,2.2,5,5v4.9c0,0,0,0.1-0.1,0.1h1.3v-5.5C53.3,130.1,51.3,128.1,48.8,128.1z"/>
</g>
<g>
	<path fill="#404447" d="M87.1,128.1H75.7c-2.5,0-4.5,2-4.5,4.5v5.5h10.9h5H92c0,0,0.1,0,0.1-0.1V133
		C92,130.3,89.8,128.1,87.1,128.1z"/>
	<path fill="#292C2E" d="M75.7,128.1h-1.4c-2.5,0-4.5,2-4.5,4.5v5.5h1.4v-5.5C71.2,130.1,73.2,128.1,75.7,128.1z"/>
	<path fill="#8A8F96" d="M88.8,128.1h-1.7c2.7,0,5,2.2,5,5v4.9c0,0,0,0.1-0.1,0.1h1.3v-5.5C93.3,130.1,91.2,128.1,88.8,128.1z"/>
</g>
<g>
	<path fill="#404447" d="M127.1,128.1h-11.4c-2.5,0-4.5,2-4.5,4.5v5.5h10.9h5h4.9c0,0,0.1,0,0.1-0.1V133
		C132,130.3,129.8,128.1,127.1,128.1z"/>
	<path fill="#292C2E" d="M115.7,128.1h-1.4c-2.5,0-4.5,2-4.5,4.5v5.5h1.4v-5.5C111.2,130.1,113.2,128.1,115.7,128.1z"/>
	<path fill="#8A8F96" d="M128.8,128.1h-1.7c2.7,0,5,2.2,5,5v4.9c0,0,0,0.1-0.1,0.1h1.3v-5.5C133.3,130.1,131.2,128.1,128.8,128.1z"
		/>
</g>
<g>
	<path fill="#404447" d="M167.1,128.1h-11.4c-2.5,0-4.5,2-4.5,4.5v5.5h10.9h5h4.9c0,0,0.1,0,0.1-0.1V133
		C172,130.3,169.8,128.1,167.1,128.1z"/>
	<path fill="#292C2E" d="M155.7,128.1h-1.4c-2.5,0-4.5,2-4.5,4.5v5.5h1.4v-5.5C151.2,130.1,153.2,128.1,155.7,128.1z"/>
	<path fill="#8A8F96" d="M168.8,128.1h-1.7c2.7,0,5,2.2,5,5v4.9c0,0,0,0.1-0.1,0.1h1.3v-5.5C173.2,130.1,171.2,128.1,168.8,128.1z"
		/>
</g>
<g>
	<path fill="#404447" d="M207.1,128.1h-11.4c-2.5,0-4.5,2-4.5,4.5v5.5h10.9h5h4.9c0,0,0.1,0,0.1-0.1V133
		C212,130.3,209.8,128.1,207.1,128.1z"/>
	<path fill="#292C2E" d="M195.7,128.1h-1.4c-2.5,0-4.5,2-4.5,4.5v5.5h1.4v-5.5C191.2,130.1,193.2,128.1,195.7,128.1z"/>
	<path fill="#8A8F96" d="M208.7,128.1h-1.7c2.7,0,5,2.2,5,5v4.9c0,0,0,0.1-0.1,0.1h1.3v-5.5C213.2,130.1,211.2,128.1,208.7,128.1z"
		/>
</g>
<g>
	<path fill="#404447" d="M247,128.1h-11.4c-2.5,0-4.5,2-4.5,4.5v5.5h10.9h5h4.9c0,0,0.1,0,0.1-0.1V133
		C252,130.3,249.8,128.1,247,128.1z"/>
	<path fill="#292C2E" d="M235.6,128.1h-1.4c-2.5,0-4.5,2-4.5,4.5v5.5h1.4v-5.5C231.1,130.1,233.2,128.1,235.6,128.1z"/>
	<path fill="#8A8F96" d="M248.7,128.1H247c2.7,0,5,2.2,5,5v4.9c0,0,0,0.1-0.1,0.1h1.3v-5.5C253.2,130.1,251.2,128.1,248.7,128.1z"/>
</g>
<g>
	<path fill="#404447" d="M287,128.1h-11.4c-2.5,0-4.5,2-4.5,4.5v5.5h10.9h5h4.9c0,0,0.1,0,0.1-0.1V133
		C292,130.3,289.8,128.1,287,128.1z"/>
	<path fill="#292C2E" d="M275.6,128.1h-1.4c-2.5,0-4.5,2-4.5,4.5v5.5h1.4v-5.5C271.1,130.1,273.2,128.1,275.6,128.1z"/>
	<path fill="#8A8F96" d="M288.7,128.1H287c2.7,0,5,2.2,5,5v4.9c0,0,0,0.1-0.1,0.1h1.3v-5.5C293.2,130.1,291.2,128.1,288.7,128.1z"/>
</g>
<g>
	<path fill="#404447" d="M327,128.1h-11.4c-2.5,0-4.5,2-4.5,4.5v5.5h10.9h5h4.9c0,0,0.1,0,0.1-0.1V133
		C332,130.3,329.8,128.1,327,128.1z"/>
	<path fill="#292C2E" d="M315.6,128.1h-1.4c-2.5,0-4.5,2-4.5,4.5v5.5h1.4v-5.5C311.1,130.1,313.1,128.1,315.6,128.1z"/>
	<path fill="#8A8F96" d="M328.7,128.1H327c2.7,0,5,2.2,5,5v4.9c0,0,0,0.1-0.1,0.1h1.3v-5.5C333.2,130.1,331.2,128.1,328.7,128.1z"/>
</g>
<g>
	<path fill="#404447" d="M367,128.1h-11.4c-2.5,0-4.5,2-4.5,4.5v5.5H362h5h4.9c0,0,0.1,0,0.1-0.1V133
		C372,130.3,369.8,128.1,367,128.1z"/>
	<path fill="#292C2E" d="M355.6,128.1h-1.4c-2.5,0-4.5,2-4.5,4.5v5.5h1.4v-5.5C351.1,130.1,353.1,128.1,355.6,128.1z"/>
	<path fill="#8A8F96" d="M368.7,128.1H367c2.7,0,5,2.2,5,5v4.9c0,0,0,0.1-0.1,0.1h1.3v-5.5C373.2,130.1,371.2,128.1,368.7,128.1z"/>
</g>
<g>
	<path fill="#404447" d="M407,128.1h-11.4c-2.5,0-4.5,2-4.5,4.5v5.5H402h5h4.9c0,0,0.1,0,0.1-0.1V133
		C412,130.3,409.8,128.1,407,128.1z"/>
	<path fill="#292C2E" d="M395.6,128.1h-1.4c-2.5,0-4.5,2-4.5,4.5v5.5h1.4v-5.5C391.1,130.1,393.1,128.1,395.6,128.1z"/>
	<path fill="#8A8F96" d="M408.7,128.1H407c2.7,0,5,2.2,5,5v4.9c0,0,0,0.1-0.1,0.1h1.3v-5.5C413.2,130.1,411.2,128.1,408.7,128.1z"/>
</g>
<g>
	<path fill="#404447" d="M447,128.1h-11.4c-2.5,0-4.5,2-4.5,4.5v5.5H442h5h4.9c0,0,0.1,0,0.1-0.1V133
		C452,130.3,449.7,128.1,447,128.1z"/>
	<path fill="#292C2E" d="M435.6,128.1h-1.4c-2.5,0-4.5,2-4.5,4.5v5.5h1.4v-5.5C431.1,130.1,433.1,128.1,435.6,128.1z"/>
	<path fill="#8A8F96" d="M448.7,128.1H447c2.7,0,5,2.2,5,5v4.9c0,0,0,0.1-0.1,0.1h1.3v-5.5C453.2,130.1,451.2,128.1,448.7,128.1z"/>
</g>
<g>
	<path fill="#404447" d="M487,128.1h-11.4c-2.5,0-4.5,2-4.5,4.5v5.5H482h5h4.9c0,0,0.1,0,0.1-0.1V133
		C492,130.3,489.7,128.1,487,128.1z"/>
	<path fill="#292C2E" d="M475.6,128.1h-1.4c-2.5,0-4.5,2-4.5,4.5v5.5h1.4v-5.5C471.1,130.1,473.1,128.1,475.6,128.1z"/>
	<path fill="#8A8F96" d="M488.7,128.1H487c2.7,0,5,2.2,5,5v4.9c0,0,0,0.1-0.1,0.1h1.3v-5.5C493.2,130.1,491.2,128.1,488.7,128.1z"/>
</g>
<g>
	<path fill="#404447" d="M527,128.1h-11.4c-2.5,0-4.5,2-4.5,4.5v5.5H522h5h4.9c0,0,0.1,0,0.1-0.1V133
		C532,130.3,529.7,128.1,527,128.1z"/>
	<path fill="#292C2E" d="M515.6,128.1h-1.4c-2.5,0-4.5,2-4.5,4.5v5.5h1.4v-5.5C511.1,130.1,513.1,128.1,515.6,128.1z"/>
	<path fill="#8A8F96" d="M528.7,128.1H527c2.7,0,5,2.2,5,5v4.9c0,0,0,0.1-0.1,0.1h1.3v-5.5C533.2,130.1,531.2,128.1,528.7,128.1z"/>
</g>
<g>
	<path fill="#404447" d="M567,128.1h-11.4c-2.5,0-4.5,2-4.5,4.5v5.5H562h5h4.9c0,0,0.1,0,0.1-0.1V133
		C572,130.3,569.7,128.1,567,128.1z"/>
	<path fill="#292C2E" d="M555.6,128.1h-1.4c-2.5,0-4.5,2-4.5,4.5v5.5h1.4v-5.5C551.1,130.1,553.1,128.1,555.6,128.1z"/>
	<path fill="#8A8F96" d="M568.7,128.1H567c2.7,0,5,2.2,5,5v4.9c0,0,0,0.1-0.1,0.1h1.3v-5.5C573.2,130.1,571.2,128.1,568.7,128.1z"/>
</g>
<g>
	<path fill="#404447" d="M607,128.1h-11.4c-2.5,0-4.5,2-4.5,4.5v5.5H602h5h4.9c0,0,0.1,0,0.1-0.1V133
		C612,130.3,609.7,128.1,607,128.1z"/>
	<path fill="#292C2E" d="M595.6,128.1h-1.4c-2.5,0-4.5,2-4.5,4.5v5.5h1.4v-5.5C591.1,130.1,593.1,128.1,595.6,128.1z"/>
	<path fill="#8A8F96" d="M608.7,128.1H607c2.7,0,5,2.2,5,5v4.9c0,0,0,0.1-0.1,0.1h1.3v-5.5C613.2,130.1,611.2,128.1,608.7,128.1z"/>
</g>
<g>
	<path fill="#404447" d="M647,128.1h-11.4c-2.5,0-4.5,2-4.5,4.5v5.5H642h5h4.9c0,0,0.1,0,0.1-0.1V133
		C651.9,130.3,649.7,128.1,647,128.1z"/>
	<path fill="#292C2E" d="M635.6,128.1h-1.4c-2.5,0-4.5,2-4.5,4.5v5.5h1.4v-5.5C631.1,130.1,633.1,128.1,635.6,128.1z"/>
	<path fill="#8A8F96" d="M648.7,128.1H647c2.7,0,5,2.2,5,5v4.9c0,0,0,0.1-0.1,0.1h1.3v-5.5C653.2,130.1,651.1,128.1,648.7,128.1z"/>
</g>
</svg>
