<?xml version="1.0" encoding="utf-8"?>
<!-- Generator: Adobe Illustrator 22.1.0, SVG Export Plug-In . SVG Version: 6.00 Build 0)  -->
<svg version="1.1"
	 id="svg8" inkscape:version="0.92.2 5c3e80d, 2017-08-06" sodipodi:docname="MyModule.svg" xmlns:cc="http://creativecommons.org/ns#" xmlns:dc="http://purl.org/dc/elements/1.1/" xmlns:inkscape="http://www.inkscape.org/namespaces/inkscape" xmlns:rdf="http://www.w3.org/1999/02/22-rdf-syntax-ns#" xmlns:sodipodi="http://sodipodi.sourceforge.net/DTD/sodipodi-0.dtd" xmlns:svg="http://www.w3.org/2000/svg"
	 xmlns="http://www.w3.org/2000/svg" xmlns:xlink="http://www.w3.org/1999/xlink" x="0px" y="0px" viewBox="0 0 870 380"
	 enable-background="new 0 0 870 380" xml:space="preserve">
<sodipodi:namedview  bordercolor="#666666" borderopacity="1.0" id="base" inkscape:bbox-nodes="true" inkscape:current-layer="layer1" inkscape:cx="188.48062" inkscape:cy="170.63765" inkscape:document-units="mm" inkscape:pageopacity="0.0" inkscape:pageshadow="2" inkscape:snap-bbox="true" inkscape:snap-bbox-edge-midpoints="true" inkscape:snap-page="true" inkscape:window-height="900" inkscape:window-maximized="0" inkscape:window-width="1600" inkscape:window-x="0" inkscape:window-y="0" inkscape:zoom="1.4" pagecolor="#ffffff" showgrid="false" units="px">
	</sodipodi:namedview>
<g id="layer1" transform="translate(0,-196.45832)" inkscape:groupmode="layer" inkscape:label="Layer 1">
	<path id="rect817" inkscape:connector-curvature="0" fill="#515559" d="M0,196.5h870v380H0V196.5z"/>
</g>
<g>
	<g>
		<path d="M36.7,25.6h-1.5v-6.5l-1.1,0.7l-0.7-1.1l2.2-1.4h1.1V25.6z"/>
	</g>
	<g>
		<path d="M77.9,25.6h-5.3v-1c0.2-3,3.6-3.7,3.6-5.1c0-0.6-0.6-1-1.2-1s-1.1,0.5-1.3,1l-1.3-0.7c0.6-1.1,1.3-1.7,2.6-1.7
			c1.5,0,2.7,0.9,2.7,2.4c0,2.3-3,2.6-3.5,4.6h3.6v1.5H77.9z"/>
	</g>
	<g>
		<path d="M115.2,25.7c-1.4,0-2.3-0.6-2.7-1.9l1.4-0.6c0.2,0.6,0.7,1,1.3,1c0.7,0,1.3-0.5,1.3-1.2c0-1-0.8-1.2-1.7-1.2v-1.2
			c0.7,0,1.5-0.2,1.5-1.1c0-0.6-0.6-1-1.2-1s-1,0.4-1.2,0.9l-1.3-0.6c0.5-1.2,1.3-1.8,2.6-1.8c1.4,0,2.6,1,2.6,2.4
			c0,0.7-0.3,1.3-0.8,1.6c0.6,0.4,1,1.1,1,1.9C117.9,24.7,116.7,25.7,115.2,25.7z"/>
	</g>
	<g>
		<path d="M158.2,23.8h-0.6v1.9h-1.4v-1.9h-3.7v-1.2l3.2-5.3h1.6l-3.1,5.1h2V20l1.4,0.2v2.2h0.6V23.8z"/>
	</g>
	<g>
		<path d="M195.4,25.7c-1.4,0-2.2-0.8-2.7-2.1l1.4-0.4c0.2,0.6,0.6,1.1,1.3,1.1c0.9,0,1.4-0.7,1.4-1.5s-0.4-1.5-1.4-1.5
			c-0.5,0-0.8,0.2-1.2,0.5h-1.3v-4.5h4.7v1.4h-3.3v1.5c0.4-0.3,0.8-0.3,1.2-0.3c1.8,0,2.7,1.2,2.7,2.8
			C198.2,24.5,197.2,25.7,195.4,25.7z"/>
	</g>
	<g>
		<path d="M235.6,25.7c-1.8,0-2.8-1.5-2.8-3.1c0-2.1,0.9-4.1,2.6-5.3h1.8c-1.2,0.9-2.2,1.9-2.7,3.4c0.3-0.3,0.7-0.5,1.2-0.5
			c1.6,0,2.6,1.2,2.6,2.8C238.3,24.6,237.3,25.7,235.6,25.7z M235.5,21.6c-0.7,0-1.2,0.6-1.2,1.4c0,0.7,0.5,1.3,1.2,1.3
			s1.3-0.6,1.3-1.3C236.8,22.2,236.3,21.6,235.5,21.6z"/>
	</g>
	<g>
		<path d="M278.3,18.5c-1.6,2.1-2.4,4.2-2.3,7.1h-1.6c0-2.6,0.8-5.1,2.3-7h-2.4v0.7H273v-2.1h5.3V18.5z"/>
	</g>
	<g>
		<path d="M315.7,25.8c-1.6,0-2.8-1.1-2.8-2.7c0-0.8,0.5-1.6,1.2-2c-0.6-0.3-0.9-1-0.9-1.6c0-1.4,1.2-2.3,2.5-2.3s2.5,0.9,2.5,2.3
			c0,0.6-0.3,1.3-0.9,1.6c0.8,0.5,1.2,1.2,1.2,2C318.6,24.7,317.4,25.8,315.7,25.8z M315.7,21.7c-0.7,0-1.3,0.6-1.3,1.3
			s0.6,1.3,1.3,1.3c0.7,0,1.3-0.5,1.3-1.3C317.1,22.3,316.5,21.7,315.7,21.7z M315.7,18.5c-0.6,0-1,0.4-1,1s0.5,1,1,1
			c0.6,0,1-0.4,1-1C316.8,18.9,316.3,18.5,315.7,18.5z"/>
	</g>
	<g>
		<path d="M356,25.6h-1.9c1.1-0.9,2.2-1.9,2.7-3.3c-0.3,0.3-0.7,0.4-1.1,0.4c-1.6,0-2.6-1.2-2.6-2.7c0-1.6,1.1-2.9,2.7-2.9
			c1.8,0,2.8,1.5,2.8,3.1C358.5,22.4,357.7,24.3,356,25.6z M355.7,18.6c-0.7,0-1.2,0.6-1.2,1.3s0.5,1.3,1.3,1.3s1.2-0.6,1.2-1.3
			C356.9,19.2,356.4,18.6,355.7,18.6z"/>
	</g>
	<g>
		<path d="M393.5,25.6H392v-6.5l-1.1,0.7l-0.7-1.1l2.2-1.4h1.1V25.6z"/>
		<path d="M398.5,25.7c-2.3,0-3.1-2.4-3.1-4.3c0-1.9,0.8-4.3,3.1-4.3c2.3,0,3,2.3,3,4.3S400.7,25.7,398.5,25.7z M398.5,18.6
			c-1.4,0-1.5,1.9-1.5,2.8c0,1,0.2,2.8,1.5,2.8c1.4,0,1.5-1.9,1.5-2.8S399.8,18.6,398.5,18.6z"/>
	</g>
	<g>
		<path d="M435.2,25.6h-1.5v-6.5l-1.1,0.7l-0.7-1.1l2.2-1.4h1.1V25.6z"/>
		<path d="M440,25.6h-1.5v-6.5l-1.1,0.7l-0.7-1.1l2.2-1.4h1.1V25.6z"/>
	</g>
	<g>
		<path d="M474.1,25.6h-1.5v-6.5l-1.1,0.7l-0.7-1.1l2.2-1.4h1.1V25.6z"/>
		<path d="M481.4,25.6h-5.3v-1c0.2-3,3.6-3.7,3.6-5.1c0-0.6-0.6-1-1.2-1s-1.1,0.5-1.3,1l-1.3-0.7c0.6-1.1,1.3-1.7,2.6-1.7
			c1.5,0,2.7,0.9,2.7,2.4c0,2.3-3,2.6-3.5,4.6h3.6L481.4,25.6L481.4,25.6z"/>
	</g>
	<g>
		<path d="M514.2,25.6h-1.5v-6.5l-1.1,0.7l-0.7-1.1l2.2-1.4h1.1V25.6z"/>
		<path d="M518.7,25.7c-1.4,0-2.3-0.6-2.7-1.9l1.4-0.6c0.2,0.6,0.7,1,1.3,1c0.7,0,1.3-0.5,1.3-1.2c0-1-0.8-1.2-1.7-1.2v-1.2
			c0.7,0,1.5-0.2,1.5-1.1c0-0.6-0.6-1-1.2-1c-0.6,0-1,0.4-1.2,0.9l-1.3-0.6c0.5-1.2,1.3-1.8,2.6-1.8c1.4,0,2.6,1,2.6,2.4
			c0,0.7-0.3,1.3-0.8,1.6c0.6,0.4,1,1.1,1,1.9C521.4,24.7,520.2,25.7,518.7,25.7z"/>
	</g>
	<g>
		<path d="M554.2,25.6h-1.5v-6.5l-1.1,0.7l-0.7-1.1l2.2-1.4h1.1V25.6z"/>
		<path d="M561.6,23.8H561v1.9h-1.4v-1.9h-3.7v-1.2l3.2-5.3h1.6l-3.1,5.1h2V20l1.4,0.2v2.2h0.6V23.8z"/>
	</g>
	<g>
		<path d="M594.4,25.6h-1.5v-6.5l-1.1,0.7l-0.7-1.1l2.2-1.4h1.1V25.6z"/>
		<path d="M598.9,25.7c-1.4,0-2.2-0.8-2.7-2.1l1.4-0.4c0.2,0.6,0.6,1.1,1.3,1.1c0.9,0,1.4-0.7,1.4-1.5s-0.4-1.5-1.4-1.5
			c-0.5,0-0.8,0.2-1.2,0.5h-1.3v-4.5h4.7v1.4h-3.3v1.5c0.4-0.3,0.8-0.3,1.2-0.3c1.8,0,2.7,1.2,2.7,2.8
			C601.7,24.5,600.7,25.7,598.9,25.7z"/>
	</g>
	<g>
		<path d="M634.4,25.6H633v-6.5l-1.1,0.7l-0.7-1.1l2.2-1.4h1.1L634.4,25.6L634.4,25.6z"/>
		<path d="M639,25.7c-1.8,0-2.8-1.5-2.8-3.1c0-2.1,0.9-4.1,2.6-5.3h1.8c-1.2,0.9-2.2,1.9-2.7,3.4c0.3-0.3,0.7-0.5,1.2-0.5
			c1.6,0,2.6,1.2,2.6,2.8C641.8,24.6,640.7,25.7,639,25.7z M639,21.6c-0.7,0-1.2,0.6-1.2,1.4c0,0.7,0.5,1.3,1.2,1.3s1.3-0.6,1.3-1.3
			C640.3,22.2,639.8,21.6,639,21.6z"/>
	</g>
</g>
<path fill="#7D848A" d="M670,103.4H20.3c-5.2,0-9.3-4.2-9.3-9.3V40.4c0-5.2,4.2-9.3,9.3-9.3H670c5.2,0,9.3,4.2,9.3,9.3v53.7
	C679.3,99.2,675.2,103.4,670,103.4z"/>
<path fill="#414447" d="M670,364.3H20.3c-5.2,0-9.3-4.2-9.3-9.3v-98.4c0-5.2,4.2-9.3,9.3-9.3H670c5.2,0,9.3,4.2,9.3,9.3v98.4
	C679.3,360.1,675.2,364.3,670,364.3z"/>
<path fill="#282A2B" d="M670,285.2H20.3c-5.2,0-9.3-4.2-9.3-9.3v-30.9c0-5.2,4.2-9.3,9.3-9.3H670c5.2,0,9.3,4.2,9.3,9.3v30.9
	C679.3,281,675.2,285.2,670,285.2z"/>
<path fill="#686E73" d="M670,282.9H20.3c-5.2,0-9.3-4.2-9.3-9.3V115.8c0-5.2,4.2-9.3,9.3-9.3H670c5.2,0,9.3,4.2,9.3,9.3v157.8
	C679.3,278.7,675.2,282.9,670,282.9z"/>
<path fill="#686E73" d="M842.8,286.2H695.6c-5.2,0-9.3-4.2-9.3-9.3V123.7c0-5.2,4.2-9.3,9.3-9.3h147.2c5.2,0,9.3,4.2,9.3,9.3v153.1
	C852.1,282,847.9,286.2,842.8,286.2z"/>
<path fill="#7C94AD" d="M852.1,130.6H686.2v-6.9c0-5.2,4.2-9.3,9.3-9.3h147.2c5.2,0,9.3,4.2,9.3,9.3V130.6z"/>
<path fill="#7D848A" d="M842.8,111.1H695.6c-5.2,0-9.3-4.2-9.3-9.3v-85c0-5.2,4.2-9.3,9.3-9.3h147.2c5.2,0,9.3,4.2,9.3,9.3v85
	C852.1,106.9,847.9,111.1,842.8,111.1z"/>
<path fill="#7C9484" d="M852.1,20.7H686.2v-3.9c0-5.2,4.2-9.3,9.3-9.3h147.2c5.2,0,9.3,4.2,9.3,9.3V20.7z"/>
<g>
	<path fill="#B2BBC4" d="M654.5,125.3H653v2.8h-1.3v-7h2.7c1.4,0,2.4,0.6,2.4,2.1C656.8,124.7,655.9,125.3,654.5,125.3z
		 M654.4,122.3H653v1.8h1.4c0.6,0,1.1-0.1,1.1-0.9C655.5,122.5,655,122.3,654.4,122.3z"/>
	<path fill="#B2BBC4" d="M662.8,128.1h-1.4l-0.7-1.8h-2.5l-0.7,1.8h-1.4l2.7-7h1.1L662.8,128.1z M660.4,125.2l-0.8-2.2l-0.8,2.2
		H660.4z"/>
	<path fill="#B2BBC4" d="M668.6,128.1h-1l-2.8-4.4v4.4h-1.3v-7h1l2.8,4.4v-4.4h1.2V128.1z"/>
</g>
<g>
	<path fill="#B2BBC4" d="M658,196.5l-2.4,7h-1.2l-2.3-7h1.3l1.6,5.1l1.6-5.1H658z"/>
	<path fill="#B2BBC4" d="M661.2,203.5c-2.1,0-2.9-1.7-2.9-3.6s0.8-3.6,2.9-3.6c2.1,0,2.9,1.7,2.9,3.6
		C664.1,201.8,663.3,203.5,661.2,203.5z M661.2,197.6c-1.4,0-1.6,1.2-1.6,2.3s0.3,2.3,1.6,2.3s1.6-1.2,1.6-2.3
		S662.6,197.6,661.2,197.6z"/>
	<path fill="#B2BBC4" d="M669.6,203.4h-4.3v-7h1.2v5.8h3.1V203.4z"/>
</g>
<g>
	<path fill="#B2BBC4" d="M656,276.6h-1.3v-3.7l-1.5,3.7h-0.8l-1.5-3.7v3.7h-1.3v-7h1.2l1.9,5l2-5h1.2V276.6z"/>
	<path fill="#B2BBC4" d="M662.5,273.7c0,1.8-0.7,3-2.6,3c-1.9,0-2.6-1.2-2.6-3v-4.1h1.2v4c0,1,0.2,1.8,1.4,1.8
		c1.2,0,1.4-0.8,1.4-1.8v-4h1.2V273.7z"/>
	<path fill="#B2BBC4" d="M668.7,270.9h-2v5.7h-1.3v-5.7h-2v-1.2h5.3V270.9z"/>
	<path fill="#B2BBC4" d="M674.4,276.6h-4.7v-7h4.7v1.2h-3.5v1.6h3v1.2h-3v1.8h3.5V276.6z"/>
</g>
<g>
	<path fill="#B2BBC4" d="M661,301.5h-1.3v-7h1.3V301.5z"/>
	<path fill="#B2BBC4" d="M667.5,301.5h-1l-2.8-4.4v4.4h-1.3v-7h1l2.8,4.4v-4.4h1.2V301.5z"/>
</g>
<g>
	<path fill="#B2BBC4" d="M654.3,321.4c-0.6,0.7-1,1-2,1c-1.7,0-2.4-1.4-2.4-2.9c0-1.5,0.7-2.9,2.4-2.9c0.9,0,1.4,0.3,1.9,0.9
		l-0.7,0.7c-0.3-0.4-0.7-0.7-1.2-0.7c-1.1,0-1.4,1-1.4,1.9c0,0.9,0.3,1.9,1.4,1.9c0.6,0,0.9-0.3,1.2-0.7L654.3,321.4z"/>
	<path fill="#B2BBC4" d="M659.3,316.7l-1.9,5.6h-1l-1.9-5.6h1.1l1.3,4.1l1.3-4.1H659.3z"/>
	<path fill="#B2BBC4" d="M664.5,320.1h-1.2v2.2h-1v-5.6h2.2c1.1,0,1.9,0.5,1.9,1.7C666.4,319.6,665.6,320.1,664.5,320.1z
		 M664.4,317.7h-1.1v1.4h1.1c0.5,0,0.9-0.1,0.9-0.7C665.3,317.8,664.9,317.7,664.4,317.7z"/>
	<path fill="#B2BBC4" d="M671.2,322.3h-1.1l-0.5-1.5h-2l-0.5,1.5H666l2.2-5.6h0.9L671.2,322.3z M669.2,320l-0.7-1.8l-0.7,1.8H669.2z
		"/>
	<path fill="#B2BBC4" d="M675.8,322.3H675l-2.2-3.5v3.5h-1v-5.6h0.8l2.2,3.5v-3.5h1V322.3z"/>
	<path fill="#B2BBC4" d="M662.1,329.6H660V324h2c1.1,0,1.9,0.5,1.9,1.6c0,0.4-0.2,0.8-0.5,1c0.5,0.3,0.7,0.8,0.7,1.3
		C664.1,329.1,663.2,329.6,662.1,329.6z M662,324.9h-1v1.4h1c0.5,0,0.9-0.1,0.9-0.7S662.5,324.9,662,324.9z M662.1,327.2H661v1.4
		h1.1c0.5,0,1-0.1,1-0.7C663.1,327.3,662.6,327.2,662.1,327.2z"/>
	<path fill="#B2BBC4" d="M666,329.6h-1V324h1V329.6z"/>
</g>
<g>
	<path fill="#B2BBC4" d="M654.4,347.1c-0.6,0.7-1,1-2,1c-1.7,0-2.4-1.4-2.4-2.9c0-1.5,0.7-2.9,2.4-2.9c0.9,0,1.4,0.3,1.9,0.9
		l-0.7,0.7c-0.3-0.4-0.7-0.7-1.2-0.7c-1.1,0-1.4,1-1.4,1.9c0,0.9,0.3,1.9,1.4,1.9c0.6,0,0.9-0.3,1.2-0.7L654.4,347.1z"/>
	<path fill="#B2BBC4" d="M659.4,342.4l-1.9,5.6h-1l-1.9-5.6h1.1l1.3,4.1l1.3-4.1H659.4z"/>
	<path fill="#B2BBC4" d="M666.7,342.4l-1.9,5.6h-1l-1.9-5.6h1.1l1.3,4.1l1.3-4.1H666.7z"/>
	<path fill="#B2BBC4" d="M669.3,348.1c-1.7,0-2.3-1.4-2.3-2.9c0-1.5,0.6-2.9,2.3-2.9s2.3,1.4,2.3,2.9
		C671.6,346.7,671,348.1,669.3,348.1z M669.3,343.3c-1.1,0-1.3,1-1.3,1.9s0.2,1.9,1.3,1.9s1.3-1,1.3-1.9S670.4,343.3,669.3,343.3z"
		/>
	<path fill="#B2BBC4" d="M675.9,348h-3.5v-5.6h1v4.6h2.5V348z"/>
	<path fill="#B2BBC4" d="M661.4,352.9c0,1.4-0.6,2.4-2.1,2.4c-1.5,0-2.1-1-2.1-2.4v-3.3h1v3.2c0,0.8,0.2,1.5,1.1,1.5
		c1,0,1.1-0.7,1.1-1.5v-3.2h1V352.9z"/>
	<path fill="#B2BBC4" d="M666.6,355.2h-0.8l-2.2-3.5v3.5h-1v-5.6h0.8l2.2,3.5v-3.5h1V355.2z"/>
	<path fill="#B2BBC4" d="M668.7,355.2h-1v-5.6h1V355.2z"/>
</g>
<path d="M839.7,348.4h-24.1c-2,0-3.7-1.7-3.7-3.7v-24.4c0-2,1.7-3.7,3.7-3.7h24.1c2,0,3.7,1.7,3.7,3.7v24.4
	C843.3,346.8,841.7,348.4,839.7,348.4z"/>
<path d="M805.7,348.4h-24.1c-2,0-3.7-1.7-3.7-3.7v-24.4c0-2,1.7-3.7,3.7-3.7h24.1c2,0,3.7,1.7,3.7,3.7v24.4
	C809.3,346.8,807.7,348.4,805.7,348.4z"/>
<path d="M838.7,57.4h-24.1c-2,0-3.7-1.7-3.7-3.7V29.3c0-2,1.7-3.7,3.7-3.7h24.1c2,0,3.7,1.7,3.7,3.7v24.4
	C842.4,55.7,840.7,57.4,838.7,57.4z"/>
<path d="M804.7,57.4h-24.1c-2,0-3.7-1.7-3.7-3.7V29.3c0-2,1.7-3.7,3.7-3.7h24.1c2,0,3.7,1.7,3.7,3.7v24.4
	C808.4,55.7,806.7,57.4,804.7,57.4z"/>
<path d="M838.7,107.7h-24.1c-2,0-3.7-1.7-3.7-3.7V79.7c0-2,1.7-3.7,3.7-3.7h24.1c2,0,3.7,1.7,3.7,3.7V104
	C842.4,106.1,840.7,107.7,838.7,107.7z"/>
<path d="M804.7,107.7h-24.1c-2,0-3.7-1.7-3.7-3.7V79.7c0-2,1.7-3.7,3.7-3.7h24.1c2,0,3.7,1.7,3.7,3.7V104
	C808.4,106.1,806.7,107.7,804.7,107.7z"/>
<path fill="#3C3F42" d="M676,52.8h-5.1c-0.9,0-1.7-0.8-1.7-1.7v-6.8c0-0.9,0.8-1.7,1.7-1.7h5.1c0.9,0,1.7,0.8,1.7,1.7v6.8
	C677.7,52.1,676.9,52.8,676,52.8z"/>
<path fill="#3C3F42" d="M709.5,128.1h-5.1c-0.9,0-1.7-0.8-1.7-1.7v-6.8c0-0.9,0.8-1.7,1.7-1.7h5.1c0.9,0,1.7,0.8,1.7,1.7v6.8
	C711.2,127.3,710.4,128.1,709.5,128.1z"/>
<path fill="#3C3F42" d="M676,91.8h-5.1c-0.9,0-1.7-0.8-1.7-1.7v-6.8c0-0.9,0.8-1.7,1.7-1.7h5.1c0.9,0,1.7,0.8,1.7,1.7v6.8
	C677.7,91.1,676.9,91.8,676,91.8z"/>
<path fill="#3C3F42" d="M796.2,314.5h-5.1c-0.9,0-1.7-0.8-1.7-1.7v-6.8c0-0.9,0.8-1.7,1.7-1.7h5.1c0.9,0,1.7,0.8,1.7,1.7v6.8
	C797.9,313.7,797.2,314.5,796.2,314.5z"/>
<path fill="#3C3F42" d="M830.2,314.5h-5.1c-0.9,0-1.7-0.8-1.7-1.7V306c0-0.9,0.8-1.7,1.7-1.7h5.1c0.9,0,1.7,0.8,1.7,1.7v6.8
	C831.9,313.7,831.2,314.5,830.2,314.5z"/>
<g>
	<path fill="#B2BBC4" d="M655.5,51.1h-1.4l-0.7-1.8H651l-0.7,1.8H649l2.7-7h1.1L655.5,51.1z M653.1,48.2l-0.8-2.2l-0.8,2.2H653.1z"
		/>
	<path fill="#B2BBC4" d="M661,48.2c0,1.8-0.7,3-2.6,3c-1.9,0-2.6-1.2-2.6-3v-4.1h1.2v4c0,1,0.2,1.8,1.4,1.8c1.2,0,1.4-0.8,1.4-1.8
		v-4h1.2V48.2z"/>
	<path fill="#B2BBC4" d="M668,51.1h-1.5l-1.6-2.5l-1.6,2.5h-1.5l2.4-3.6l-2.2-3.4h1.5l1.5,2.3l1.5-2.3h1.5l-2.2,3.4L668,51.1z"/>
	<path fill="#B2BBC4" d="M674.1,51.1h-1.2v-5.4l-0.9,0.6l-0.6-0.9l1.8-1.2h0.9V51.1z"/>
</g>
<g>
	<path fill="#B2BBC4" d="M798,300.5h-1.3v-3.7l-1.5,3.7h-0.8l-1.5-3.7v3.7h-1.3v-7h1.2l1.9,5l2-5h1.2V300.5z"/>
	<path fill="#B2BBC4" d="M800.6,300.5h-1.3v-7h1.3V300.5z"/>
	<path fill="#B2BBC4" d="M807.6,300.5h-1.5l-1.6-2.5l-1.6,2.5h-1.5l2.4-3.6l-2.2-3.4h1.5l1.5,2.3l1.5-2.3h1.5l-2.2,3.4L807.6,300.5z
		"/>
	<path fill="#B2BBC4" d="M814,300.6c-2.1,0-2.9-1.7-2.9-3.6s0.8-3.6,2.9-3.6c2.1,0,2.9,1.7,2.9,3.6
		C816.9,298.9,816.1,300.6,814,300.6z M814,294.7c-1.4,0-1.6,1.2-1.6,2.3s0.3,2.3,1.6,2.3s1.6-1.2,1.6-2.3S815.4,294.7,814,294.7z"
		/>
	<path fill="#B2BBC4" d="M823.2,297.6c0,1.8-0.7,3-2.6,3c-1.9,0-2.6-1.2-2.6-3v-4.1h1.2v4c0,1,0.2,1.8,1.4,1.8
		c1.2,0,1.4-0.8,1.4-1.8v-4h1.2V297.6z"/>
	<path fill="#B2BBC4" d="M829.4,294.8h-2v5.7h-1.3v-5.7h-2v-1.2h5.3V294.8z"/>
</g>
<g>
	<path fill="#FFFFFF" d="M809.2,126.2h-1.3v-3.7l-1.5,3.7h-0.8l-1.5-3.7v3.7h-1.3v-7h1.2l1.9,5l2-5h1.2V126.2z"/>
	<path fill="#FFFFFF" d="M811.8,126.2h-1.3v-7h1.3V126.2z"/>
	<path fill="#FFFFFF" d="M818.9,126.2h-1.5l-1.6-2.5l-1.6,2.5h-1.5l2.4-3.6l-2.2-3.4h1.5l1.5,2.3l1.5-2.3h1.5l-2.2,3.4L818.9,126.2z
		"/>
</g>
<g>
	<path fill="#B3D6FA" d="M723.3,126.2h-1.4l-0.7-1.8h-2.5l-0.7,1.8h-1.4l2.7-7h1.1L723.3,126.2z M720.8,123.2L720,121l-0.8,2.2
		H720.8z"/>
	<path fill="#B3D6FA" d="M728.8,123.3c0,1.8-0.7,3-2.6,3c-1.9,0-2.6-1.2-2.6-3v-4.1h1.2v4c0,1,0.2,1.8,1.4,1.8
		c1.2,0,1.4-0.8,1.4-1.8v-4h1.2V123.3z"/>
	<path fill="#B3D6FA" d="M735.7,126.2h-1.5l-1.6-2.5l-1.6,2.5h-1.5l2.4-3.6l-2.2-3.4h1.5l1.5,2.3l1.5-2.3h1.5l-2.2,3.4L735.7,126.2z
		"/>
</g>
<g>
	<path fill="#B2BBC4" d="M796,312.5h-4.3v-7h1.2v5.8h3.1V312.5z"/>
</g>
<g>
	<path fill="#B2BBC4" d="M707.7,126.2h-1.2v-5.4l-0.9,0.6l-0.6-0.9l1.8-1.2h0.9V126.2z"/>
</g>
<path fill="#3C3F42" d="M748.3,128.1h-5.1c-0.9,0-1.7-0.8-1.7-1.7v-6.8c0-0.9,0.8-1.7,1.7-1.7h5.1c0.9,0,1.7,0.8,1.7,1.7v6.8
	C750.1,127.3,749.3,128.1,748.3,128.1z"/>
<path fill="#3C3F42" d="M794.1,128.1h-5.1c-0.9,0-1.7-0.8-1.7-1.7v-6.8c0-0.9,0.8-1.7,1.7-1.7h5.1c0.9,0,1.7,0.8,1.7,1.7v6.8
	C795.8,127.3,795,128.1,794.1,128.1z"/>
<path fill="#3C3F42" d="M830.9,128.1h-5.1c-0.9,0-1.7-0.8-1.7-1.7v-6.8c0-0.9,0.8-1.7,1.7-1.7h5.1c0.9,0,1.7,0.8,1.7,1.7v6.8
	C832.6,127.3,831.8,128.1,830.9,128.1z"/>
<g>
	<path fill="#B2BBC4" d="M748.2,126.2h-4.4v-0.8c0.1-2.5,3-3.1,3-4.2c0-0.5-0.5-0.8-1-0.8c-0.5,0-0.9,0.4-1.1,0.8l-1.1-0.6
		c0.5-0.9,1.1-1.4,2.1-1.4c1.2,0,2.2,0.7,2.2,2c0,1.9-2.5,2.2-2.9,3.8h3V126.2z"/>
</g>
<g>
	<path fill="#B2BBC4" d="M828.7,309.5c0.1,0.1,0.2,0.3,0.3,0.4l1.6,2.6h-1.5l-1.4-2.4c-0.2-0.4-0.3-0.5-0.8-0.5h-0.5v2.9h-1.3v-7
		h2.5c1.3,0,2.4,0.6,2.4,2.1C830.2,308.6,829.6,309.3,828.7,309.5z M827.8,306.8h-1.3v1.8h1.3c0.6,0,1.1-0.2,1.1-0.9
		C828.9,306.9,828.4,306.8,827.8,306.8z"/>
</g>
<path fill="#3C3F42" d="M713.9,314.5h-5.1c-0.9,0-1.7-0.8-1.7-1.7v-6.8c0-0.9,0.8-1.7,1.7-1.7h5.1c0.9,0,1.7,0.8,1.7,1.7v6.8
	C715.6,313.7,714.9,314.5,713.9,314.5z"/>
<path fill="#3C3F42" d="M747.9,314.5h-5.1c-0.9,0-1.7-0.8-1.7-1.7V306c0-0.9,0.8-1.7,1.7-1.7h5.1c0.9,0,1.7,0.8,1.7,1.7v6.8
	C749.6,313.7,748.9,314.5,747.9,314.5z"/>
<g>
	<path fill="#B2BBC4" d="M720.5,300.5h-1.3v-3.7l-1.5,3.7H717l-1.5-3.7v3.7h-1.3v-7h1.2l1.9,5l2-5h1.2V300.5z"/>
	<path fill="#B2BBC4" d="M723.2,300.5h-1.3v-7h1.3V300.5z"/>
	<path fill="#B2BBC4" d="M730.2,300.5h-1.5l-1.6-2.5l-1.6,2.5h-1.5l2.4-3.6l-2.2-3.4h1.5l1.5,2.3l1.5-2.3h1.5l-2.2,3.4L730.2,300.5z
		"/>
	<path fill="#B2BBC4" d="M735.3,300.5h-1.3v-7h1.3V300.5z"/>
	<path fill="#B2BBC4" d="M741.8,300.5h-1l-2.8-4.4v4.4h-1.3v-7h1l2.8,4.4v-4.4h1.2V300.5z"/>
</g>
<g>
	<path fill="#B2BBC4" d="M713.7,312.5h-4.3v-7h1.2v5.8h3.1V312.5z"/>
</g>
<g>
	<path fill="#B2BBC4" d="M746.4,309.5c0.1,0.1,0.2,0.3,0.3,0.4l1.6,2.6H747l-1.4-2.4c-0.2-0.4-0.3-0.5-0.8-0.5h-0.5v2.9H743v-7h2.5
		c1.3,0,2.4,0.6,2.4,2.1C747.9,308.6,747.3,309.3,746.4,309.5z M745.5,306.8h-1.3v1.8h1.3c0.6,0,1.1-0.2,1.1-0.9
		C746.6,306.9,746.1,306.8,745.5,306.8z"/>
</g>
<g>
	<path fill="#B2BBC4" d="M655.5,90.1h-1.4l-0.7-1.8H651l-0.7,1.8H649l2.7-7h1.1L655.5,90.1z M653.1,87.2l-0.8-2.2l-0.8,2.2H653.1z"
		/>
	<path fill="#B2BBC4" d="M661,87.2c0,1.8-0.7,3-2.6,3c-1.9,0-2.6-1.2-2.6-3v-4.1h1.2v4c0,1,0.2,1.8,1.4,1.8c1.2,0,1.4-0.8,1.4-1.8
		v-4h1.2V87.2z"/>
	<path fill="#B2BBC4" d="M668,90.1h-1.5l-1.6-2.5l-1.6,2.5h-1.5l2.4-3.6l-2.2-3.4h1.5l1.5,2.3l1.5-2.3h1.5l-2.2,3.4L668,90.1z"/>
	<path fill="#B2BBC4" d="M676.1,90.1h-4.4v-0.8c0.1-2.5,3-3.1,3-4.2c0-0.5-0.5-0.8-1-0.8c-0.5,0-0.9,0.4-1.1,0.8l-1.1-0.6
		c0.5-0.9,1.1-1.4,2.1-1.4c1.2,0,2.2,0.7,2.2,2c0,1.9-2.5,2.2-2.9,3.8h3V90.1z"/>
</g>
<rect x="11" y="66.6" fill="#515559" width="841.1" height="1.2"/>
<rect x="18.5" y="297.5" fill="#4F5257" width="622.1" height="1.2"/>
<rect x="25.4" y="125.5" fill="#757A80" width="609.8" height="1.2"/>
<rect x="25.4" y="200.7" fill="#757A80" width="609.8" height="1.2"/>
<rect x="25.4" y="152.9" fill="#757A80" width="609.8" height="1.2"/>
<rect x="25.4" y="247.2" fill="#757A80" width="609.8" height="1.2"/>
<rect x="698.7" y="200.7" fill="#757A80" width="137.3" height="1.2"/>
<rect x="698.7" y="152.9" fill="#757A80" width="137.3" height="1.2"/>
<rect x="698.7" y="247.2" fill="#757A80" width="137.3" height="1.2"/>
<rect x="18.5" y="323.2" fill="#4F5257" width="622.1" height="1.2"/>
<rect x="18.5" y="349.5" fill="#4F5257" width="622.1" height="1.2"/>
<g>
	<path fill="#FFFFFF" d="M793.6,126.2h-4.3v-7h1.2v5.8h3.1V126.2z"/>
</g>
<g>
	<path fill="#FFFFFF" d="M829.6,123.1c0.1,0.1,0.2,0.3,0.3,0.4l1.6,2.6h-1.5l-1.4-2.4c-0.2-0.4-0.3-0.5-0.8-0.5h-0.5v2.9h-1.3v-7
		h2.5c1.3,0,2.4,0.6,2.4,2.1C831,122.2,830.5,122.9,829.6,123.1z M828.7,120.4h-1.3v1.8h1.3c0.6,0,1.1-0.2,1.1-0.9
		C829.8,120.6,829.3,120.4,828.7,120.4z"/>
</g>
<path fill="#3C3F42" d="M794.1,72.3h-5.1c-0.9,0-1.7-0.8-1.7-1.7v-6.8c0-0.9,0.8-1.7,1.7-1.7h5.1c0.9,0,1.7,0.8,1.7,1.7v6.8
	C795.8,71.6,795,72.3,794.1,72.3z"/>
<path fill="#3C3F42" d="M830.9,72.3h-5.1c-0.9,0-1.7-0.8-1.7-1.7v-6.8c0-0.9,0.8-1.7,1.7-1.7h5.1c0.9,0,1.7,0.8,1.7,1.7v6.8
	C832.6,71.6,831.8,72.3,830.9,72.3z"/>
<g>
	<path fill="#FFFFFF" d="M794,70.4h-4.3v-7h1.2v5.8h3.1V70.4z"/>
</g>
<g>
	<path fill="#FFFFFF" d="M829.6,67.5c0.1,0.1,0.2,0.3,0.3,0.4l1.6,2.6h-1.5l-1.4-2.4c-0.2-0.4-0.3-0.5-0.8-0.5h-0.5v2.9h-1.3v-7h2.5
		c1.3,0,2.4,0.6,2.4,2.1C831,66.5,830.5,67.2,829.6,67.5z M828.7,64.7h-1.3v1.8h1.3c0.6,0,1.1-0.2,1.1-0.9
		C829.8,64.9,829.3,64.7,828.7,64.7z"/>
</g>
<path fill="#3C3F42" d="M709.4,72.3h-5.1c-0.9,0-1.7-0.8-1.7-1.7v-6.8c0-0.9,0.8-1.7,1.7-1.7h5.1c0.9,0,1.7,0.8,1.7,1.7v6.8
	C711.1,71.6,710.4,72.3,709.4,72.3z"/>
<path fill="#3C3F42" d="M748.3,72.3h-5.1c-0.9,0-1.7-0.8-1.7-1.7v-6.8c0-0.9,0.8-1.7,1.7-1.7h5.1c0.9,0,1.7,0.8,1.7,1.7v6.8
	C750.1,71.6,749.3,72.3,748.3,72.3z"/>
<g>
	<path fill="#FFFFFF" d="M709.3,70.4H705v-7h1.2v5.8h3.1V70.4z"/>
</g>
<g>
	<path fill="#FFFFFF" d="M746.9,67.5c0.1,0.1,0.2,0.3,0.3,0.4l1.6,2.6h-1.5l-1.4-2.4c-0.2-0.4-0.3-0.5-0.8-0.5h-0.5v2.9h-1.3v-7h2.5
		c1.3,0,2.4,0.6,2.4,2.1C748.4,66.5,747.8,67.2,746.9,67.5z M746,64.7h-1.3v1.8h1.3c0.6,0,1.1-0.2,1.1-0.9
		C747.1,64.9,746.6,64.7,746,64.7z"/>
</g>
<g>
	<path fill="#7D848A" d="M238.8,11.3c-0.8,0.9-1.3,1.3-2.5,1.3c-2.1,0-3.1-1.8-3.1-3.7c0-1.9,0.9-3.7,3.1-3.7c1.1,0,1.8,0.4,2.5,1.2
		l-0.9,0.9c-0.4-0.5-0.8-0.8-1.6-0.8c-1.4,0-1.8,1.3-1.8,2.4c0,1.1,0.4,2.4,1.8,2.4c0.7,0,1.2-0.4,1.6-0.9L238.8,11.3z"/>
	<path fill="#7D848A" d="M242.4,12.6c-2.2,0-3-1.8-3-3.7c0-1.9,0.8-3.7,3-3.7s3,1.8,3,3.7C245.4,10.8,244.6,12.6,242.4,12.6z
		 M242.4,6.5c-1.4,0-1.7,1.3-1.7,2.4c0,1.1,0.3,2.4,1.7,2.4s1.7-1.3,1.7-2.4C244.1,7.7,243.8,6.5,242.4,6.5z"/>
	<path fill="#7D848A" d="M251.8,12.5h-1.1L247.9,8v4.5h-1.3V5.3h1.1l2.9,4.5V5.3h1.3V12.5z"/>
	<path fill="#7D848A" d="M255.9,12.6c-1.5,0-2.5-0.7-2.9-2.1l1.2-0.2c0.2,0.8,0.8,1.1,1.7,1.1c0.6,0,1.4-0.3,1.4-1
		c0-1.5-4-0.5-4-3.1c0-1.4,1.2-2,2.5-2c1.3,0,2.1,0.5,2.7,1.6l-1.1,0.5c-0.3-0.6-0.8-0.9-1.5-0.9c-0.5,0-1.1,0.2-1.1,0.8
		c0,1.3,4,0.4,4,3.1C258.5,11.8,257.2,12.6,255.9,12.6z"/>
	<path fill="#7D848A" d="M264.4,6.5h-2.1v5.9H261V6.5h-2.1V5.3h5.5V6.5z"/>
	<path fill="#7D848A" d="M270.6,12.5h-1.4l-0.7-1.9H266l-0.7,1.9h-1.4l2.8-7.2h1.2L270.6,12.5z M268.1,9.5l-0.9-2.3l-0.8,2.3H268.1z
		"/>
	<path fill="#7D848A" d="M276.6,12.5h-1.1L272.7,8v4.5h-1.3V5.3h1.1l2.9,4.5V5.3h1.3V12.5z"/>
	<path fill="#7D848A" d="M283.1,6.5H281v5.9h-1.3V6.5h-2.1V5.3h5.5V6.5z"/>
	<path fill="#7D848A" d="M286.5,10.2h-3v-1h3V10.2z"/>
	<path fill="#7D848A" d="M290.7,9.6h-1.5v2.9h-1.3V5.3h2.8c1.4,0,2.4,0.6,2.4,2.2C293.1,9,292.1,9.6,290.7,9.6z M290.6,6.5h-1.5v1.9
		h1.5c0.7,0,1.2-0.1,1.2-0.9C291.8,6.7,291.2,6.5,290.6,6.5z"/>
	<path fill="#7D848A" d="M296.8,12.6c-2.2,0-3-1.8-3-3.7c0-1.9,0.8-3.7,3-3.7s3,1.8,3,3.7C299.8,10.8,299,12.6,296.8,12.6z
		 M296.8,6.5c-1.4,0-1.7,1.3-1.7,2.4c0,1.1,0.3,2.4,1.7,2.4s1.7-1.3,1.7-2.4C298.5,7.7,298.2,6.5,296.8,6.5z"/>
	<path fill="#7D848A" d="M308.8,5.3l-1.7,7.2h-1.4l-1.2-4.7l-1.2,4.7h-1.4l-1.7-7.2h1.3l1.1,5.1l1.3-5.1h1.1l1.3,5.1l1.1-5.1H308.8z
		"/>
	<path fill="#7D848A" d="M314.5,12.5h-4.9V5.3h4.9v1.3H311v1.6h3.1v1.2H311v1.8h3.6V12.5z"/>
	<path fill="#7D848A" d="M319.4,9.4c0.1,0.1,0.3,0.3,0.4,0.4l1.7,2.7h-1.5l-1.5-2.5c-0.2-0.4-0.3-0.5-0.8-0.5h-0.5v3h-1.3V5.3h2.6
		c1.4,0,2.5,0.7,2.5,2.2C320.9,8.4,320.3,9.1,319.4,9.4z M318.4,6.5h-1.3v1.8h1.3c0.7,0,1.2-0.2,1.2-0.9
		C319.6,6.7,319,6.5,318.4,6.5z"/>
	<path fill="#7D848A" d="M328.2,9.6h-1.5v2.9h-1.3V5.3h2.8c1.4,0,2.4,0.6,2.4,2.2C330.6,9,329.7,9.6,328.2,9.6z M328.1,6.5h-1.5v1.9
		h1.5c0.7,0,1.2-0.1,1.2-0.9C329.3,6.7,328.7,6.5,328.1,6.5z"/>
	<path fill="#7D848A" d="M336.8,12.5h-1.4l-0.7-1.9h-2.5l-0.7,1.9h-1.4l2.8-7.2h1.2L336.8,12.5z M334.3,9.5l-0.9-2.3l-0.8,2.3H334.3
		z"/>
	<path fill="#7D848A" d="M342.8,12.5h-1.1L338.9,8v4.5h-1.3V5.3h1.1l2.9,4.5V5.3h1.3V12.5z"/>
	<path fill="#7D848A" d="M349.5,12.5h-1.1L345.6,8v4.5h-1.3V5.3h1.1l2.9,4.5V5.3h1.3V12.5z"/>
	<path fill="#7D848A" d="M352.3,12.5H351V5.3h1.3V12.5z"/>
	<path fill="#7D848A" d="M359.1,12.5H358L355.2,8v4.5h-1.3V5.3h1.1l2.9,4.5V5.3h1.3V12.5z"/>
	<path fill="#7D848A" d="M365.8,8.5v4h-1.1v-0.7c-0.4,0.6-0.9,0.8-1.5,0.8c-2.1,0-3-1.8-3-3.7c0-1.9,0.8-3.7,3-3.7
		c1.1,0,1.8,0.4,2.4,1.3l-0.9,0.8c-0.4-0.5-0.8-0.9-1.5-0.9c-1.4,0-1.7,1.3-1.7,2.4c0,1.1,0.3,2.4,1.7,2.4c1,0,1.3-0.8,1.3-1.7h-1.4
		V8.5H365.8z"/>
	<path fill="#7D848A" d="M372.5,12.5h-1.3V6.9l-1,0.6l-0.6-1l1.9-1.2h0.9V12.5z"/>
	<path fill="#7D848A" d="M376.5,12.6c-1.5,0-2.4-1.3-2.4-2.7c0-1.8,0.8-3.5,2.2-4.6h1.5c-1,0.8-1.9,1.7-2.3,2.9
		c0.3-0.3,0.6-0.4,1-0.4c1.4,0,2.2,1.1,2.2,2.4C378.9,11.6,378,12.6,376.5,12.6z M376.5,9c-0.6,0-1.1,0.6-1.1,1.2
		c0,0.6,0.4,1.1,1.1,1.1s1.1-0.5,1.1-1.1C377.6,9.5,377.2,9,376.5,9z"/>
	<path fill="#7D848A" d="M382.9,10.2h-3v-1h3V10.2z"/>
	<path fill="#7D848A" d="M389.6,11.3c-0.8,0.9-1.3,1.3-2.5,1.3c-2.1,0-3.1-1.8-3.1-3.7c0-1.9,0.9-3.7,3.1-3.7c1.1,0,1.8,0.4,2.5,1.2
		l-0.9,0.9c-0.4-0.5-0.8-0.8-1.6-0.8c-1.4,0-1.8,1.3-1.8,2.4c0,1.1,0.4,2.4,1.8,2.4c0.7,0,1.2-0.4,1.6-0.9L389.6,11.3z"/>
	<path fill="#7D848A" d="M396.1,12.5h-1.3V9.4h-2.9v3.1h-1.3V5.3h1.3v2.9h2.9V5.3h1.3V12.5z"/>
	<path fill="#7D848A" d="M403.6,12.5h-1.4l-0.7-1.9H399l-0.7,1.9h-1.4l2.8-7.2h1.2L403.6,12.5z M401.1,9.5l-0.9-2.3l-0.8,2.3H401.1z
		"/>
	<path fill="#7D848A" d="M409.6,12.5h-1.1L405.7,8v4.5h-1.3V5.3h1.1l2.9,4.5V5.3h1.3V12.5z"/>
	<path fill="#7D848A" d="M416.3,12.5h-1.1L412.4,8v4.5h-1.3V5.3h1.1l2.9,4.5V5.3h1.3V12.5z"/>
	<path fill="#7D848A" d="M422.7,12.5h-4.9V5.3h4.9v1.3h-3.6v1.6h3.1v1.2h-3.1v1.8h3.6V12.5z"/>
	<path fill="#7D848A" d="M428.4,12.5H424V5.3h1.3v6h3.2V12.5z"/>
	<path fill="#7D848A" d="M439.1,12.5h-1.3V8.6l-1.5,3.9h-0.8l-1.5-3.9v3.9h-1.3V5.3h1.3l2,5.1l2.1-5.1h1.2V12.5z"/>
	<path fill="#7D848A" d="M441.8,12.5h-1.3V5.3h1.3V12.5z"/>
	<path fill="#7D848A" d="M449.1,12.5h-1.6l-1.6-2.6l-1.7,2.6h-1.5l2.5-3.7l-2.3-3.5h1.6l1.5,2.4l1.5-2.4h1.5l-2.3,3.5L449.1,12.5z"
		/>
	<path fill="#7D848A" d="M454.9,12.5H450V5.3h4.9v1.3h-3.6v1.6h3.1v1.2h-3.1v1.8h3.6V12.5z"/>
	<path fill="#7D848A" d="M459.7,9.4c0.1,0.1,0.3,0.3,0.4,0.4l1.7,2.7h-1.5l-1.5-2.5c-0.2-0.4-0.3-0.5-0.8-0.5h-0.5v3h-1.3V5.3h2.6
		c1.4,0,2.5,0.7,2.5,2.2C461.3,8.4,460.7,9.1,459.7,9.4z M458.8,6.5h-1.3v1.8h1.3c0.7,0,1.2-0.2,1.2-0.9
		C460,6.7,459.4,6.5,458.8,6.5z"/>
</g>
<rect x="768.6" y="25.6" fill="#969FA6" width="1.2" height="37.9"/>
<rect x="768.5" y="70.5" fill="#969FA6" width="1.2" height="38.1"/>
<rect x="768.6" y="134.4" fill="#7D848A" width="1.2" height="148.6"/>
<g>
	<path fill="#C7EDD3" d="M709.6,10.8h2.3c1.4,0,2.5,0.5,2.5,2c0,1.5-1.1,2.1-2.5,2.1h-1.1v2.7h-1.2V10.8z M711.8,14
		c0.9,0,1.5-0.4,1.5-1.2c0-0.8-0.5-1.1-1.5-1.1h-1V14H711.8z M711.7,14.7l0.9-0.7l2.1,3.7h-1.4L711.7,14.7z"/>
	<path fill="#C7EDD3" d="M715.8,10.8h4.1v1H717v1.8h2.5v1H717v2h3v1h-4.2V10.8z"/>
	<path fill="#C7EDD3" d="M722.9,11.9h-2v-1h5.2v1h-2v5.8h-1.2V11.9z"/>
	<path fill="#C7EDD3" d="M727.2,14.7v-3.9h1.2v3.9c0,1.5,0.6,2,1.4,2c0.8,0,1.4-0.5,1.4-2v-3.9h1.2v3.9c0,2.3-1,3.1-2.6,3.1
		C728.2,17.8,727.2,16.9,727.2,14.7z"/>
	<path fill="#C7EDD3" d="M734.1,10.8h2.3c1.4,0,2.5,0.5,2.5,2c0,1.5-1.1,2.1-2.5,2.1h-1.1v2.7h-1.2V10.8z M736.3,14
		c0.9,0,1.5-0.4,1.5-1.2c0-0.8-0.5-1.1-1.5-1.1h-1V14H736.3z M736.2,14.7l0.9-0.7l2.1,3.7h-1.4L736.2,14.7z"/>
	<path fill="#C7EDD3" d="M740.3,10.8h1.3l2.1,3.9l0.7,1.5h0c-0.1-0.7-0.2-1.6-0.2-2.3v-3h1.2v6.9h-1.3l-2.1-3.9l-0.7-1.5h0
		c0.1,0.7,0.2,1.6,0.2,2.3v3h-1.2V10.8z"/>
</g>
<g>
	<path fill="#C7EDD3" d="M797.1,16.8l0.7-0.8c0.5,0.5,1.2,0.8,1.8,0.8c0.8,0,1.2-0.4,1.2-0.9c0-0.6-0.4-0.7-1.1-1l-0.9-0.4
		c-0.7-0.3-1.4-0.8-1.4-1.8c0-1.1,1-1.9,2.3-1.9c0.8,0,1.6,0.3,2.1,0.9l-0.6,0.8c-0.4-0.4-0.9-0.6-1.5-0.6c-0.7,0-1.1,0.3-1.1,0.8
		c0,0.5,0.5,0.7,1.1,1l0.9,0.4c0.8,0.3,1.4,0.9,1.4,1.9c0,1.1-0.9,2-2.5,2C798.7,17.8,797.8,17.5,797.1,16.8z"/>
	<path fill="#C7EDD3" d="M803.3,10.8h4.1v1h-2.9v1.8h2.5v1h-2.5v2h3v1h-4.2V10.8z"/>
	<path fill="#C7EDD3" d="M809,10.8h1.3l2.1,3.9l0.7,1.5h0c-0.1-0.7-0.2-1.6-0.2-2.3v-3h1.2v6.9h-1.3l-2.1-3.9l-0.7-1.5h0
		c0.1,0.7,0.2,1.6,0.2,2.3v3H809V10.8z"/>
	<path fill="#C7EDD3" d="M815.9,10.8h1.8c2.1,0,3.3,1.1,3.3,3.4c0,2.3-1.2,3.5-3.3,3.5h-1.9V10.8z M817.6,16.7
		c1.4,0,2.2-0.8,2.2-2.5c0-1.7-0.8-2.4-2.2-2.4h-0.5v4.9H817.6z"/>
</g>
<g>
	<g>
		<g>
			<path fill="#868F94" d="M32.1,108.5v19.1l7,12.1c5.2-2.8,8.7-8.3,8.7-14.6C47.8,116.2,40.9,109,32.1,108.5z"/>
			<path fill="#868F94" d="M30.2,108.5c-8.7,0.5-15.6,7.7-15.6,16.5c0,6.3,3.5,11.8,8.7,14.6l7-12.1V108.5z"/>
		</g>
		<rect x="30.2" y="108.5" fill="#FFFFFF" width="1.9" height="19.1"/>
	</g>
	<g>
		<g>
			<path fill="#868F94" d="M72.1,108.5v19.1l7,12.1c5.2-2.8,8.7-8.3,8.7-14.6C87.7,116.2,80.8,109,72.1,108.5z"/>
			<path fill="#868F94" d="M70.2,108.5c-8.7,0.5-15.6,7.7-15.6,16.5c0,6.3,3.5,11.8,8.7,14.6l7-12.1V108.5z"/>
		</g>
		<rect x="70.2" y="108.5" fill="#FFFFFF" width="1.9" height="19.1"/>
	</g>
	<g>
		<g>
			<path fill="#868F94" d="M112.1,108.5v19.1l7,12.1c5.2-2.8,8.7-8.3,8.7-14.6C127.7,116.2,120.8,109,112.1,108.5z"/>
			<path fill="#868F94" d="M110.2,108.5c-8.7,0.5-15.6,7.7-15.6,16.5c0,6.3,3.5,11.8,8.7,14.6l7-12.1V108.5z"/>
		</g>
		<rect x="110.2" y="108.5" fill="#FFFFFF" width="1.9" height="19.1"/>
	</g>
	<g>
		<g>
			<path fill="#868F94" d="M152,108.5v19.1l7,12.1c5.2-2.8,8.7-8.3,8.7-14.6C167.7,116.2,160.8,109,152,108.5z"/>
			<path fill="#868F94" d="M150.1,108.5c-8.7,0.5-15.6,7.7-15.6,16.5c0,6.3,3.5,11.8,8.7,14.6l7-12.1V108.5z"/>
		</g>
		<rect x="150.1" y="108.5" fill="#FFFFFF" width="1.9" height="19.1"/>
	</g>
	<g>
		<g>
			<path fill="#868F94" d="M192,108.5v19.1l7,12.1c5.2-2.8,8.7-8.3,8.7-14.6C207.6,116.2,200.7,109,192,108.5z"/>
			<path fill="#868F94" d="M190.1,108.5c-8.7,0.5-15.6,7.7-15.6,16.5c0,6.3,3.5,11.8,8.7,14.6l7-12.1V108.5z"/>
		</g>
		<rect x="190.1" y="108.5" fill="#FFFFFF" width="1.9" height="19.1"/>
	</g>
	<g>
		<g>
			<path fill="#868F94" d="M232,108.5v19.1l7,12.1c5.2-2.8,8.7-8.3,8.7-14.6C247.6,116.2,240.7,109,232,108.5z"/>
			<path fill="#868F94" d="M230,108.5c-8.7,0.5-15.6,7.7-15.6,16.5c0,6.3,3.5,11.8,8.7,14.6l7-12.1V108.5z"/>
		</g>
		<rect x="230" y="108.5" fill="#FFFFFF" width="1.9" height="19.1"/>
	</g>
	<g>
		<g>
			<path fill="#868F94" d="M271.9,108.5v19.1l7,12.1c5.2-2.8,8.7-8.3,8.7-14.6C287.6,116.2,280.6,109,271.9,108.5z"/>
			<path fill="#868F94" d="M270,108.5c-8.7,0.5-15.6,7.7-15.6,16.5c0,6.3,3.5,11.8,8.7,14.6l7-12.1V108.5z"/>
		</g>
		<rect x="270" y="108.5" fill="#FFFFFF" width="1.9" height="19.1"/>
	</g>
	<g>
		<g>
			<path fill="#868F94" d="M311.9,108.5v19.1l7,12.1c5.2-2.8,8.7-8.3,8.7-14.6C327.5,116.2,320.6,109,311.9,108.5z"/>
			<path fill="#868F94" d="M310,108.5c-8.7,0.5-15.6,7.7-15.6,16.5c0,6.3,3.5,11.8,8.7,14.6l7-12.1V108.5z"/>
		</g>
		<rect x="310" y="108.5" fill="#FFFFFF" width="1.9" height="19.1"/>
	</g>
	<g>
		<g>
			<path fill="#868F94" d="M351.9,108.5v19.1l7,12.1c5.2-2.8,8.7-8.3,8.7-14.6C367.5,116.2,360.6,109,351.9,108.5z"/>
			<path fill="#868F94" d="M349.9,108.5c-8.7,0.5-15.6,7.7-15.6,16.5c0,6.3,3.5,11.8,8.7,14.6l7-12.1V108.5z"/>
		</g>
		<rect x="349.9" y="108.5" fill="#FFFFFF" width="1.9" height="19.1"/>
	</g>
	<g>
		<g>
			<path fill="#868F94" d="M391.8,108.5v19.1l7,12.1c5.2-2.8,8.7-8.3,8.7-14.6C407.5,116.2,400.5,109,391.8,108.5z"/>
			<path fill="#868F94" d="M389.9,108.5c-8.7,0.5-15.6,7.7-15.6,16.5c0,6.3,3.5,11.8,8.7,14.6l7-12.1V108.5z"/>
		</g>
		<rect x="389.9" y="108.5" fill="#FFFFFF" width="1.9" height="19.1"/>
	</g>
	<g>
		<g>
			<path fill="#868F94" d="M431.8,108.5v19.1l7,12.1c5.2-2.8,8.7-8.3,8.7-14.6C447.4,116.2,440.5,109,431.8,108.5z"/>
			<path fill="#868F94" d="M429.9,108.5c-8.7,0.5-15.6,7.7-15.6,16.5c0,6.3,3.5,11.8,8.7,14.6l7-12.1V108.5z"/>
		</g>
		<rect x="429.9" y="108.5" fill="#FFFFFF" width="1.9" height="19.1"/>
	</g>
	<g>
		<g>
			<path fill="#868F94" d="M471.7,108.5v19.1l7,12.1c5.2-2.8,8.7-8.3,8.7-14.6C487.4,116.2,480.5,109,471.7,108.5z"/>
			<path fill="#868F94" d="M469.8,108.5c-8.7,0.5-15.6,7.7-15.6,16.5c0,6.3,3.5,11.8,8.7,14.6l7-12.1V108.5z"/>
		</g>
		<rect x="469.8" y="108.5" fill="#FFFFFF" width="1.9" height="19.1"/>
	</g>
	<g>
		<g>
			<path fill="#868F94" d="M511.7,108.5v19.1l7,12.1c5.2-2.8,8.7-8.3,8.7-14.6C527.4,116.2,520.4,109,511.7,108.5z"/>
			<path fill="#868F94" d="M509.8,108.5c-8.7,0.5-15.6,7.7-15.6,16.5c0,6.3,3.5,11.8,8.7,14.6l7-12.1V108.5z"/>
		</g>
		<rect x="509.8" y="108.5" fill="#FFFFFF" width="1.9" height="19.1"/>
	</g>
	<g>
		<g>
			<path fill="#868F94" d="M551.7,108.5v19.1l7,12.1c5.2-2.8,8.7-8.3,8.7-14.6C567.3,116.2,560.4,109,551.7,108.5z"/>
			<path fill="#868F94" d="M549.8,108.5c-8.7,0.5-15.6,7.7-15.6,16.5c0,6.3,3.5,11.8,8.7,14.6l7-12.1V108.5z"/>
		</g>
		<rect x="549.8" y="108.5" fill="#FFFFFF" width="1.9" height="19.1"/>
	</g>
	<g>
		<g>
			<path fill="#868F94" d="M591.6,108.5v19.1l7,12.1c5.2-2.8,8.7-8.3,8.7-14.6C607.3,116.2,600.4,109,591.6,108.5z"/>
			<path fill="#868F94" d="M589.7,108.5c-8.7,0.5-15.6,7.7-15.6,16.5c0,6.3,3.5,11.8,8.7,14.6l7-12.1V108.5z"/>
		</g>
		<rect x="589.7" y="108.5" fill="#FFFFFF" width="1.9" height="19.1"/>
	</g>
	<g>
		<g>
			<path fill="#868F94" d="M631.6,108.5v19.1l7,12.1c5.2-2.8,8.7-8.3,8.7-14.6C647.2,116.2,640.3,109,631.6,108.5z"/>
			<path fill="#868F94" d="M629.7,108.5C621,109,614,116.2,614,125c0,6.3,3.5,11.8,8.7,14.6l7-12.1V108.5z"/>
		</g>
		<rect x="629.7" y="108.5" fill="#FFFFFF" width="1.9" height="19.1"/>
	</g>
</g>
<g>
	<g>
		<path fill="#ADB8BF" d="M31.2,70.1c-8.9,0-16.1,7.2-16.1,16.1c0,6.1,3.4,11.4,8.4,14.1l7.7-13.3l7.7,13.3c5-2.7,8.4-8,8.4-14.1
			C47.3,77.3,40.1,70.1,31.2,70.1z"/>
	</g>
	<g>
		<path fill="#ADB8BF" d="M71.2,70.1c-8.9,0-16.1,7.2-16.1,16.1c0,6.1,3.4,11.4,8.4,14.1l7.7-13.3l7.7,13.3c5-2.7,8.4-8,8.4-14.1
			C87.2,77.3,80.1,70.1,71.2,70.1z"/>
	</g>
	<g>
		<path fill="#ADB8BF" d="M111.2,70.1c-8.9,0-16.1,7.2-16.1,16.1c0,6.1,3.4,11.4,8.4,14.1l7.7-13.3l7.7,13.3c5-2.7,8.4-8,8.4-14.1
			C127.2,77.3,120,70.1,111.2,70.1z"/>
	</g>
	<g>
		<path fill="#ADB8BF" d="M151.2,70.1c-8.9,0-16.1,7.2-16.1,16.1c0,6.1,3.4,11.4,8.4,14.1l7.7-13.3l7.7,13.3c5-2.7,8.4-8,8.4-14.1
			C167.2,77.3,160,70.1,151.2,70.1z"/>
	</g>
	<g>
		<path fill="#ADB8BF" d="M191.2,70.1c-8.9,0-16.1,7.2-16.1,16.1c0,6.1,3.4,11.4,8.4,14.1l7.7-13.3l7.7,13.3c5-2.7,8.4-8,8.4-14.1
			C207.2,77.3,200,70.1,191.2,70.1z"/>
	</g>
	<g>
		<path fill="#ADB8BF" d="M231.2,70.1c-8.9,0-16.1,7.2-16.1,16.1c0,6.1,3.4,11.4,8.4,14.1l7.7-13.3l7.7,13.3c5-2.7,8.4-8,8.4-14.1
			C247.2,77.3,240,70.1,231.2,70.1z"/>
	</g>
	<g>
		<path fill="#ADB8BF" d="M271.2,70.1c-8.9,0-16.1,7.2-16.1,16.1c0,6.1,3.4,11.4,8.4,14.1l7.7-13.3l7.7,13.3c5-2.7,8.4-8,8.4-14.1
			C287.2,77.3,280,70.1,271.2,70.1z"/>
	</g>
	<g>
		<path fill="#ADB8BF" d="M311.1,70.1c-8.9,0-16.1,7.2-16.1,16.1c0,6.1,3.4,11.4,8.4,14.1l7.7-13.3l7.7,13.3c5-2.7,8.4-8,8.4-14.1
			C327.2,77.3,320,70.1,311.1,70.1z"/>
	</g>
	<g>
		<path fill="#ADB8BF" d="M351.1,70.1c-8.9,0-16.1,7.2-16.1,16.1c0,6.1,3.4,11.4,8.4,14.1l7.7-13.3l7.7,13.3c5-2.7,8.4-8,8.4-14.1
			C367.2,77.3,360,70.1,351.1,70.1z"/>
	</g>
	<g>
		<path fill="#ADB8BF" d="M391.1,70.1c-8.9,0-16.1,7.2-16.1,16.1c0,6.1,3.4,11.4,8.4,14.1l7.7-13.3l7.7,13.3c5-2.7,8.4-8,8.4-14.1
			C407.2,77.3,400,70.1,391.1,70.1z"/>
	</g>
	<g>
		<path fill="#ADB8BF" d="M431.1,70.1c-8.9,0-16.1,7.2-16.1,16.1c0,6.1,3.4,11.4,8.4,14.1l7.7-13.3l7.7,13.3c5-2.7,8.4-8,8.4-14.1
			C447.2,77.3,440,70.1,431.1,70.1z"/>
	</g>
	<g>
		<path fill="#ADB8BF" d="M471.1,70.1c-8.9,0-16.1,7.2-16.1,16.1c0,6.1,3.4,11.4,8.4,14.1l7.7-13.3l7.7,13.3c5-2.7,8.4-8,8.4-14.1
			C487.2,77.3,480,70.1,471.1,70.1z"/>
	</g>
	<g>
		<path fill="#ADB8BF" d="M511.1,70.1c-8.9,0-16.1,7.2-16.1,16.1c0,6.1,3.4,11.4,8.4,14.1l7.7-13.3l7.7,13.3c5-2.7,8.4-8,8.4-14.1
			C527.2,77.3,520,70.1,511.1,70.1z"/>
	</g>
	<g>
		<path fill="#ADB8BF" d="M551.1,70.1c-8.9,0-16.1,7.2-16.1,16.1c0,6.1,3.4,11.4,8.4,14.1l7.7-13.3l7.7,13.3c5-2.7,8.4-8,8.4-14.1
			C567.2,77.3,560,70.1,551.1,70.1z"/>
	</g>
	<g>
		<path fill="#ADB8BF" d="M591.1,70.1c-8.9,0-16.1,7.2-16.1,16.1c0,6.1,3.4,11.4,8.4,14.1l7.7-13.3l7.7,13.3c5-2.7,8.4-8,8.4-14.1
			C607.2,77.3,600,70.1,591.1,70.1z"/>
	</g>
	<g>
		<path fill="#ADB8BF" d="M631.1,70.1c-8.9,0-16.1,7.2-16.1,16.1c0,6.1,3.4,11.4,8.4,14.1l7.7-13.3l7.7,13.3c5-2.7,8.4-8,8.4-14.1
			C647.2,77.3,640,70.1,631.1,70.1z"/>
	</g>
</g>
<g>
	<g>
		<path fill="#ADB8BF" d="M31.2,33c-8.9,0-16.1,7.2-16.1,16.1c0,6.1,3.4,11.4,8.4,14.1l7.7-13.3l7.7,13.3c5-2.7,8.4-8,8.4-14.1
			C47.3,40.2,40.1,33,31.2,33z"/>
	</g>
	<g>
		<path fill="#ADB8BF" d="M71.2,33c-8.9,0-16.1,7.2-16.1,16.1c0,6.1,3.4,11.4,8.4,14.1l7.7-13.3l7.7,13.3c5-2.7,8.4-8,8.4-14.1
			C87.2,40.2,80.1,33,71.2,33z"/>
	</g>
	<g>
		<path fill="#ADB8BF" d="M111.2,33c-8.9,0-16.1,7.2-16.1,16.1c0,6.1,3.4,11.4,8.4,14.1l7.7-13.3l7.7,13.3c5-2.7,8.4-8,8.4-14.1
			C127.2,40.2,120,33,111.2,33z"/>
	</g>
	<g>
		<path fill="#ADB8BF" d="M151.2,33c-8.9,0-16.1,7.2-16.1,16.1c0,6.1,3.4,11.4,8.4,14.1l7.7-13.3l7.7,13.3c5-2.7,8.4-8,8.4-14.1
			C167.2,40.2,160,33,151.2,33z"/>
	</g>
	<g>
		<path fill="#ADB8BF" d="M191.2,33c-8.9,0-16.1,7.2-16.1,16.1c0,6.1,3.4,11.4,8.4,14.1l7.7-13.3l7.7,13.3c5-2.7,8.4-8,8.4-14.1
			C207.2,40.2,200,33,191.2,33z"/>
	</g>
	<g>
		<path fill="#ADB8BF" d="M231.2,33c-8.9,0-16.1,7.2-16.1,16.1c0,6.1,3.4,11.4,8.4,14.1l7.7-13.3l7.7,13.3c5-2.7,8.4-8,8.4-14.1
			C247.2,40.2,240,33,231.2,33z"/>
	</g>
	<g>
		<path fill="#ADB8BF" d="M271.2,33c-8.9,0-16.1,7.2-16.1,16.1c0,6.1,3.4,11.4,8.4,14.1l7.7-13.3l7.7,13.3c5-2.7,8.4-8,8.4-14.1
			C287.2,40.2,280,33,271.2,33z"/>
	</g>
	<g>
		<path fill="#ADB8BF" d="M311.1,33c-8.9,0-16.1,7.2-16.1,16.1c0,6.1,3.4,11.4,8.4,14.1l7.7-13.3l7.7,13.3c5-2.7,8.4-8,8.4-14.1
			C327.2,40.2,320,33,311.1,33z"/>
	</g>
	<g>
		<path fill="#ADB8BF" d="M351.1,33c-8.9,0-16.1,7.2-16.1,16.1c0,6.1,3.4,11.4,8.4,14.1l7.7-13.3l7.7,13.3c5-2.7,8.4-8,8.4-14.1
			C367.2,40.2,360,33,351.1,33z"/>
	</g>
	<g>
		<path fill="#ADB8BF" d="M391.1,33c-8.9,0-16.1,7.2-16.1,16.1c0,6.1,3.4,11.4,8.4,14.1l7.7-13.3l7.7,13.3c5-2.7,8.4-8,8.4-14.1
			C407.2,40.2,400,33,391.1,33z"/>
	</g>
	<g>
		<path fill="#ADB8BF" d="M431.1,33c-8.9,0-16.1,7.2-16.1,16.1c0,6.1,3.4,11.4,8.4,14.1l7.7-13.3l7.7,13.3c5-2.7,8.4-8,8.4-14.1
			C447.2,40.2,440,33,431.1,33z"/>
	</g>
	<g>
		<path fill="#ADB8BF" d="M471.1,33c-8.9,0-16.1,7.2-16.1,16.1c0,6.1,3.4,11.4,8.4,14.1l7.7-13.3l7.7,13.3c5-2.7,8.4-8,8.4-14.1
			C487.2,40.2,480,33,471.1,33z"/>
	</g>
	<g>
		<path fill="#ADB8BF" d="M511.1,33c-8.9,0-16.1,7.2-16.1,16.1c0,6.1,3.4,11.4,8.4,14.1l7.7-13.3l7.7,13.3c5-2.7,8.4-8,8.4-14.1
			C527.2,40.2,520,33,511.1,33z"/>
	</g>
	<g>
		<path fill="#ADB8BF" d="M551.1,33c-8.9,0-16.1,7.2-16.1,16.1c0,6.1,3.4,11.4,8.4,14.1l7.7-13.3l7.7,13.3c5-2.7,8.4-8,8.4-14.1
			C567.2,40.2,560,33,551.1,33z"/>
	</g>
	<g>
		<path fill="#ADB8BF" d="M591.1,33c-8.9,0-16.1,7.2-16.1,16.1c0,6.1,3.4,11.4,8.4,14.1l7.7-13.3l7.7,13.3c5-2.7,8.4-8,8.4-14.1
			C607.2,40.2,600,33,591.1,33z"/>
	</g>
	<g>
		<path fill="#ADB8BF" d="M631.1,33c-8.9,0-16.1,7.2-16.1,16.1c0,6.1,3.4,11.4,8.4,14.1l7.7-13.3l7.7,13.3c5-2.7,8.4-8,8.4-14.1
			C647.2,40.2,640,33,631.1,33z"/>
	</g>
</g>
<g>
	<polyline fill="none" stroke="#3C3F42" stroke-miterlimit="10" points="791.2,255.2 791.2,260.3 829.6,260.3 829.6,255.2 	"/>
	<g>
		<polygon fill="#3C3F42" points="788.2,257.6 791.2,254.6 794.2,257.6 		"/>
	</g>
	<path fill="#8A9299" d="M817.9,281.2h-14.2c-0.9,0-1.7-0.8-1.7-1.7v-25.3c0-0.9,0.8-1.7,1.7-1.7h14.2c0.9,0,1.7,0.8,1.7,1.7v25.3
		C819.6,280.5,818.8,281.2,817.9,281.2z"/>
	<g>
		<path fill="#FFFFFF" d="M807.4,259.6h-2.7v-4.4h0.8v3.6h1.9V259.6z"/>
		<path fill="#FFFFFF" d="M808.9,259.6h-0.8v-4.4h0.8V259.6z"/>
		<path fill="#FFFFFF" d="M813,259.6h-0.7l-1.8-2.8v2.8h-0.8v-4.4h0.7l1.8,2.8v-2.8h0.8V259.6z"/>
		<path fill="#FFFFFF" d="M813.9,259.6v-4.4h0.8v4.4H813.9z M815.6,257.4l1.6,2.2h-0.9l-1.6-2.2l1.5-2.2h0.9L815.6,257.4z"/>
	</g>
</g>
<g>
	<polyline fill="none" stroke="#3C3F42" stroke-miterlimit="10" points="32.2,255.2 32.2,260.3 70.6,260.3 70.6,255.2 	"/>
	<g>
		<polygon fill="#3C3F42" points="29.2,257.6 32.2,254.6 35.1,257.6 		"/>
	</g>
	<path fill="#8A9299" d="M58.9,281.2H44.6c-0.9,0-1.7-0.8-1.7-1.7v-25.3c0-0.9,0.8-1.7,1.7-1.7h14.2c0.9,0,1.7,0.8,1.7,1.7v25.3
		C60.6,280.5,59.8,281.2,58.9,281.2z"/>
	<g>
		<path fill="#FFFFFF" d="M48.3,259.6h-2.7v-4.4h0.8v3.6h1.9V259.6z"/>
		<path fill="#FFFFFF" d="M49.9,259.6h-0.8v-4.4h0.8V259.6z"/>
		<path fill="#FFFFFF" d="M54,259.6h-0.7l-1.8-2.8v2.8h-0.8v-4.4h0.7l1.8,2.8v-2.8H54V259.6z"/>
		<path fill="#FFFFFF" d="M54.9,259.6v-4.4h0.8v4.4H54.9z M56.6,257.4l1.6,2.2h-0.9l-1.6-2.2l1.5-2.2h0.9L56.6,257.4z"/>
	</g>
</g>
<g>
	<polyline fill="none" stroke="#3C3F42" stroke-miterlimit="10" points="112.6,255.2 112.6,260.3 151,260.3 151,255.2 	"/>
	<g>
		<polygon fill="#3C3F42" points="109.6,257.6 112.6,254.6 115.6,257.6 		"/>
	</g>
	<path fill="#8A9299" d="M139.3,281.2h-14.2c-0.9,0-1.7-0.8-1.7-1.7v-25.3c0-0.9,0.8-1.7,1.7-1.7h14.2c0.9,0,1.7,0.8,1.7,1.7v25.3
		C141,280.5,140.2,281.2,139.3,281.2z"/>
	<g>
		<path fill="#FFFFFF" d="M128.8,259.6h-2.7v-4.4h0.8v3.6h1.9V259.6z"/>
		<path fill="#FFFFFF" d="M130.3,259.6h-0.8v-4.4h0.8V259.6z"/>
		<path fill="#FFFFFF" d="M134.4,259.6h-0.7l-1.8-2.8v2.8h-0.8v-4.4h0.7l1.8,2.8v-2.8h0.8V259.6z"/>
		<path fill="#FFFFFF" d="M135.3,259.6v-4.4h0.8v4.4H135.3z M137.1,257.4l1.6,2.2h-0.9l-1.6-2.2l1.5-2.2h0.9L137.1,257.4z"/>
	</g>
</g>
<g>
	<polyline fill="none" stroke="#3C3F42" stroke-miterlimit="10" points="192.5,255.2 192.5,260.3 230.9,260.3 230.9,255.2 	"/>
	<g>
		<polygon fill="#3C3F42" points="189.5,257.6 192.5,254.6 195.5,257.6 		"/>
	</g>
	<path fill="#8A9299" d="M219.2,281.2H205c-0.9,0-1.7-0.8-1.7-1.7v-25.3c0-0.9,0.8-1.7,1.7-1.7h14.2c0.9,0,1.7,0.8,1.7,1.7v25.3
		C220.9,280.5,220.2,281.2,219.2,281.2z"/>
	<g>
		<path fill="#FFFFFF" d="M208.7,259.6H206v-4.4h0.8v3.6h1.9V259.6z"/>
		<path fill="#FFFFFF" d="M210.2,259.6h-0.8v-4.4h0.8V259.6z"/>
		<path fill="#FFFFFF" d="M214.3,259.6h-0.7l-1.8-2.8v2.8h-0.8v-4.4h0.7l1.8,2.8v-2.8h0.8V259.6z"/>
		<path fill="#FFFFFF" d="M215.2,259.6v-4.4h0.8v4.4H215.2z M217,257.4l1.6,2.2h-0.9l-1.6-2.2l1.5-2.2h0.9L217,257.4z"/>
	</g>
</g>
<g>
	<polyline fill="none" stroke="#3C3F42" stroke-miterlimit="10" points="272.4,255.2 272.4,260.3 310.8,260.3 310.8,255.2 	"/>
	<g>
		<polygon fill="#3C3F42" points="269.4,257.6 272.4,254.6 275.4,257.6 		"/>
	</g>
	<path fill="#8A9299" d="M299.1,281.2h-14.2c-0.9,0-1.7-0.8-1.7-1.7v-25.3c0-0.9,0.8-1.7,1.7-1.7h14.2c0.9,0,1.7,0.8,1.7,1.7v25.3
		C300.8,280.5,300.1,281.2,299.1,281.2z"/>
	<g>
		<path fill="#FFFFFF" d="M288.6,259.6h-2.7v-4.4h0.8v3.6h1.9V259.6z"/>
		<path fill="#FFFFFF" d="M290.2,259.6h-0.8v-4.4h0.8V259.6z"/>
		<path fill="#FFFFFF" d="M294.3,259.6h-0.7l-1.8-2.8v2.8h-0.8v-4.4h0.7l1.8,2.8v-2.8h0.8V259.6z"/>
		<path fill="#FFFFFF" d="M295.2,259.6v-4.4h0.8v4.4H295.2z M296.9,257.4l1.6,2.2h-0.9l-1.6-2.2l1.5-2.2h0.9L296.9,257.4z"/>
	</g>
</g>
<g>
	<polyline fill="none" stroke="#3C3F42" stroke-miterlimit="10" points="352.4,255.2 352.4,260.3 390.8,260.3 390.8,255.2 	"/>
	<g>
		<polygon fill="#3C3F42" points="349.4,257.6 352.4,254.6 355.4,257.6 		"/>
	</g>
	<path fill="#8A9299" d="M379.1,281.2h-14.2c-0.9,0-1.7-0.8-1.7-1.7v-25.3c0-0.9,0.8-1.7,1.7-1.7h14.2c0.9,0,1.7,0.8,1.7,1.7v25.3
		C380.8,280.5,380,281.2,379.1,281.2z"/>
	<g>
		<path fill="#FFFFFF" d="M368.6,259.6h-2.7v-4.4h0.8v3.6h1.9V259.6z"/>
		<path fill="#FFFFFF" d="M370.1,259.6h-0.8v-4.4h0.8V259.6z"/>
		<path fill="#FFFFFF" d="M374.2,259.6h-0.7l-1.8-2.8v2.8H371v-4.4h0.7l1.8,2.8v-2.8h0.8V259.6z"/>
		<path fill="#FFFFFF" d="M375.1,259.6v-4.4h0.8v4.4H375.1z M376.8,257.4l1.6,2.2h-0.9l-1.6-2.2l1.5-2.2h0.9L376.8,257.4z"/>
	</g>
</g>
<g>
	<polyline fill="none" stroke="#3C3F42" stroke-miterlimit="10" points="432.3,255.2 432.3,260.3 470.7,260.3 470.7,255.2 	"/>
	<g>
		<polygon fill="#3C3F42" points="429.3,257.6 432.3,254.6 435.3,257.6 		"/>
	</g>
	<path fill="#8A9299" d="M459,281.2h-14.2c-0.9,0-1.7-0.8-1.7-1.7v-25.3c0-0.9,0.8-1.7,1.7-1.7H459c0.9,0,1.7,0.8,1.7,1.7v25.3
		C460.7,280.5,459.9,281.2,459,281.2z"/>
	<g>
		<path fill="#FFFFFF" d="M448.5,259.6h-2.7v-4.4h0.8v3.6h1.9V259.6z"/>
		<path fill="#FFFFFF" d="M450,259.6h-0.8v-4.4h0.8V259.6z"/>
		<path fill="#FFFFFF" d="M454.1,259.6h-0.7l-1.8-2.8v2.8h-0.8v-4.4h0.7l1.8,2.8v-2.8h0.8V259.6z"/>
		<path fill="#FFFFFF" d="M455,259.6v-4.4h0.8v4.4H455z M456.8,257.4l1.6,2.2h-0.9l-1.6-2.2l1.5-2.2h0.9L456.8,257.4z"/>
	</g>
</g>
<g>
	<polyline fill="none" stroke="#3C3F42" stroke-miterlimit="10" points="512.2,255.2 512.2,260.3 550.6,260.3 550.6,255.2 	"/>
	<g>
		<polygon fill="#3C3F42" points="509.2,257.6 512.2,254.6 515.2,257.6 		"/>
	</g>
	<path fill="#8A9299" d="M538.9,281.2h-14.2c-0.9,0-1.7-0.8-1.7-1.7v-25.3c0-0.9,0.8-1.7,1.7-1.7h14.2c0.9,0,1.7,0.8,1.7,1.7v25.3
		C540.6,280.5,539.9,281.2,538.9,281.2z"/>
	<g>
		<path fill="#FFFFFF" d="M528.4,259.6h-2.7v-4.4h0.8v3.6h1.9V259.6z"/>
		<path fill="#FFFFFF" d="M529.9,259.6h-0.8v-4.4h0.8V259.6z"/>
		<path fill="#FFFFFF" d="M534,259.6h-0.7l-1.8-2.8v2.8h-0.8v-4.4h0.7l1.8,2.8v-2.8h0.8V259.6z"/>
		<path fill="#FFFFFF" d="M534.9,259.6v-4.4h0.8v4.4H534.9z M536.7,257.4l1.6,2.2h-0.9l-1.6-2.2l1.5-2.2h0.9L536.7,257.4z"/>
	</g>
</g>
<g>
	<polyline fill="none" stroke="#3C3F42" stroke-miterlimit="10" points="592.2,255.2 592.2,260.3 630.6,260.3 630.6,255.2 	"/>
	<g>
		<polygon fill="#3C3F42" points="589.2,257.6 592.2,254.6 595.1,257.6 		"/>
	</g>
	<path fill="#8A9299" d="M618.8,281.2h-14.2c-0.9,0-1.7-0.8-1.7-1.7v-25.3c0-0.9,0.8-1.7,1.7-1.7h14.2c0.9,0,1.7,0.8,1.7,1.7v25.3
		C620.6,280.5,619.8,281.2,618.8,281.2z"/>
	<g>
		<path fill="#FFFFFF" d="M608.3,259.6h-2.7v-4.4h0.8v3.6h1.9V259.6z"/>
		<path fill="#FFFFFF" d="M609.9,259.6h-0.8v-4.4h0.8V259.6z"/>
		<path fill="#FFFFFF" d="M614,259.6h-0.7l-1.8-2.8v2.8h-0.8v-4.4h0.7l1.8,2.8v-2.8h0.8V259.6z"/>
		<path fill="#FFFFFF" d="M614.9,259.6v-4.4h0.8v4.4H614.9z M616.6,257.4l1.6,2.2h-0.9l-1.6-2.2l1.5-2.2h0.9L616.6,257.4z"/>
	</g>
</g>
<g>
	<path fill="#C80000" d="M832.2,370.6h-42.9c-2,0-3.7-1.7-3.7-3.7v-5.3c0-2,1.7-3.7,3.7-3.7h42.9c2,0,3.7,1.7,3.7,3.7v5.3
		C835.9,368.9,834.2,370.6,832.2,370.6z"/>
	<path fill="#FFFFFF" d="M832.2,370.6h-12.1V358h12.1c2,0,3.7,1.7,3.7,3.7v5.3C835.9,368.9,834.2,370.6,832.2,370.6z"/>
	<g>
		<path fill="#FFFFFF" d="M788.3,367.6v-7h1.3v7H788.3z M791.1,364.1l2.6,3.5h-1.5l-2.5-3.5l2.3-3.5h1.4L791.1,364.1z"/>
		<path fill="#FFFFFF" d="M796.7,367.7c-2.1,0-2.9-1.7-2.9-3.6s0.8-3.6,2.9-3.6s2.9,1.7,2.9,3.6C799.6,366,798.8,367.7,796.7,367.7z
			 M796.7,361.8c-1.4,0-1.6,1.2-1.6,2.3s0.3,2.3,1.6,2.3s1.6-1.2,1.6-2.3S798.1,361.8,796.7,361.8z"/>
		<path fill="#FFFFFF" d="M804.2,364.6c0.1,0.1,0.3,0.3,0.3,0.4l1.6,2.6h-1.5l-1.4-2.4c-0.2-0.4-0.3-0.5-0.8-0.5H802v2.9h-1.3v-7
			h2.5c1.4,0,2.4,0.6,2.4,2.1C805.7,363.6,805.1,364.3,804.2,364.6z M803.3,361.8H802v1.8h1.3c0.6,0,1.1-0.2,1.1-0.9
			C804.4,362,803.9,361.8,803.3,361.8z"/>
		<path fill="#FFFFFF" d="M812.8,367.6h-1.4l-0.7-1.8h-2.5l-0.7,1.8h-1.4l2.7-7h1.1L812.8,367.6z M810.4,364.7l-0.8-2.3l-0.8,2.3
			H810.4z"/>
		<path fill="#FFFFFF" d="M817.9,367.6h-4.3v-7h1.3v5.8h3.1V367.6z"/>
	</g>
	<g>
		<path fill="#C80000" d="M827,361.2h-3.8v2.5h3.4v0.6h-3.4v3.3h-0.6v-7h4.4V361.2z"/>
		<path fill="#C80000" d="M833.1,367.6h-0.7l-2-3.1l-2,3.1h-0.7l2.3-3.6l-2.2-3.4h0.7l1.8,2.9l1.8-2.9h0.7l-2.2,3.4L833.1,367.6z"/>
	</g>
</g>
<g>
	<g>
		<path fill="#FFFFFF" d="M709.5,369.4h-2v-5.8l-2.3,5.8H704l-2.3-5.8v5.8h-2v-10.7h1.9l3,7.6l3-7.6h1.8V369.4z"/>
		<path fill="#FFFFFF" d="M712.4,360.5c-0.6,0-1.1-0.5-1.1-1.1s0.5-1.1,1.1-1.1c0.6,0,1.1,0.5,1.1,1.1S713,360.5,712.4,360.5z
			 M713.3,369.4h-1.8v-7.6h1.8V369.4z"/>
		<path fill="#FFFFFF" d="M722.1,369.4h-2.2l-1.5-2.4l-1.5,2.4h-2.2l2.7-3.9l-2.6-3.7h2.2l1.4,2.2l1.4-2.2h2.2l-2.6,3.7L722.1,369.4
			z"/>
		<path fill="#FFFFFF" d="M725.8,369.6c-2.4,0-3.4-1.7-3.4-3.9c0-2.2,1-3.9,3.4-3.9c2.4,0,3.4,1.7,3.4,3.9
			C729.2,367.9,728.3,369.6,725.8,369.6z M725.8,363.5c-1.3,0-1.5,1.1-1.5,2.2c0,1.1,0.2,2.1,1.5,2.1c1.3,0,1.5-1.1,1.5-2.1
			C727.4,364.6,727.1,363.5,725.8,363.5z"/>
		<path fill="#FFFFFF" d="M737,361.8l-2.9,7.6h-1.5l-2.9-7.6h2l1.6,5l1.7-5H737z"/>
		<path fill="#FFFFFF" d="M744.6,369.4h-1.8v-4.2c0-1-0.2-1.7-1.3-1.7c-0.7,0-1.2,0.6-1.2,1.2v4.7h-1.8v-7.6h1.5l0.1,0.5
			c0.4-0.4,1-0.6,1.6-0.6c2.2,0,3.1,1.4,3.1,3.5V369.4z"/>
		<path fill="#FFFFFF" d="M747.4,360.5c-0.6,0-1.1-0.5-1.1-1.1s0.5-1.1,1.1-1.1c0.6,0,1.1,0.5,1.1,1.1S748,360.5,747.4,360.5z
			 M748.3,369.4h-1.8v-7.6h1.8V369.4z"/>
		<path fill="#FFFFFF" d="M752.1,369.4h-1.8v-10.7h1.8V369.4z M756.7,369.4h-2l-2.6-4.2l2.2-3.4h1.9l-2.2,3.4L756.7,369.4z"/>
	</g>
	<rect x="699.7" y="371" fill="#C80000" width="9.9" height="2.1"/>
</g>
</svg>
