<svg id="3e181a28-5f49-4652-a655-19cf1c069a29" data-name="svg8" xmlns="http://www.w3.org/2000/svg" xmlns:xlink="http://www.w3.org/1999/xlink" viewBox="0 0 60 380"><defs><linearGradient id="d7452905-281b-4fa0-a34e-e50916ed0aeb" x1="0.78" y1="8.02" x2="14.07" y2="8.02" gradientUnits="userSpaceOnUse"><stop offset="0" stop-color="#b5b5b5"/><stop offset="1"/></linearGradient><linearGradient id="7af10a2c-45df-4e16-b407-8ec37b575f3e" x1="12.94" y1="8.02" x2="1.9" y2="8.02" gradientUnits="userSpaceOnUse"><stop offset="0" stop-color="#bfbfbf"/><stop offset="1" stop-color="#2b2b2b"/></linearGradient><linearGradient id="04649c35-ff57-47aa-bcda-68efffcccf3b" x1="11.89" y1="8.02" x2="2.95" y2="8.02" gradientUnits="userSpaceOnUse"><stop offset="0" stop-color="#363636"/><stop offset="1"/></linearGradient><linearGradient id="35d48f03-e4c1-40ee-8a48-dcf84ed0ccd0" x1="3.5" y1="8.02" x2="11.35" y2="8.02" gradientUnits="userSpaceOnUse"><stop offset="0" stop-color="#212121"/><stop offset="1"/></linearGradient><linearGradient id="d9ebca6b-97d1-4918-9c00-93a7cbcc35cc" x1="0.78" y1="370.86" x2="14.07" y2="370.86" xlink:href="#d7452905-281b-4fa0-a34e-e50916ed0aeb"/><linearGradient id="50cafa48-9d52-4536-bfc1-cf582d4a25c8" x1="12.94" y1="370.86" x2="1.9" y2="370.86" xlink:href="#7af10a2c-45df-4e16-b407-8ec37b575f3e"/><linearGradient id="5ba6052b-a997-4a4b-97a3-3797e2563be0" x1="11.89" y1="370.86" x2="2.95" y2="370.86" xlink:href="#04649c35-ff57-47aa-bcda-68efffcccf3b"/><linearGradient id="2aa9d4b5-3bbc-461a-bca9-2278460dc919" x1="3.5" y1="370.86" x2="11.35" y2="370.86" xlink:href="#35d48f03-e4c1-40ee-8a48-dcf84ed0ccd0"/><linearGradient id="b2b051fa-2389-4a68-92c4-4c459980a80c" x1="45.92" y1="8.02" x2="59.22" y2="8.02" xlink:href="#d7452905-281b-4fa0-a34e-e50916ed0aeb"/><linearGradient id="ed1f9a8d-a3c3-4230-a9c0-15bed55ce6b2" x1="58.09" y1="8.02" x2="47.05" y2="8.02" xlink:href="#7af10a2c-45df-4e16-b407-8ec37b575f3e"/><linearGradient id="b5116633-7579-4438-b4d6-d490d13acf28" x1="57.04" y1="8.02" x2="48.1" y2="8.02" xlink:href="#04649c35-ff57-47aa-bcda-68efffcccf3b"/><linearGradient id="62ca7646-0420-40b5-b93c-773bc3436f9e" x1="48.65" y1="8.02" x2="56.49" y2="8.02" xlink:href="#35d48f03-e4c1-40ee-8a48-dcf84ed0ccd0"/><linearGradient id="b61ff963-ec63-4c8e-8d80-67f10c99ba7d" x1="45.92" y1="370.86" x2="59.22" y2="370.86" xlink:href="#d7452905-281b-4fa0-a34e-e50916ed0aeb"/><linearGradient id="2203c5b3-b909-4c1b-a5d4-434de2e6ec21" x1="58.09" y1="370.86" x2="47.05" y2="370.86" xlink:href="#7af10a2c-45df-4e16-b407-8ec37b575f3e"/><linearGradient id="94f816b7-8f29-4a89-8fc8-b524843d85da" x1="57.04" y1="370.86" x2="48.1" y2="370.86" xlink:href="#04649c35-ff57-47aa-bcda-68efffcccf3b"/><linearGradient id="4216c1af-1ac4-48c8-8d30-616ea0d52547" x1="48.65" y1="370.86" x2="56.49" y2="370.86" xlink:href="#35d48f03-e4c1-40ee-8a48-dcf84ed0ccd0"/></defs><title>Plateovnik4-Dark</title><path id="398cf602-e4a1-427f-bb36-2376f5f0d0e9" data-name="rect817" d="M0,0H60V380H0Z" transform="translate(0 0)" style="fill:#282c30"/><circle cx="7.4" cy="9.1" r="6.6" style="fill:#303030"/><circle cx="7.4" cy="8" r="6.6" style="fill:url(#d7452905-281b-4fa0-a34e-e50916ed0aeb)"/><circle cx="7.4" cy="8" r="5.5" style="fill:url(#7af10a2c-45df-4e16-b407-8ec37b575f3e)"/><polygon points="9.7 4.2 5.2 4.2 3 8 5.2 11.9 9.7 11.9 11.9 8 9.7 4.2" style="fill:url(#04649c35-ff57-47aa-bcda-68efffcccf3b)"/><polygon points="9.4 4.6 5.5 4.6 3.5 8 5.5 11.4 9.4 11.4 11.3 8 9.4 4.6" style="fill:url(#35d48f03-e4c1-40ee-8a48-dcf84ed0ccd0)"/><circle cx="7.4" cy="372" r="6.6" style="fill:#303030"/><circle cx="7.4" cy="370.9" r="6.6" style="fill:url(#d9ebca6b-97d1-4918-9c00-93a7cbcc35cc)"/><circle cx="7.4" cy="370.9" r="5.5" style="fill:url(#50cafa48-9d52-4536-bfc1-cf582d4a25c8)"/><polygon points="9.7 367 5.2 367 3 370.9 5.2 374.7 9.7 374.7 11.9 370.9 9.7 367" style="fill:url(#5ba6052b-a997-4a4b-97a3-3797e2563be0)"/><polygon points="9.4 367.5 5.5 367.5 3.5 370.9 5.5 374.3 9.4 374.3 11.3 370.9 9.4 367.5" style="fill:url(#2aa9d4b5-3bbc-461a-bca9-2278460dc919)"/><circle cx="52.6" cy="9.1" r="6.6" style="fill:#303030"/><circle cx="52.6" cy="8" r="6.6" style="fill:url(#b2b051fa-2389-4a68-92c4-4c459980a80c)"/><circle cx="52.6" cy="8" r="5.5" style="fill:url(#ed1f9a8d-a3c3-4230-a9c0-15bed55ce6b2)"/><polygon points="54.8 4.2 50.3 4.2 48.1 8 50.3 11.9 54.8 11.9 57 8 54.8 4.2" style="fill:url(#b5116633-7579-4438-b4d6-d490d13acf28)"/><polygon points="54.5 4.6 50.6 4.6 48.6 8 50.6 11.4 54.5 11.4 56.5 8 54.5 4.6" style="fill:url(#62ca7646-0420-40b5-b93c-773bc3436f9e)"/><circle cx="52.6" cy="372" r="6.6" style="fill:#303030"/><circle cx="52.6" cy="370.9" r="6.6" style="fill:url(#b61ff963-ec63-4c8e-8d80-67f10c99ba7d)"/><circle cx="52.6" cy="370.9" r="5.5" style="fill:url(#2203c5b3-b909-4c1b-a5d4-434de2e6ec21)"/><polygon points="54.8 367 50.3 367 48.1 370.9 50.3 374.7 54.8 374.7 57 370.9 54.8 367" style="fill:url(#94f816b7-8f29-4a89-8fc8-b524843d85da)"/><polygon points="54.5 367.5 50.6 367.5 48.6 370.9 50.6 374.3 54.5 374.3 56.5 370.9 54.5 367.5" style="fill:url(#4216c1af-1ac4-48c8-8d30-616ea0d52547)"/><path d="M23.9,370.5a3,3,0,0,0,1.1-2.4H23.7a1.8,1.8,0,0,1-1.7,1.8h0v-1.8H20.5v6.4H22v-3.2h0a1.8,1.8,0,0,1,1.8,1.8v1.4h1.4v-1.4A3.3,3.3,0,0,0,23.9,370.5Z" transform="translate(0 0)" style="fill:#d9d9d9"/><polygon points="38.2 369.9 36.9 368.6 35.3 370.3 33.6 368.6 33.6 368.6 33.6 368.6 33.6 368.6 32.8 367.8 31.8 368.1 31.5 369.1 34 371.6 31.1 374.5 33.6 374.5 35.3 372.9 36.9 374.5 39.5 374.5 36.5 371.6 38.2 369.9" style="fill:#949494"/><path d="M29.8,366.3a3.2,3.2,0,0,0-3.2,3.2v5h1.8V372h1.4v-1.8H28.4v-.7a1.4,1.4,0,0,1,1.4-1.4,1.5,1.5,0,0,1,1.1.4l.2-1,1-.3h0A3,3,0,0,0,29.8,366.3Z" transform="translate(0 0)" style="fill:#949494"/><path d="M28.9,31.8H25.6a3.7,3.7,0,0,1-3.7-3.7V21.9a3.7,3.7,0,0,1,3.7-3.7h2.1v.9H25.6a2.7,2.7,0,0,0-2.7,2.7V28a2.7,2.7,0,0,0,2.7,2.7h3.3Z" transform="translate(0 0)" style="fill:#808c99"/><rect x="33.6" y="30.6" width="1.6" height="1.3" style="fill:#808c99"/><path d="M33.3,32.4H29.1c-.1,0-.2-.1-.2-.3V30.5c0-.1.1-.2.2-.3h4.2a.3.3,0,0,1,.3.3v1.8C33.6,32.3,33.5,32.4,33.3,32.4Z" transform="translate(0 0)" style="fill:#808c99"/><rect x="35.4" y="30.6" width="0.4" height="1.3" style="fill:#808c99"/><polygon points="37.7 30.4 37.3 30.4 36.1 30.6 36.1 32 37.3 32.2 37.7 32.2 38.1 32 38.1 30.6 37.7 30.4" style="fill:#808c99"/><path d="M32.9,24.3H30.8v4.1H28.9V18.1h4c2,0,3.5.9,3.5,3.1S35.1,24.3,32.9,24.3Zm-.1-4.4h-2v2.6h2c1,0,1.7-.2,1.7-1.3S33.7,19.9,32.8,19.9Z" transform="translate(0 0)" style="fill:#808c99"/><rect x="37.7" y="14" width="6.1" height="6.37" rx="1.3" ry="1.3" style="fill:#808c99"/><path d="M42.5,18.7h-.4v1.2h-.9V18.7H38.7v-.8l2.1-3.4h1.1l-2,3.3h1.3V16.3h.9v1.4h.4Z" transform="translate(0 0)" style="fill:#282c30"/></svg>