<svg id="690ab9fb-02b1-4f36-ad30-e2b7172f000e" data-name="svg8" xmlns="http://www.w3.org/2000/svg" xmlns:xlink="http://www.w3.org/1999/xlink" viewBox="0 0 90 380"><defs><linearGradient id="0c58c956-108b-4fd7-a07e-aa7d2f0239c4" x1="1.46" y1="8.02" x2="14.75" y2="8.02" gradientUnits="userSpaceOnUse"><stop offset="0" stop-color="#b5b5b5"/><stop offset="1"/></linearGradient><linearGradient id="c1ddf8c3-33ea-48fb-af24-53409e6151a1" x1="13.63" y1="8.02" x2="2.59" y2="8.02" gradientUnits="userSpaceOnUse"><stop offset="0" stop-color="#bfbfbf"/><stop offset="1" stop-color="#2b2b2b"/></linearGradient><linearGradient id="fd9d2536-df95-4f05-b51a-eeeb30b51241" x1="12.58" y1="8.02" x2="3.64" y2="8.02" gradientUnits="userSpaceOnUse"><stop offset="0" stop-color="#363636"/><stop offset="1"/></linearGradient><linearGradient id="b4a5b526-e5e0-4595-9088-0680bc437c46" x1="4.18" y1="8.02" x2="12.03" y2="8.02" gradientUnits="userSpaceOnUse"><stop offset="0" stop-color="#212121"/><stop offset="1"/></linearGradient><linearGradient id="d563aeb0-4181-497d-83a9-8a73b4671a3c" x1="1.46" y1="370.86" x2="14.75" y2="370.86" xlink:href="#0c58c956-108b-4fd7-a07e-aa7d2f0239c4"/><linearGradient id="6f321342-692b-40b9-9f35-84a607ed387f" x1="13.63" y1="370.86" x2="2.59" y2="370.86" xlink:href="#c1ddf8c3-33ea-48fb-af24-53409e6151a1"/><linearGradient id="39d8b5ca-1cc8-473f-bcf8-94284431c58d" x1="12.58" y1="370.86" x2="3.64" y2="370.86" xlink:href="#fd9d2536-df95-4f05-b51a-eeeb30b51241"/><linearGradient id="7ba317ec-8eb5-4098-a2cc-df7c91abcfb5" x1="4.18" y1="370.86" x2="12.03" y2="370.86" xlink:href="#b4a5b526-e5e0-4595-9088-0680bc437c46"/><linearGradient id="ef2a5461-3bee-4ddb-874f-fc7137808ae9" x1="75.92" y1="8.02" x2="89.22" y2="8.02" xlink:href="#0c58c956-108b-4fd7-a07e-aa7d2f0239c4"/><linearGradient id="7ba9b5b5-8609-4a0b-b42c-2df6f1ab4241" x1="88.09" y1="8.02" x2="77.05" y2="8.02" xlink:href="#c1ddf8c3-33ea-48fb-af24-53409e6151a1"/><linearGradient id="a23b1577-9b95-4220-80e8-f82a7517e048" x1="87.04" y1="8.02" x2="78.1" y2="8.02" xlink:href="#fd9d2536-df95-4f05-b51a-eeeb30b51241"/><linearGradient id="e957585a-ab01-4e55-82f1-885e58fe6669" x1="78.65" y1="8.02" x2="86.49" y2="8.02" xlink:href="#b4a5b526-e5e0-4595-9088-0680bc437c46"/><linearGradient id="630ef84d-e1d0-451e-875c-10c5570ad312" x1="75.92" y1="370.86" x2="89.22" y2="370.86" xlink:href="#0c58c956-108b-4fd7-a07e-aa7d2f0239c4"/><linearGradient id="8f24567e-eb08-4390-aa4b-a53f938b3d9d" x1="88.09" y1="370.86" x2="77.05" y2="370.86" xlink:href="#c1ddf8c3-33ea-48fb-af24-53409e6151a1"/><linearGradient id="be19ea69-deab-448d-9951-f36f4fe9bcdc" x1="87.04" y1="370.86" x2="78.1" y2="370.86" xlink:href="#fd9d2536-df95-4f05-b51a-eeeb30b51241"/><linearGradient id="93b558f3-799c-4032-b935-d4f35d97bd49" x1="78.65" y1="370.86" x2="86.49" y2="370.86" xlink:href="#b4a5b526-e5e0-4595-9088-0680bc437c46"/></defs><title>Plateovnik6-Light</title><path id="3de96229-34f0-46bd-8c72-686d826d1d57" data-name="rect817" d="M0,0H90V380H0Z" transform="translate(0 0)" style="fill:#929596"/><circle cx="8.1" cy="9.1" r="6.6" style="fill:#303030"/><circle cx="8.1" cy="8" r="6.6" style="fill:url(#0c58c956-108b-4fd7-a07e-aa7d2f0239c4)"/><circle cx="8.1" cy="8" r="5.5" style="fill:url(#c1ddf8c3-33ea-48fb-af24-53409e6151a1)"/><polygon points="10.3 4.2 5.9 4.2 3.6 8 5.9 11.9 10.3 11.9 12.6 8 10.3 4.2" style="fill:url(#fd9d2536-df95-4f05-b51a-eeeb30b51241)"/><polygon points="10.1 4.6 6.1 4.6 4.2 8 6.1 11.4 10.1 11.4 12 8 10.1 4.6" style="fill:url(#b4a5b526-e5e0-4595-9088-0680bc437c46)"/><circle cx="8.1" cy="372" r="6.6" style="fill:#303030"/><circle cx="8.1" cy="370.9" r="6.6" style="fill:url(#d563aeb0-4181-497d-83a9-8a73b4671a3c)"/><circle cx="8.1" cy="370.9" r="5.5" style="fill:url(#6f321342-692b-40b9-9f35-84a607ed387f)"/><polygon points="10.3 367 5.9 367 3.6 370.9 5.9 374.7 10.3 374.7 12.6 370.9 10.3 367" style="fill:url(#39d8b5ca-1cc8-473f-bcf8-94284431c58d)"/><polygon points="10.1 367.5 6.1 367.5 4.2 370.9 6.1 374.3 10.1 374.3 12 370.9 10.1 367.5" style="fill:url(#7ba317ec-8eb5-4098-a2cc-df7c91abcfb5)"/><circle cx="82.6" cy="9.1" r="6.6" style="fill:#303030"/><circle cx="82.6" cy="8" r="6.6" style="fill:url(#ef2a5461-3bee-4ddb-874f-fc7137808ae9)"/><circle cx="82.6" cy="8" r="5.5" style="fill:url(#7ba9b5b5-8609-4a0b-b42c-2df6f1ab4241)"/><polygon points="84.8 4.2 80.3 4.2 78.1 8 80.3 11.9 84.8 11.9 87 8 84.8 4.2" style="fill:url(#a23b1577-9b95-4220-80e8-f82a7517e048)"/><polygon points="84.5 4.6 80.6 4.6 78.6 8 80.6 11.4 84.5 11.4 86.5 8 84.5 4.6" style="fill:url(#e957585a-ab01-4e55-82f1-885e58fe6669)"/><circle cx="82.6" cy="372" r="6.6" style="fill:#303030"/><circle cx="82.6" cy="370.9" r="6.6" style="fill:url(#630ef84d-e1d0-451e-875c-10c5570ad312)"/><circle cx="82.6" cy="370.9" r="5.5" style="fill:url(#8f24567e-eb08-4390-aa4b-a53f938b3d9d)"/><polygon points="84.8 367 80.3 367 78.1 370.9 80.3 374.7 84.8 374.7 87 370.9 84.8 367" style="fill:url(#be19ea69-deab-448d-9951-f36f4fe9bcdc)"/><polygon points="84.5 367.5 80.6 367.5 78.6 370.9 80.6 374.3 84.5 374.3 86.5 370.9 84.5 367.5" style="fill:url(#93b558f3-799c-4032-b935-d4f35d97bd49)"/><path d="M36.7,370.5a3,3,0,0,0,1.1-2.4H36.5a1.8,1.8,0,0,1-1.7,1.8h0v-1.8H33.3v6.4h1.5v-3.2h0a1.8,1.8,0,0,1,1.8,1.8v1.4H38v-1.4A3.3,3.3,0,0,0,36.7,370.5Z" transform="translate(0 0)" style="fill:#d9d9d9"/><polygon points="51 369.9 49.7 368.6 48.1 370.3 46.4 368.6 46.4 368.6 46.4 368.6 46.4 368.6 45.6 367.8 44.6 368.1 44.3 369.1 46.8 371.6 43.9 374.5 46.4 374.5 48.1 372.9 49.7 374.5 52.3 374.5 49.3 371.6 51 369.9" style="fill:#575757"/><path d="M42.6,366.3a3.2,3.2,0,0,0-3.2,3.2v5h1.8V372h1.4v-1.8H41.2v-.7a1.4,1.4,0,0,1,1.4-1.4,1.5,1.5,0,0,1,1.1.4l.2-1,1-.3h0A3,3,0,0,0,42.6,366.3Z" transform="translate(0 0)" style="fill:#575757"/><path d="M41.7,31.8H38.4a3.7,3.7,0,0,1-3.7-3.7V21.9a3.7,3.7,0,0,1,3.7-3.7h2.1v.9H38.4a2.7,2.7,0,0,0-2.7,2.7V28a2.7,2.7,0,0,0,2.7,2.7h3.3Z" transform="translate(0 0)" style="fill:#282c30"/><rect x="46.4" y="30.6" width="1.6" height="1.3" style="fill:#282c30"/><path d="M46.1,32.4H41.9c-.1,0-.2-.1-.2-.3V30.5c0-.1.1-.2.2-.3h4.2a.3.3,0,0,1,.3.3v1.8C46.4,32.3,46.3,32.4,46.1,32.4Z" transform="translate(0 0)" style="fill:#282c30"/><rect x="48.2" y="30.6" width="0.4" height="1.3" style="fill:#282c30"/><polygon points="50.5 30.4 50.1 30.4 48.9 30.6 48.9 32 50.1 32.2 50.5 32.2 50.9 32 50.9 30.6 50.5 30.4" style="fill:#282c30"/><path d="M45.7,24.3H43.6v4.1H41.7V18.1h4c2,0,3.5.9,3.5,3.1S47.8,24.3,45.7,24.3Zm-.1-4.4h-2v2.6h2c1,0,1.7-.2,1.7-1.3S46.5,19.9,45.6,19.9Z" transform="translate(0 0)" style="fill:#282c30"/><rect x="50.5" y="14" width="6.1" height="6.37" rx="1.3" ry="1.3" style="fill:#282c30"/><path d="M53.5,19.9a1.8,1.8,0,0,1-1.8-2,4.4,4.4,0,0,1,1.6-3.4h1.2a5,5,0,0,0-1.7,2.1,1,1,0,0,1,.8-.3,1.6,1.6,0,0,1,1.6,1.8A1.6,1.6,0,0,1,53.5,19.9Zm-.1-2.7c-.4,0-.7.5-.7.9a.8.8,0,0,0,.8.9.9.9,0,0,0,.8-.9A.9.9,0,0,0,53.4,17.2Z" transform="translate(0 0)" style="fill:#929596"/></svg>