<svg id="1c10f728-2380-49a1-95f3-3454d0cc46dc" data-name="svg8" xmlns="http://www.w3.org/2000/svg" xmlns:xlink="http://www.w3.org/1999/xlink" viewBox="0 0 90 380"><defs><linearGradient id="f8c37303-88d2-4155-8238-e72165b64092" x1="1.46" y1="8.02" x2="14.75" y2="8.02" gradientUnits="userSpaceOnUse"><stop offset="0" stop-color="#b5b5b5"/><stop offset="1"/></linearGradient><linearGradient id="8c2b959f-7271-465d-9963-78250bda0921" x1="13.63" y1="8.02" x2="2.59" y2="8.02" gradientUnits="userSpaceOnUse"><stop offset="0" stop-color="#bfbfbf"/><stop offset="1" stop-color="#2b2b2b"/></linearGradient><linearGradient id="60f35281-f08e-4b7b-a0e5-57c51977a12f" x1="12.58" y1="8.02" x2="3.64" y2="8.02" gradientUnits="userSpaceOnUse"><stop offset="0" stop-color="#363636"/><stop offset="1"/></linearGradient><linearGradient id="e7ca6718-c2a2-440a-b281-9f7cb0212bfc" x1="4.18" y1="8.02" x2="12.03" y2="8.02" gradientUnits="userSpaceOnUse"><stop offset="0" stop-color="#212121"/><stop offset="1"/></linearGradient><linearGradient id="20705834-e51e-4028-97ef-ec7fe6cb126e" x1="1.46" y1="370.86" x2="14.75" y2="370.86" xlink:href="#f8c37303-88d2-4155-8238-e72165b64092"/><linearGradient id="d4817cff-612f-459a-9974-7dd62b35b445" x1="13.63" y1="370.86" x2="2.59" y2="370.86" xlink:href="#8c2b959f-7271-465d-9963-78250bda0921"/><linearGradient id="1f785924-06b2-4d82-b0ff-f23d88676bf2" x1="12.58" y1="370.86" x2="3.64" y2="370.86" xlink:href="#60f35281-f08e-4b7b-a0e5-57c51977a12f"/><linearGradient id="e3df7aa4-1134-4024-b604-90fe1d69f030" x1="4.18" y1="370.86" x2="12.03" y2="370.86" xlink:href="#e7ca6718-c2a2-440a-b281-9f7cb0212bfc"/><linearGradient id="abf20f5a-822b-4baa-9e5d-635dcf71525d" x1="75.92" y1="8.02" x2="89.22" y2="8.02" xlink:href="#f8c37303-88d2-4155-8238-e72165b64092"/><linearGradient id="8447de6c-79c6-4d2a-a1a9-05287e29fcb7" x1="88.09" y1="8.02" x2="77.05" y2="8.02" xlink:href="#8c2b959f-7271-465d-9963-78250bda0921"/><linearGradient id="cf65ad0e-b718-43a4-824a-1454a7fcb71f" x1="87.04" y1="8.02" x2="78.1" y2="8.02" xlink:href="#60f35281-f08e-4b7b-a0e5-57c51977a12f"/><linearGradient id="3c487b23-24ad-4bee-b9bd-c4b44ad6aec8" x1="78.65" y1="8.02" x2="86.49" y2="8.02" xlink:href="#e7ca6718-c2a2-440a-b281-9f7cb0212bfc"/><linearGradient id="3ab0f669-23a5-48ae-aea4-20cbe5d126ff" x1="75.92" y1="370.86" x2="89.22" y2="370.86" xlink:href="#f8c37303-88d2-4155-8238-e72165b64092"/><linearGradient id="0cbbd698-7379-4570-ab92-9c96174e2fe2" x1="88.09" y1="370.86" x2="77.05" y2="370.86" xlink:href="#8c2b959f-7271-465d-9963-78250bda0921"/><linearGradient id="4928b161-c10b-44df-a242-bc2769412278" x1="87.04" y1="370.86" x2="78.1" y2="370.86" xlink:href="#60f35281-f08e-4b7b-a0e5-57c51977a12f"/><linearGradient id="63239a64-c61c-4b40-b4f1-857077117ffd" x1="78.65" y1="370.86" x2="86.49" y2="370.86" xlink:href="#e7ca6718-c2a2-440a-b281-9f7cb0212bfc"/></defs><title>Plateovnik6-Dark</title><path id="c024719d-1c4f-4c4a-a1f9-57d62a5240d8" data-name="rect817" d="M0,0H90V380H0Z" transform="translate(0 0)" style="fill:#282c30"/><circle cx="8.1" cy="9.1" r="6.6" style="fill:#303030"/><circle cx="8.1" cy="8" r="6.6" style="fill:url(#f8c37303-88d2-4155-8238-e72165b64092)"/><circle cx="8.1" cy="8" r="5.5" style="fill:url(#8c2b959f-7271-465d-9963-78250bda0921)"/><polygon points="10.3 4.2 5.9 4.2 3.6 8 5.9 11.9 10.3 11.9 12.6 8 10.3 4.2" style="fill:url(#60f35281-f08e-4b7b-a0e5-57c51977a12f)"/><polygon points="10.1 4.6 6.1 4.6 4.2 8 6.1 11.4 10.1 11.4 12 8 10.1 4.6" style="fill:url(#e7ca6718-c2a2-440a-b281-9f7cb0212bfc)"/><circle cx="8.1" cy="372" r="6.6" style="fill:#303030"/><circle cx="8.1" cy="370.9" r="6.6" style="fill:url(#20705834-e51e-4028-97ef-ec7fe6cb126e)"/><circle cx="8.1" cy="370.9" r="5.5" style="fill:url(#d4817cff-612f-459a-9974-7dd62b35b445)"/><polygon points="10.3 367 5.9 367 3.6 370.9 5.9 374.7 10.3 374.7 12.6 370.9 10.3 367" style="fill:url(#1f785924-06b2-4d82-b0ff-f23d88676bf2)"/><polygon points="10.1 367.5 6.1 367.5 4.2 370.9 6.1 374.3 10.1 374.3 12 370.9 10.1 367.5" style="fill:url(#e3df7aa4-1134-4024-b604-90fe1d69f030)"/><circle cx="82.6" cy="9.1" r="6.6" style="fill:#303030"/><circle cx="82.6" cy="8" r="6.6" style="fill:url(#abf20f5a-822b-4baa-9e5d-635dcf71525d)"/><circle cx="82.6" cy="8" r="5.5" style="fill:url(#8447de6c-79c6-4d2a-a1a9-05287e29fcb7)"/><polygon points="84.8 4.2 80.3 4.2 78.1 8 80.3 11.9 84.8 11.9 87 8 84.8 4.2" style="fill:url(#cf65ad0e-b718-43a4-824a-1454a7fcb71f)"/><polygon points="84.5 4.6 80.6 4.6 78.6 8 80.6 11.4 84.5 11.4 86.5 8 84.5 4.6" style="fill:url(#3c487b23-24ad-4bee-b9bd-c4b44ad6aec8)"/><circle cx="82.6" cy="372" r="6.6" style="fill:#303030"/><circle cx="82.6" cy="370.9" r="6.6" style="fill:url(#3ab0f669-23a5-48ae-aea4-20cbe5d126ff)"/><circle cx="82.6" cy="370.9" r="5.5" style="fill:url(#0cbbd698-7379-4570-ab92-9c96174e2fe2)"/><polygon points="84.8 367 80.3 367 78.1 370.9 80.3 374.7 84.8 374.7 87 370.9 84.8 367" style="fill:url(#4928b161-c10b-44df-a242-bc2769412278)"/><polygon points="84.5 367.5 80.6 367.5 78.6 370.9 80.6 374.3 84.5 374.3 86.5 370.9 84.5 367.5" style="fill:url(#63239a64-c61c-4b40-b4f1-857077117ffd)"/><path d="M36.7,370.5a3,3,0,0,0,1.1-2.4H36.5a1.8,1.8,0,0,1-1.7,1.8h0v-1.8H33.3v6.4h1.5v-3.2h0a1.8,1.8,0,0,1,1.8,1.8v1.4H38v-1.4A3.3,3.3,0,0,0,36.7,370.5Z" transform="translate(0 0)" style="fill:#d9d9d9"/><polygon points="51 369.9 49.7 368.6 48.1 370.3 46.4 368.6 46.4 368.6 46.4 368.6 46.4 368.6 45.6 367.8 44.6 368.1 44.3 369.1 46.8 371.6 43.9 374.5 46.4 374.5 48.1 372.9 49.7 374.5 52.3 374.5 49.3 371.6 51 369.9" style="fill:#949494"/><path d="M42.6,366.3a3.2,3.2,0,0,0-3.2,3.2v5h1.8V372h1.4v-1.8H41.2v-.7a1.4,1.4,0,0,1,1.4-1.4,1.5,1.5,0,0,1,1.1.4l.2-1,1-.3h0A3,3,0,0,0,42.6,366.3Z" transform="translate(0 0)" style="fill:#949494"/><path d="M41.7,31.8H38.4a3.7,3.7,0,0,1-3.7-3.7V21.9a3.7,3.7,0,0,1,3.7-3.7h2.1v.9H38.4a2.7,2.7,0,0,0-2.7,2.7V28a2.7,2.7,0,0,0,2.7,2.7h3.3Z" transform="translate(0 0)" style="fill:#808c99"/><rect x="46.4" y="30.6" width="1.6" height="1.3" style="fill:#808c99"/><path d="M46.1,32.4H41.9c-.1,0-.2-.1-.2-.3V30.5c0-.1.1-.2.2-.3h4.2a.3.3,0,0,1,.3.3v1.8C46.4,32.3,46.3,32.4,46.1,32.4Z" transform="translate(0 0)" style="fill:#808c99"/><rect x="48.2" y="30.6" width="0.4" height="1.3" style="fill:#808c99"/><polygon points="50.5 30.4 50.1 30.4 48.9 30.6 48.9 32 50.1 32.2 50.5 32.2 50.9 32 50.9 30.6 50.5 30.4" style="fill:#808c99"/><path d="M45.7,24.3H43.6v4.1H41.7V18.1h4c2,0,3.5.9,3.5,3.1S47.8,24.3,45.7,24.3Zm-.1-4.4h-2v2.6h2c1,0,1.7-.2,1.7-1.3S46.5,19.9,45.6,19.9Z" transform="translate(0 0)" style="fill:#808c99"/><rect x="50.5" y="14" width="6.1" height="6.37" rx="1.3" ry="1.3" style="fill:#808c99"/><path d="M53.5,19.9a1.8,1.8,0,0,1-1.8-2,4.4,4.4,0,0,1,1.6-3.4h1.2a5,5,0,0,0-1.7,2.1,1,1,0,0,1,.8-.3,1.6,1.6,0,0,1,1.6,1.8A1.6,1.6,0,0,1,53.5,19.9Zm-.1-2.7c-.4,0-.7.5-.7.9a.8.8,0,0,0,.8.9.9.9,0,0,0,.8-.9A.9.9,0,0,0,53.4,17.2Z" transform="translate(0 0)" style="fill:#282c30"/></svg>