<?xml version="1.0" encoding="utf-8"?>
<!-- Generator: Adobe Illustrator 22.1.0, SVG Export Plug-In . SVG Version: 6.00 Build 0)  -->
<svg version="1.1"
	 id="svg8" inkscape:version="0.92.2 5c3e80d, 2017-08-06" sodipodi:docname="MyModule.svg" xmlns:cc="http://creativecommons.org/ns#" xmlns:dc="http://purl.org/dc/elements/1.1/" xmlns:inkscape="http://www.inkscape.org/namespaces/inkscape" xmlns:rdf="http://www.w3.org/1999/02/22-rdf-syntax-ns#" xmlns:sodipodi="http://sodipodi.sourceforge.net/DTD/sodipodi-0.dtd" xmlns:svg="http://www.w3.org/2000/svg"
	 xmlns="http://www.w3.org/2000/svg" xmlns:xlink="http://www.w3.org/1999/xlink" x="0px" y="0px" viewBox="0 0 90 380"
	 enable-background="new 0 0 90 380" xml:space="preserve">
<sodipodi:namedview  bordercolor="#666666" borderopacity="1.0" id="base" inkscape:bbox-nodes="true" inkscape:current-layer="layer1" inkscape:cx="188.48062" inkscape:cy="170.63765" inkscape:document-units="mm" inkscape:pageopacity="0.0" inkscape:pageshadow="2" inkscape:snap-bbox="true" inkscape:snap-bbox-edge-midpoints="true" inkscape:snap-page="true" inkscape:window-height="900" inkscape:window-maximized="0" inkscape:window-width="1600" inkscape:window-x="0" inkscape:window-y="0" inkscape:zoom="1.4" pagecolor="#ffffff" showgrid="false" units="px">
	</sodipodi:namedview>
<path id="rect817" inkscape:connector-curvature="0" fill="#B9BCBE" d="M0,0h90v380H0V0z"/>
<path fill="#F5F8FA" d="M75.8,342.9H14.2c-5.2,0-9.3-4.2-9.3-9.3v-91.8c0-5.2,4.2-9.3,9.3-9.3h61.7c5.2,0,9.3,4.2,9.3,9.3v91.8
	C85.2,338.7,81,342.9,75.8,342.9z"/>
<g>
	<g>
		<path fill="#FFFFFF" d="M29.3,97.5c-2.3,0-3.1-1.9-3.1-3.9c0-2,0.9-3.9,3.1-3.9s3.1,1.9,3.1,3.9C32.4,95.6,31.5,97.5,29.3,97.5z
			 M29.3,91.1c-1.5,0-1.8,1.3-1.8,2.5s0.3,2.5,1.8,2.5s1.8-1.3,1.8-2.5S30.8,91.1,29.3,91.1z"/>
		<path fill="#FFFFFF" d="M39.2,96.1c-0.8,1-1.4,1.4-2.6,1.4c-2.2,0-3.2-1.9-3.2-3.9c0-2,1-3.9,3.2-3.9c1.2,0,1.9,0.4,2.6,1.3
			l-1,0.9c-0.5-0.5-0.9-0.9-1.6-0.9c-1.4,0-1.9,1.4-1.9,2.5c0,1.2,0.4,2.5,1.9,2.5c0.8,0,1.2-0.4,1.7-0.9L39.2,96.1z"/>
		<path fill="#FFFFFF" d="M45.5,91.2h-2.2v6.2H42v-6.2h-2.2v-1.3h5.7V91.2z"/>
		<path fill="#FFFFFF" d="M52.1,97.4h-1.5l-0.7-2h-2.7l-0.7,2H45l2.9-7.6h1.2L52.1,97.4z M49.4,94.2l-0.9-2.4l-0.9,2.4H49.4z"/>
		<path fill="#FFFFFF" d="M57.8,89.8l-2.6,7.6h-1.3l-2.5-7.6h1.4l1.8,5.5l1.8-5.5H57.8z"/>
		<path fill="#FFFFFF" d="M63.8,97.4h-5.1v-7.6h5.1v1.3H60v1.7h3.3v1.3H60v1.9h3.8V97.4z"/>
	</g>
</g>
<g>
	<g>
		<path fill="#FFFFFF" d="M31.1,163.3c-0.8,1-1.4,1.4-2.6,1.4c-2.2,0-3.2-1.9-3.2-3.9c0-2,1-3.9,3.2-3.9c1.2,0,1.9,0.4,2.6,1.3
			l-1,0.9c-0.5-0.5-0.9-0.9-1.6-0.9c-1.4,0-1.9,1.4-1.9,2.5c0,1.2,0.4,2.5,1.9,2.5c0.8,0,1.2-0.4,1.7-0.9L31.1,163.3z"/>
		<path fill="#FFFFFF" d="M34.8,164.7c-2.3,0-3.1-1.9-3.1-3.9c0-2,0.9-3.9,3.1-3.9s3.1,1.9,3.1,3.9C38,162.8,37.1,164.7,34.8,164.7z
			 M34.8,158.3c-1.5,0-1.8,1.3-1.8,2.5s0.3,2.5,1.8,2.5s1.8-1.3,1.8-2.5S36.3,158.3,34.8,158.3z"/>
		<path fill="#FFFFFF" d="M45.3,164.6h-1.5l-0.7-2h-2.7l-0.7,2h-1.5l2.9-7.6h1.2L45.3,164.6z M42.7,161.4l-0.9-2.4l-0.9,2.4H42.7z"
			/>
		<path fill="#FFFFFF" d="M49.9,161.3c0.1,0.1,0.3,0.3,0.4,0.5l1.8,2.8h-1.6l-1.5-2.6c-0.2-0.4-0.4-0.6-0.8-0.6h-0.5v3.1h-1.4V157
			h2.7c1.5,0,2.6,0.7,2.6,2.3C51.5,160.2,50.9,161,49.9,161.3z M48.9,158.3h-1.4v1.9h1.4c0.7,0,1.2-0.2,1.2-1
			C50.1,158.5,49.5,158.3,48.9,158.3z"/>
		<path fill="#FFFFFF" d="M55.5,164.7c-1.6,0-2.7-0.7-3-2.2l1.3-0.2c0.2,0.8,0.9,1.2,1.7,1.2c0.6,0,1.4-0.3,1.4-1.1
			c0-1.6-4.2-0.5-4.2-3.3c0-1.4,1.3-2.1,2.6-2.1c1.3,0,2.2,0.5,2.8,1.7l-1.2,0.5c-0.4-0.7-0.8-1-1.6-1c-0.5,0-1.2,0.2-1.2,0.9
			c0,1.3,4.2,0.5,4.2,3.3C58.3,163.8,56.9,164.7,55.5,164.7z"/>
		<path fill="#FFFFFF" d="M64.6,164.6h-5.1V157h5.1v1.3h-3.8v1.7h3.3v1.3h-3.3v1.9h3.8V164.6z"/>
	</g>
</g>
<g>
	<g>
		<path fill="#FFFFFF" d="M23.2,114.3c-0.8,1-1.4,1.4-2.6,1.4c-2.2,0-3.2-1.9-3.2-3.9c0-2,1-3.9,3.2-3.9c1.2,0,1.9,0.4,2.6,1.3
			l-1,0.9c-0.5-0.5-0.9-0.9-1.6-0.9c-1.4,0-1.9,1.4-1.9,2.5c0,1.2,0.4,2.5,1.9,2.5c0.8,0,1.2-0.4,1.7-0.9L23.2,114.3z"/>
		<path fill="#FFFFFF" d="M29.9,108l-2.6,7.6H26l-2.5-7.6h1.4l1.8,5.5l1.8-5.5H29.9z"/>
	</g>
</g>
<g>
	<g>
		<path fill="#FFFFFF" d="M72.5,80.7h-1.8v1.8h-1.2v-1.8h-1.8v-1.2h1.8v-1.8h1.2v1.8h1.8V80.7z"/>
		<path fill="#FFFFFF" d="M78.7,81.4h-0.6v1.7h-1.3v-1.7h-3.4v-1.1l2.9-4.8h1.4L75,80.1h1.8V78l1.3,0.2v2h0.6V81.4z"/>
	</g>
</g>
<g>
	<g>
		<path fill="#FFFFFF" d="M45.2,40.4c-2.1,0-2.8-2.1-2.8-3.9c0-1.7,0.7-3.9,2.8-3.9c2.1,0,2.7,2.1,2.7,3.9S47.3,40.4,45.2,40.4z
			 M45.2,33.9c-1.2,0-1.4,1.7-1.4,2.6c0,0.9,0.2,2.6,1.4,2.6c1.2,0,1.4-1.7,1.4-2.6C46.6,35.6,46.4,33.9,45.2,33.9z"/>
	</g>
</g>
<g>
	<path fill="#FFFFFF" d="M15.4,80.6h-3.2v-1h3.2V80.6z"/>
	<path fill="#FFFFFF" d="M21.6,81.4H21v1.7h-1.3v-1.7h-3.4v-1.1l2.9-4.8h1.4L18,80.1h1.8V78l1.3,0.2v2h0.6V81.4z"/>
</g>
<path d="M75.1,323.9H53.9c-2,0-3.7-1.7-3.7-3.7v-34.2c0-2,1.7-3.7,3.7-3.7h21.3c2,0,3.7,1.7,3.7,3.7v34.2
	C78.8,322.3,77.2,323.9,75.1,323.9z"/>
<g>
	<path fill="#B2BBC4" d="M62.4,245c0,1.9-0.8,3.2-2.9,3.2s-2.9-1.3-2.9-3.2v-4.4H58v4.4c0,1.1,0.2,2,1.5,2c1.3,0,1.5-0.9,1.5-2v-4.4
		h1.4V245z"/>
	<path fill="#B2BBC4" d="M69.3,248.1h-1.1l-3-4.7v4.7h-1.4v-7.6h1.1l3,4.7v-4.7h1.4V248.1z"/>
	<path fill="#B2BBC4" d="M72.2,248.1h-1.4v-7.6h1.4V248.1z"/>
</g>
<g>
	<path d="M30.8,337.2h-1.3v-5.9l-1,0.6l-0.6-1l2-1.3h1V337.2z"/>
	<path d="M38.5,329.6l-2.6,7.6h-1.3l-2.5-7.6h1.4l1.8,5.5l1.8-5.5H38.5z"/>
	<path d="M42.8,328.8l-3.5,9.2H38l3.5-9.2H42.8z"/>
	<path d="M45.8,337.3c-2.3,0-3.1-1.9-3.1-3.9s0.9-3.9,3.1-3.9s3.1,1.9,3.1,3.9C49,335.4,48.1,337.3,45.8,337.3z M45.8,330.9
		c-1.5,0-1.8,1.3-1.8,2.5s0.3,2.5,1.8,2.5s1.8-1.3,1.8-2.5S47.3,330.9,45.8,330.9z"/>
	<path d="M55.7,335.9c-0.8,1-1.4,1.4-2.6,1.4c-2.2,0-3.2-1.9-3.2-3.9c0-2,1-3.9,3.2-3.9c1.2,0,1.9,0.4,2.6,1.3l-1,0.9
		c-0.5-0.5-0.9-0.9-1.6-0.9c-1.4,0-1.9,1.4-1.9,2.5s0.4,2.5,1.9,2.5c0.8,0,1.2-0.4,1.7-0.9L55.7,335.9z"/>
	<path d="M62.1,331h-2.2v6.2h-1.4V331h-2.2v-1.3h5.7V331z"/>
</g>
<g>
	<path fill="#B2BBC4" d="M23.3,245c0,1.9-0.8,3.2-2.9,3.2s-2.9-1.3-2.9-3.2v-4.4h1.4v4.4c0,1.1,0.2,2,1.5,2c1.3,0,1.5-0.9,1.5-2
		v-4.4h1.4V245z"/>
	<path fill="#B2BBC4" d="M30.2,248.1h-1.1l-3-4.7v4.7h-1.4v-7.6h1.1l3,4.7v-4.7h1.4V248.1z"/>
	<path fill="#B2BBC4" d="M33.1,248.1h-1.4v-7.6h1.4V248.1z"/>
</g>
<g>
	<path fill="#FFFFFF" d="M59.2,292.8c-1.7,0-2.3-1.4-2.3-2.9c0-1.5,0.6-2.9,2.3-2.9c1.7,0,2.3,1.4,2.3,2.9
		C61.5,291.5,60.8,292.8,59.2,292.8z M59.2,288.1c-1.1,0-1.3,1-1.3,1.9c0,0.9,0.2,1.9,1.3,1.9s1.3-1,1.3-1.9
		C60.5,289.1,60.3,288.1,59.2,288.1z"/>
	<path fill="#FFFFFF" d="M66.5,290.5c0,1.4-0.6,2.4-2.1,2.4s-2.1-1-2.1-2.4v-3.3h1v3.2c0,0.8,0.2,1.5,1.1,1.5c1,0,1.1-0.7,1.1-1.5
		v-3.2h1V290.5z"/>
	<path fill="#FFFFFF" d="M71.5,288.2h-1.6v4.6h-1v-4.6h-1.6v-1h4.2V288.2z"/>
</g>
<g>
	<path d="M23.1,292.8h-1v-5.6h1V292.8z"/>
	<path d="M28.3,292.8h-0.8l-2.2-3.5v3.5h-1v-5.6h0.8l2.2,3.5v-3.5h1V292.8z"/>
</g>
<rect x="6" y="180.9" fill="#F7F7F7" stroke="#B9BCBE" stroke-miterlimit="10" width="11.1" height="36.4"/>
<rect x="17.1" y="180.9" fill="#F7F7F7" stroke="#B9BCBE" stroke-miterlimit="10" width="11.1" height="36.4"/>
<rect x="28.3" y="180.9" fill="#F7F7F7" stroke="#B9BCBE" stroke-miterlimit="10" width="11.1" height="36.4"/>
<rect x="39.4" y="180.9" fill="#F7F7F7" stroke="#B9BCBE" stroke-miterlimit="10" width="11.1" height="36.4"/>
<rect x="50.6" y="180.9" fill="#F7F7F7" stroke="#B9BCBE" stroke-miterlimit="10" width="11.1" height="36.4"/>
<rect x="61.7" y="180.9" fill="#F7F7F7" stroke="#B9BCBE" stroke-miterlimit="10" width="11.1" height="36.4"/>
<rect x="72.9" y="180.9" fill="#F7F7F7" stroke="#B9BCBE" stroke-miterlimit="10" width="11.1" height="36.4"/>
<rect x="11.6" y="180.9" fill="#333638" stroke="#B9BCBE" stroke-miterlimit="10" width="11.1" height="18.2"/>
<rect x="22.7" y="180.9" fill="#333638" stroke="#B9BCBE" stroke-miterlimit="10" width="11.1" height="18.2"/>
<rect x="45" y="180.9" fill="#333638" stroke="#B9BCBE" stroke-miterlimit="10" width="11.1" height="18.2"/>
<rect x="56.1" y="180.9" fill="#333638" stroke="#B9BCBE" stroke-miterlimit="10" width="11.1" height="18.2"/>
<rect x="67.3" y="180.9" fill="#333638" stroke="#B9BCBE" stroke-miterlimit="10" width="11.1" height="18.2"/>
<path fill="#D5FF00" d="M34.4,82.1L45,63.7l0,0l10.6,18.4c6.3-3.7,10.6-10.5,10.6-18.4c0-11.7-9.5-21.2-21.2-21.2S23.8,52,23.8,63.7
	C23.8,71.6,28,78.4,34.4,82.1z"/>
<g>
	<line fill="#B9BCBE" stroke="#B9BCBE" stroke-width="2" stroke-miterlimit="10" x1="45" y1="63.7" x2="55.8" y2="82.5"/>
	<line fill="#B9BCBE" stroke="#B9BCBE" stroke-width="2" stroke-miterlimit="10" x1="45" y1="63.7" x2="64.4" y2="73.5"/>
	<line fill="#B9BCBE" stroke="#B9BCBE" stroke-width="2" stroke-miterlimit="10" x1="45" y1="63.7" x2="66.5" y2="61.2"/>
	<line fill="#B9BCBE" stroke="#B9BCBE" stroke-width="2" stroke-miterlimit="10" x1="45" y1="63.9" x2="61.7" y2="49.9"/>
	<line fill="#B9BCBE" stroke="#B9BCBE" stroke-width="2" stroke-miterlimit="10" x1="45" y1="63.7" x2="51.2" y2="43"/>
	<line fill="#B9BCBE" stroke="#B9BCBE" stroke-width="2" stroke-miterlimit="10" x1="45" y1="63.7" x2="38.8" y2="43"/>
	<line fill="#B9BCBE" stroke="#B9BCBE" stroke-width="2" stroke-miterlimit="10" x1="45" y1="63.9" x2="28.3" y2="49.9"/>
	<line fill="#B9BCBE" stroke="#B9BCBE" stroke-width="2" stroke-miterlimit="10" x1="45" y1="63.7" x2="23.5" y2="61.2"/>
	<line fill="#B9BCBE" stroke="#B9BCBE" stroke-width="2" stroke-miterlimit="10" x1="45" y1="63.7" x2="25.6" y2="73.5"/>
	<line fill="#B9BCBE" stroke="#B9BCBE" stroke-width="2" stroke-miterlimit="10" x1="45.1" y1="63.7" x2="34.2" y2="82.5"/>
</g>
<path fill="none" stroke="#B9BCBE" stroke-width="2" stroke-miterlimit="10" d="M79.1,218.1H10.9c-3,0-5.5-2.5-5.5-5.5v-26.2
	c0-3,2.5-5.5,5.5-5.5h68.3c3,0,5.5,2.5,5.5,5.5v26.2C84.6,215.6,82.2,218.1,79.1,218.1z"/>
<rect x="21.3" y="133.3" fill="#B2BBC4" width="45.5" height="1"/>
<g>
	<path fill="#D5FF00" d="M67,109.9v25l9.1,15.8c6.8-3.7,11.4-10.8,11.4-19.1C87.5,120,78.4,110.5,67,109.9z"/>
	<path fill="#D5FF00" d="M64.5,109.9c-11.4,0.7-20.5,10.1-20.5,21.6c0,8.2,4.6,15.4,11.4,19.1l9.1-15.8V109.9z"/>
</g>
<rect x="64.5" y="109.9" fill="#97B500" width="2.5" height="25"/>
<path fill="#D5FF00" d="M21.8,27.1l1.3,1.7H21l-0.4-0.5c-0.6,0.4-1.4,0.6-2.1,0.6c-2.9,0-4.1-2.5-4.1-5.1c0-2.7,1.2-5.1,4.1-5.1
	c3,0,4.1,2.5,4.1,5.1C22.6,24.9,22.5,26.1,21.8,27.1z M18.5,20.4c-2,0-2.4,1.7-2.4,3.3c0,1.5,0.5,3.3,2.3,3.3c0.3,0,0.5-0.1,0.7-0.2
	c-0.3-0.2-0.5-0.4-0.9-0.4V25c0.9,0.1,1.4,0.3,2.2,0.8c0.3-0.6,0.3-1.3,0.3-2C20.8,22.2,20.4,20.4,18.5,20.4z"/>
<path fill="#FFFFFF" d="M29.9,28.7h-1.4l-0.1-0.4c-0.4,0.4-0.9,0.5-1.4,0.5c-2,0-2.9-1.2-2.9-3.1v-4.1h1.7v4c0,0.9,0.2,1.5,1.3,1.5
	c0.6,0,1.1-0.4,1.1-1.1v-4.4h1.7V28.7z"/>
<path fill="#FFFFFF" d="M37.3,28.5l-1.5,0.4l-0.2-0.5c-0.5,0.4-1.1,0.6-1.7,0.6c-1.4,0-2.6-0.8-2.6-2.3c0-1.3,0.8-2.1,2.5-2.2
	c0.4,0,1.1,0,1.1,0c0.2,0,0.4-0.1,0.4-0.2v-0.3c0-0.5-0.5-0.8-1-0.8c-0.6,0-1.1,0.2-1.3,0.7l-1.5-0.5c0.4-1.2,1.5-1.8,2.8-1.8
	c1.3,0,2.6,0.8,2.6,2.2v3.7L37.3,28.5z M35.4,25.5c-0.2,0.1-0.3,0.1-0.5,0.1h-0.9c-0.6,0-1.1,0.3-1.1,1c0,0.6,0.6,0.8,1.1,0.8
	c0.5,0,1-0.2,1.4-0.5V25.5z"/>
<path fill="#FFFFFF" d="M44.7,28.7h-1.7v-3.9c0-0.9-0.2-1.6-1.2-1.6c-0.7,0-1.2,0.5-1.2,1.2v4.4h-1.7v-7.1h1.4l0.1,0.4
	c0.4-0.4,1-0.6,1.5-0.6c2.1,0,2.9,1.3,2.9,3.2V28.7z"/>
<path fill="#FFFFFF" d="M49.4,23.1h-1v3.5c0,0.4,0.2,0.6,0.7,0.6v1.5h-0.7c-1.2,0-1.7-0.9-1.7-1.9v-3.7H46v-1.5h0.8v-1.9h1.7v1.9h1
	V23.1z"/>
<path fill="#FFFFFF" d="M53.8,28.9c-2.3,0-3.2-1.6-3.2-3.7c0-2.1,0.9-3.7,3.2-3.7s3.2,1.6,3.2,3.7C56.9,27.3,56,28.9,53.8,28.9z
	 M53.8,23.2c-1.2,0-1.4,1-1.4,2c0,1,0.2,2,1.4,2c1.2,0,1.4-1,1.4-2C55.2,24.2,55,23.2,53.8,23.2z"/>
<path fill="#FFFFFF" d="M64.2,21.7l-2.7,7.1h-1.4l-2.7-7.1h1.8l1.5,4.6l1.6-4.6H64.2z"/>
<path fill="#FFFFFF" d="M71.2,28.7h-1.7v-3.9c0-0.9-0.2-1.6-1.2-1.6c-0.7,0-1.2,0.5-1.2,1.2v4.4h-1.7v-7.1h1.4l0.1,0.4
	c0.4-0.4,1-0.6,1.5-0.6c2.1,0,2.9,1.3,2.9,3.2V28.7z"/>
<path fill="#FFFFFF" d="M73.9,20.4c-0.5,0-1-0.5-1-1s0.5-1,1-1c0.6,0,1,0.4,1,1S74.4,20.4,73.9,20.4z M74.7,28.7H73v-7.1h1.7V28.7z"
	/>
<path fill="#FFFFFF" d="M78.2,28.7h-1.7v-10h1.7V28.7z M82.6,28.7h-1.9l-2.4-3.9l2-3.2h1.8l-2.1,3.2L82.6,28.7z"/>
<g>
	<g>
		<path fill="#D5FF00" d="M14.4,32.1h-3.3c-2,0-3.7-1.6-3.7-3.7v-6.2c0-2,1.6-3.7,3.7-3.7h2.1v0.9h-2.1c-1.5,0-2.7,1.2-2.7,2.7v6.2
			c0,1.5,1.2,2.7,2.7,2.7h3.3V32.1z"/>
	</g>
	<rect x="19.1" y="30.9" fill="#D5FF00" width="1.6" height="1.3"/>
	<path fill="#D5FF00" d="M18.8,32.7l-4.2-0.1c-0.1,0-0.2-0.1-0.2-0.3v-1.5c0-0.1,0.1-0.2,0.2-0.3l4.2-0.1c0.1,0,0.3,0.1,0.3,0.3v1.8
		C19.1,32.6,19,32.7,18.8,32.7z"/>
	<rect x="20.9" y="30.9" fill="#D5FF00" width="0.4" height="1.3"/>
	<g>
		<polygon fill="#D5FF00" points="23.2,30.7 22.8,30.7 21.6,30.9 21.6,32.3 22.8,32.5 23.2,32.5 23.6,32.3 23.6,30.9 		"/>
	</g>
</g>
<g>
	<circle fill="#303030" cx="8.1" cy="9.2" r="6.6"/>
	<linearGradient id="SVGID_1_" gradientUnits="userSpaceOnUse" x1="1.4597" y1="8.0647" x2="14.7547" y2="8.0647">
		<stop  offset="0" style="stop-color:#B5B5B5"/>
		<stop  offset="1" style="stop-color:#000000"/>
	</linearGradient>
	<circle fill="url(#SVGID_1_)" cx="8.1" cy="8.1" r="6.6"/>
	<linearGradient id="SVGID_2_" gradientUnits="userSpaceOnUse" x1="13.629" y1="8.0647" x2="2.5854" y2="8.0647">
		<stop  offset="0" style="stop-color:#BFBFBF"/>
		<stop  offset="1" style="stop-color:#2B2B2B"/>
	</linearGradient>
	<circle fill="url(#SVGID_2_)" cx="8.1" cy="8.1" r="5.5"/>
	<linearGradient id="SVGID_3_" gradientUnits="userSpaceOnUse" x1="12.5789" y1="8.0647" x2="3.6355" y2="8.0647">
		<stop  offset="0" style="stop-color:#363636"/>
		<stop  offset="1" style="stop-color:#000000"/>
	</linearGradient>
	<polygon fill="url(#SVGID_3_)" points="10.3,4.2 5.9,4.2 3.6,8.1 5.9,11.9 10.3,11.9 12.6,8.1 	"/>
	<linearGradient id="SVGID_4_" gradientUnits="userSpaceOnUse" x1="4.1849" y1="8.0647" x2="12.0295" y2="8.0647">
		<stop  offset="0" style="stop-color:#212121"/>
		<stop  offset="1" style="stop-color:#000000"/>
	</linearGradient>
	<polygon fill="url(#SVGID_4_)" points="10.1,4.7 6.1,4.7 4.2,8.1 6.1,11.5 10.1,11.5 12,8.1 	"/>
</g>
<g>
	<circle fill="#303030" cx="8.1" cy="372" r="6.6"/>
	<linearGradient id="SVGID_5_" gradientUnits="userSpaceOnUse" x1="1.4597" y1="370.9042" x2="14.7547" y2="370.9042">
		<stop  offset="0" style="stop-color:#B5B5B5"/>
		<stop  offset="1" style="stop-color:#000000"/>
	</linearGradient>
	<circle fill="url(#SVGID_5_)" cx="8.1" cy="370.9" r="6.6"/>
	<linearGradient id="SVGID_6_" gradientUnits="userSpaceOnUse" x1="13.629" y1="370.9042" x2="2.5854" y2="370.9042">
		<stop  offset="0" style="stop-color:#BFBFBF"/>
		<stop  offset="1" style="stop-color:#2B2B2B"/>
	</linearGradient>
	<circle fill="url(#SVGID_6_)" cx="8.1" cy="370.9" r="5.5"/>
	<linearGradient id="SVGID_7_" gradientUnits="userSpaceOnUse" x1="12.5789" y1="370.9042" x2="3.6355" y2="370.9042">
		<stop  offset="0" style="stop-color:#363636"/>
		<stop  offset="1" style="stop-color:#000000"/>
	</linearGradient>
	<polygon fill="url(#SVGID_7_)" points="10.3,367 5.9,367 3.6,370.9 5.9,374.8 10.3,374.8 12.6,370.9 	"/>
	<linearGradient id="SVGID_8_" gradientUnits="userSpaceOnUse" x1="4.1849" y1="370.9042" x2="12.0295" y2="370.9042">
		<stop  offset="0" style="stop-color:#212121"/>
		<stop  offset="1" style="stop-color:#000000"/>
	</linearGradient>
	<polygon fill="url(#SVGID_8_)" points="10.1,367.5 6.1,367.5 4.2,370.9 6.1,374.3 10.1,374.3 12,370.9 	"/>
</g>
<g>
	<circle fill="#303030" cx="82.6" cy="9.2" r="6.6"/>
	<linearGradient id="SVGID_9_" gradientUnits="userSpaceOnUse" x1="75.9238" y1="8.0647" x2="89.2188" y2="8.0647">
		<stop  offset="0" style="stop-color:#B5B5B5"/>
		<stop  offset="1" style="stop-color:#000000"/>
	</linearGradient>
	<circle fill="url(#SVGID_9_)" cx="82.6" cy="8.1" r="6.6"/>
	<linearGradient id="SVGID_10_" gradientUnits="userSpaceOnUse" x1="88.0931" y1="8.0647" x2="77.0494" y2="8.0647">
		<stop  offset="0" style="stop-color:#BFBFBF"/>
		<stop  offset="1" style="stop-color:#2B2B2B"/>
	</linearGradient>
	<circle fill="url(#SVGID_10_)" cx="82.6" cy="8.1" r="5.5"/>
	<linearGradient id="SVGID_11_" gradientUnits="userSpaceOnUse" x1="87.0429" y1="8.0647" x2="78.0996" y2="8.0647">
		<stop  offset="0" style="stop-color:#363636"/>
		<stop  offset="1" style="stop-color:#000000"/>
	</linearGradient>
	<polygon fill="url(#SVGID_11_)" points="84.8,4.2 80.3,4.2 78.1,8.1 80.3,11.9 84.8,11.9 87,8.1 	"/>
	<linearGradient id="SVGID_12_" gradientUnits="userSpaceOnUse" x1="78.649" y1="8.0647" x2="86.4936" y2="8.0647">
		<stop  offset="0" style="stop-color:#212121"/>
		<stop  offset="1" style="stop-color:#000000"/>
	</linearGradient>
	<polygon fill="url(#SVGID_12_)" points="84.5,4.7 80.6,4.7 78.6,8.1 80.6,11.5 84.5,11.5 86.5,8.1 	"/>
</g>
<g>
	<circle fill="#303030" cx="82.6" cy="372" r="6.6"/>
	<linearGradient id="SVGID_13_" gradientUnits="userSpaceOnUse" x1="75.9238" y1="370.9042" x2="89.2188" y2="370.9042">
		<stop  offset="0" style="stop-color:#B5B5B5"/>
		<stop  offset="1" style="stop-color:#000000"/>
	</linearGradient>
	<circle fill="url(#SVGID_13_)" cx="82.6" cy="370.9" r="6.6"/>
	<linearGradient id="SVGID_14_" gradientUnits="userSpaceOnUse" x1="88.0931" y1="370.9042" x2="77.0494" y2="370.9042">
		<stop  offset="0" style="stop-color:#BFBFBF"/>
		<stop  offset="1" style="stop-color:#2B2B2B"/>
	</linearGradient>
	<circle fill="url(#SVGID_14_)" cx="82.6" cy="370.9" r="5.5"/>
	<linearGradient id="SVGID_15_" gradientUnits="userSpaceOnUse" x1="87.0429" y1="370.9042" x2="78.0996" y2="370.9042">
		<stop  offset="0" style="stop-color:#363636"/>
		<stop  offset="1" style="stop-color:#000000"/>
	</linearGradient>
	<polygon fill="url(#SVGID_15_)" points="84.8,367 80.3,367 78.1,370.9 80.3,374.8 84.8,374.8 87,370.9 	"/>
	<linearGradient id="SVGID_16_" gradientUnits="userSpaceOnUse" x1="78.649" y1="370.9042" x2="86.4936" y2="370.9042">
		<stop  offset="0" style="stop-color:#212121"/>
		<stop  offset="1" style="stop-color:#000000"/>
	</linearGradient>
	<polygon fill="url(#SVGID_16_)" points="84.5,367.5 80.6,367.5 78.6,370.9 80.6,374.3 84.5,374.3 86.5,370.9 	"/>
</g>
<g>
	<path fill="#EBEBEB" d="M26.9,351c-2.7,0-4.8,2.2-4.8,4.8c0,2.7,2.2,4.8,4.8,4.8c2.7,0,4.8-2.2,4.8-4.8
		C31.7,353.1,29.5,351,26.9,351z M26.9,358.5c-1.5,0-2.7-1.2-2.7-2.7c0-1.5,1.2-2.7,2.7-2.7c1.5,0,2.7,1.2,2.7,2.7
		C29.5,357.3,28.3,358.5,26.9,358.5z"/>
	<path fill="#EBEBEB" d="M47,351v0.8c-0.8-0.5-1.7-0.8-2.7-0.8c-2.7,0-4.8,2.2-4.8,4.8c0,2.7,2.2,4.8,4.8,4.8c1,0,1.9-0.3,2.7-0.8
		v0.8h2.1V351H47z M44.4,358.5c-1.5,0-2.7-1.2-2.7-2.7c0-1.5,1.2-2.7,2.7-2.7c1.5,0,2.7,1.2,2.7,2.7C47,357.3,45.8,358.5,44.4,358.5
		z"/>
	<path fill="#EBEBEB" d="M19.3,354.6c1-0.9,1.6-2.2,1.6-3.7h-2c0,1.5-1.1,2.7-2.5,2.7c0,0,0,0,0,0V351h-2.1v9.6h2.1v-4.8
		c0,0,0,0,0,0c1.5,0,2.7,1.2,2.7,2.7v2.1h2.1v-2.1C21.2,356.9,20.4,355.5,19.3,354.6z"/>
	<path fill="#EBEBEB" d="M39.7,351.8c-1.3-1-3.1-1.1-4.7-0.4V351h-2.1v9.6h2.1v-6.7c1-1,2.6-1.1,3.6-0.2
		C38.9,353,39.3,352.4,39.7,351.8z"/>
	<path fill="#EBEBEB" d="M57.4,357.7c-0.5,0.5-1.2,0.8-1.9,0.8c-1.5,0-2.7-1.2-2.7-2.7V351h-2.1v4.8c0,2.7,2.2,4.8,4.8,4.8
		c1.3,0,2.5-0.5,3.4-1.4L57.4,357.7z"/>
	<polygon fill="#949494" points="75.8,352.4 73.9,350.5 71.4,352.9 69,350.5 69,350.5 69,350.5 69,350.5 69,350.5 67.5,350.9 
		67.1,352.4 69.5,354.8 67.1,357.3 69,359.2 71.4,356.7 73.9,359.2 75.8,357.3 73.3,354.8 	"/>
	<path fill="#949494" d="M64.8,348.3c-2.7,0-4.8,2.2-4.8,4.8v7.5h2.7v-3.8h2.1v-2.7h-2.1v-1c0-1.2,1-2.1,2.1-2.1
		c0.6,0,1.1,0.2,1.5,0.6l0.4-1.5l1.5-0.4l0,0C67.3,348.8,66.1,348.3,64.8,348.3z"/>
</g>
</svg>
