<?xml version="1.0" encoding="utf-8"?>
<!-- Generator: Adobe Illustrator 22.1.0, SVG Export Plug-In . SVG Version: 6.00 Build 0)  -->
<svg version="1.1"
	 id="svg8" inkscape:version="0.92.2 5c3e80d, 2017-08-06" sodipodi:docname="MyModule.svg" xmlns:cc="http://creativecommons.org/ns#" xmlns:dc="http://purl.org/dc/elements/1.1/" xmlns:inkscape="http://www.inkscape.org/namespaces/inkscape" xmlns:rdf="http://www.w3.org/1999/02/22-rdf-syntax-ns#" xmlns:sodipodi="http://sodipodi.sourceforge.net/DTD/sodipodi-0.dtd" xmlns:svg="http://www.w3.org/2000/svg"
	 xmlns="http://www.w3.org/2000/svg" xmlns:xlink="http://www.w3.org/1999/xlink" x="0px" y="0px" viewBox="0 0 90 380"
	 enable-background="new 0 0 90 380" xml:space="preserve">
<sodipodi:namedview  bordercolor="#666666" borderopacity="1.0" id="base" inkscape:bbox-nodes="true" inkscape:current-layer="layer1" inkscape:cx="188.48062" inkscape:cy="170.63765" inkscape:document-units="mm" inkscape:pageopacity="0.0" inkscape:pageshadow="2" inkscape:snap-bbox="true" inkscape:snap-bbox-edge-midpoints="true" inkscape:snap-page="true" inkscape:window-height="900" inkscape:window-maximized="0" inkscape:window-width="1600" inkscape:window-x="0" inkscape:window-y="0" inkscape:zoom="1.4" pagecolor="#ffffff" showgrid="false" units="px">
	</sodipodi:namedview>
<g id="layer1" transform="translate(0,-196.45832)" inkscape:groupmode="layer" inkscape:label="Layer 1">
	<path id="rect817" inkscape:connector-curvature="0" fill="#515559" d="M0,196.5h90v380H0V196.5z"/>
	<path fill="#686E73" d="M75.8,539.4H14.2c-5.2,0-9.3-4.2-9.3-9.3v-91.8c0-5.2,4.2-9.3,9.3-9.3h61.7c5.2,0,9.3,4.2,9.3,9.3V530
		C85.2,535.2,81,539.4,75.8,539.4z"/>
	<g>
		<path fill="#FFFFFF" d="M16.8,223.7l1.4,1.8h-2.3l-0.4-0.5c-0.7,0.4-1.5,0.6-2.3,0.6c-3.2,0-4.4-2.7-4.4-5.5
			c0-2.9,1.3-5.5,4.4-5.5c3.3,0,4.4,2.7,4.4,5.5C17.7,221.4,17.5,222.6,16.8,223.7z M13.2,216.6c-2.1,0-2.5,1.9-2.5,3.5
			c0,1.6,0.5,3.5,2.5,3.5c0.3,0,0.6-0.1,0.8-0.2c-0.3-0.2-0.6-0.4-0.9-0.4v-1.5c0.9,0.1,1.5,0.3,2.3,0.8c0.3-0.7,0.4-1.4,0.4-2.2
			C15.7,218.5,15.3,216.6,13.2,216.6z"/>
		<path fill="#FFFFFF" d="M25.5,225.5H24l-0.1-0.4c-0.5,0.4-1,0.6-1.5,0.6c-2.1,0-3.1-1.2-3.1-3.3v-4.4h1.8v4.3c0,1,0.2,1.6,1.4,1.6
			c0.7,0,1.2-0.5,1.2-1.2v-4.7h1.8V225.5z"/>
		<path fill="#FFFFFF" d="M33.4,225.3l-1.6,0.4l-0.2-0.6c-0.5,0.4-1.2,0.6-1.8,0.6c-1.5,0-2.8-0.9-2.8-2.4c0-1.4,0.9-2.3,2.7-2.4
			c0.4,0,1.2,0,1.2,0c0.2,0,0.4-0.1,0.5-0.2v-0.3c0-0.5-0.5-0.9-1-0.9c-0.6,0-1.2,0.2-1.4,0.8l-1.6-0.5c0.4-1.3,1.6-1.9,3-1.9
			c1.4,0,2.8,0.9,2.8,2.3v3.9L33.4,225.3z M31.4,222.1c-0.2,0.1-0.3,0.1-0.5,0.1h-0.9c-0.6,0-1.2,0.3-1.2,1c0,0.6,0.7,0.9,1.2,0.9
			c0.6,0,1.1-0.2,1.5-0.6V222.1z"/>
		<path fill="#FFFFFF" d="M41.3,225.5h-1.8v-4.2c0-1-0.2-1.7-1.3-1.7c-0.7,0-1.2,0.6-1.2,1.2v4.7H35v-7.6h1.5l0.1,0.5
			c0.4-0.4,1-0.6,1.6-0.6c2.2,0,3.1,1.4,3.1,3.5V225.5z"/>
		<path fill="#FFFFFF" d="M46.4,219.5h-1v3.8c0,0.5,0.2,0.7,0.8,0.7v1.6h-0.7c-1.2,0-1.8-0.9-1.8-2.1v-3.9h-0.9v-1.6h0.9v-2.1h1.8
			v2.1h1V219.5z"/>
		<path fill="#FFFFFF" d="M51,225.7c-2.4,0-3.4-1.7-3.4-3.9c0-2.2,1-3.9,3.4-3.9c2.4,0,3.4,1.7,3.4,3.9
			C54.4,224,53.4,225.7,51,225.7z M51,219.6c-1.3,0-1.5,1.1-1.5,2.2c0,1.1,0.2,2.1,1.5,2.1c1.3,0,1.5-1.1,1.5-2.1
			C52.5,220.7,52.3,219.6,51,219.6z"/>
		<path fill="#FFFFFF" d="M62.2,217.9l-2.9,7.6h-1.5l-2.9-7.6h2l1.6,5l1.7-5H62.2z"/>
		<path fill="#FFFFFF" d="M69.7,225.5h-1.8v-4.2c0-1-0.2-1.7-1.3-1.7c-0.7,0-1.2,0.6-1.2,1.2v4.7h-1.8v-7.6H65l0.1,0.5
			c0.4-0.4,1-0.6,1.6-0.6c2.2,0,3.1,1.4,3.1,3.5V225.5z"/>
		<path fill="#FFFFFF" d="M72.5,216.6c-0.6,0-1.1-0.5-1.1-1.1s0.5-1.1,1.1-1.1c0.6,0,1.1,0.5,1.1,1.1S73.2,216.6,72.5,216.6z
			 M73.4,225.5h-1.8v-7.6h1.8V225.5z"/>
		<path fill="#FFFFFF" d="M77.2,225.5h-1.8v-10.7h1.8V225.5z M81.9,225.5h-2l-2.6-4.2l2.2-3.4h1.9l-2.2,3.4L81.9,225.5z"/>
	</g>
	<g>
		<g>
			<path fill="#B2BBC4" d="M29.3,293.9c-2.3,0-3.1-1.9-3.1-3.9c0-2,0.9-3.9,3.1-3.9s3.1,1.9,3.1,3.9
				C32.4,292.1,31.5,293.9,29.3,293.9z M29.3,287.5c-1.5,0-1.8,1.3-1.8,2.5s0.3,2.5,1.8,2.5s1.8-1.3,1.8-2.5S30.8,287.5,29.3,287.5z
				"/>
			<path fill="#B2BBC4" d="M39.2,292.6c-0.8,1-1.4,1.4-2.6,1.4c-2.2,0-3.2-1.9-3.2-3.9c0-2,1-3.9,3.2-3.9c1.2,0,1.9,0.4,2.6,1.3
				l-1,0.9c-0.5-0.5-0.9-0.9-1.6-0.9c-1.4,0-1.9,1.4-1.9,2.5c0,1.2,0.4,2.5,1.9,2.5c0.8,0,1.2-0.4,1.7-0.9L39.2,292.6z"/>
			<path fill="#B2BBC4" d="M45.5,287.6h-2.2v6.2H42v-6.2h-2.2v-1.3h5.7V287.6z"/>
			<path fill="#B2BBC4" d="M52.1,293.9h-1.5l-0.7-2h-2.7l-0.7,2H45l2.9-7.6h1.2L52.1,293.9z M49.4,290.7l-0.9-2.4l-0.9,2.4H49.4z"/>
			<path fill="#B2BBC4" d="M57.8,286.3l-2.6,7.6h-1.3l-2.5-7.6h1.4l1.8,5.5l1.8-5.5H57.8z"/>
			<path fill="#B2BBC4" d="M63.8,293.9h-5.1v-7.6h5.1v1.3H60v1.7h3.3v1.3H60v1.9h3.8V293.9z"/>
		</g>
	</g>
	<g>
		<g>
			<path fill="#B2BBC4" d="M31.1,359.8c-0.8,1-1.4,1.4-2.6,1.4c-2.2,0-3.2-1.9-3.2-3.9c0-2,1-3.9,3.2-3.9c1.2,0,1.9,0.4,2.6,1.3
				l-1,0.9c-0.5-0.5-0.9-0.9-1.6-0.9c-1.4,0-1.9,1.4-1.9,2.5c0,1.2,0.4,2.5,1.9,2.5c0.8,0,1.2-0.4,1.7-0.9L31.1,359.8z"/>
			<path fill="#B2BBC4" d="M34.8,361.1c-2.3,0-3.1-1.9-3.1-3.9c0-2,0.9-3.9,3.1-3.9s3.1,1.9,3.1,3.9C38,359.2,37.1,361.1,34.8,361.1
				z M34.8,354.7c-1.5,0-1.8,1.3-1.8,2.5s0.3,2.5,1.8,2.5s1.8-1.3,1.8-2.5S36.3,354.7,34.8,354.7z"/>
			<path fill="#B2BBC4" d="M44.8,357.9c0,1.9-0.8,3.2-2.9,3.2s-2.9-1.3-2.9-3.2v-4.4h1.4v4.4c0,1.1,0.2,2,1.5,2c1.3,0,1.5-0.9,1.5-2
				v-4.4h1.4V357.9z"/>
			<path fill="#B2BBC4" d="M50,357.7c0.1,0.1,0.3,0.3,0.4,0.5l1.8,2.8h-1.6l-1.5-2.6c-0.2-0.4-0.4-0.6-0.8-0.6h-0.5v3.1h-1.4v-7.6
				H49c1.5,0,2.6,0.7,2.6,2.3C51.6,356.7,51,357.5,50,357.7z M49,354.8h-1.4v1.9H49c0.7,0,1.2-0.2,1.2-1
				C50.2,354.9,49.7,354.8,49,354.8z"/>
			<path fill="#B2BBC4" d="M55.6,361.1c-1.6,0-2.7-0.7-3-2.2l1.3-0.2c0.2,0.8,0.9,1.2,1.7,1.2c0.6,0,1.4-0.3,1.4-1.1
				c0-1.6-4.2-0.5-4.2-3.3c0-1.4,1.3-2.1,2.6-2.1c1.3,0,2.2,0.5,2.8,1.7l-1.2,0.5c-0.4-0.7-0.8-1-1.6-1c-0.5,0-1.2,0.2-1.2,0.9
				c0,1.3,4.2,0.5,4.2,3.3C58.4,360.3,57,361.1,55.6,361.1z"/>
			<path fill="#B2BBC4" d="M64.7,361h-5.1v-7.6h5.1v1.3H61v1.7h3.3v1.3H61v1.9h3.8V361z"/>
		</g>
	</g>
	<g>
		<g>
			<path fill="#B2BBC4" d="M21.5,311.1c-0.6,0.7-1,1-1.9,1c-1.7,0-2.4-1.4-2.4-2.9c0-1.5,0.7-2.9,2.4-2.9c0.9,0,1.4,0.3,1.9,0.9
				l-0.7,0.7c-0.3-0.4-0.7-0.6-1.2-0.6c-1.1,0-1.4,1-1.4,1.9c0,0.9,0.3,1.9,1.4,1.9c0.6,0,0.9-0.3,1.2-0.7L21.5,311.1z"/>
			<path fill="#B2BBC4" d="M26.5,306.4l-1.9,5.6h-1l-1.9-5.6h1.1l1.3,4.1l1.3-4.1H26.5z"/>
		</g>
	</g>
	<g>
		<g>
			<path fill="#B2BBC4" d="M72.5,277.1h-1.8v1.8h-1.2v-1.8h-1.8V276h1.8v-1.8h1.2v1.8h1.8V277.1z"/>
			<path fill="#B2BBC4" d="M78.7,277.8h-0.6v1.7h-1.3v-1.7h-3.4v-1.1l2.9-4.8h1.4l-2.8,4.6h1.8v-2.1l1.3,0.2v2h0.6V277.8z"/>
		</g>
	</g>
	<g>
		<g>
			<path fill="#B2BBC4" d="M45.2,236.8c-2.1,0-2.8-2.1-2.8-3.9c0-1.7,0.7-3.9,2.8-3.9c2.1,0,2.7,2.1,2.7,3.9S47.3,236.8,45.2,236.8z
				 M45.2,230.4c-1.2,0-1.4,1.7-1.4,2.6c0,0.9,0.2,2.6,1.4,2.6c1.2,0,1.4-1.7,1.4-2.6C46.6,232.1,46.4,230.4,45.2,230.4z"/>
		</g>
	</g>
	<g>
		<g>
			<path fill="#B2BBC4" d="M15.4,277.1h-3.2v-1h3.2V277.1z"/>
			<path fill="#B2BBC4" d="M21.6,277.8H21v1.7h-1.3v-1.7h-3.4v-1.1l2.9-4.8h1.4l-2.8,4.6h1.8v-2.1l1.3,0.2v2h0.6V277.8z"/>
		</g>
	</g>
	<path d="M75.1,520.4H53.9c-2,0-3.7-1.7-3.7-3.7v-34.2c0-2,1.7-3.7,3.7-3.7h21.3c2,0,3.7,1.7,3.7,3.7v34.2
		C78.8,518.7,77.2,520.4,75.1,520.4z"/>
	<g>
		<path fill="#C80000" d="M66.4,558.8H23.6c-2,0-3.7-1.7-3.7-3.7v-5.3c0-2,1.7-3.7,3.7-3.7h42.9c2,0,3.7,1.7,3.7,3.7v5.3
			C70.1,557.2,68.5,558.8,66.4,558.8z"/>
		<path fill="#FFFFFF" d="M66.4,558.8H54.4v-12.6h12.1c2,0,3.7,1.7,3.7,3.7v5.3C70.1,557.2,68.5,558.8,66.4,558.8z"/>
		<g>
			<path fill="#FFFFFF" d="M22.5,555.9v-7h1.3v7H22.5z M25.3,552.3l2.6,3.5h-1.5l-2.5-3.5l2.3-3.5h1.4L25.3,552.3z"/>
			<path fill="#FFFFFF" d="M30.9,555.9c-2.1,0-2.9-1.7-2.9-3.6s0.8-3.6,2.9-3.6s2.9,1.7,2.9,3.6C33.8,554.2,33,555.9,30.9,555.9z
				 M30.9,550c-1.4,0-1.6,1.2-1.6,2.3s0.3,2.3,1.6,2.3s1.6-1.2,1.6-2.3S32.3,550,30.9,550z"/>
			<path fill="#FFFFFF" d="M38.4,552.8c0.1,0.1,0.3,0.3,0.3,0.4l1.6,2.6h-1.5l-1.4-2.4c-0.2-0.4-0.3-0.5-0.8-0.5h-0.5v2.9H35v-7h2.5
				c1.4,0,2.4,0.6,2.4,2.1C39.9,551.9,39.3,552.6,38.4,552.8z M37.5,550.1h-1.3v1.8h1.3c0.6,0,1.1-0.2,1.1-0.9
				C38.6,550.2,38.1,550.1,37.5,550.1z"/>
			<path fill="#FFFFFF" d="M47.1,555.9h-1.4L45,554h-2.5l-0.7,1.8h-1.4l2.7-7h1.1L47.1,555.9z M44.6,552.9l-0.8-2.3l-0.8,2.3H44.6z"
				/>
			<path fill="#FFFFFF" d="M52.1,555.9h-4.3v-7h1.3v5.8h3.1V555.9z"/>
		</g>
		<g>
			<path fill="#C80000" d="M61.2,549.5h-3.8v2.5h3.4v0.6h-3.4v3.3h-0.6v-7h4.4V549.5z"/>
			<path fill="#C80000" d="M67.3,555.9h-0.7l-2-3.1l-2,3.1h-0.7l2.3-3.6l-2.2-3.4h0.7l1.8,2.9l1.8-2.9h0.7l-2.2,3.4L67.3,555.9z"/>
		</g>
	</g>
	<g>
		<path fill="#B2BBC4" d="M62.4,441.4c0,1.9-0.8,3.2-2.9,3.2s-2.9-1.3-2.9-3.2V437H58v4.4c0,1.1,0.2,2,1.5,2c1.3,0,1.5-0.9,1.5-2
			V437h1.4V441.4z"/>
		<path fill="#B2BBC4" d="M69.3,444.6h-1.1l-3-4.7v4.7h-1.4V437h1.1l3,4.7V437h1.4V444.6z"/>
		<path fill="#B2BBC4" d="M72.2,444.6h-1.4V437h1.4V444.6z"/>
	</g>
	<g>
		<path d="M30.8,533.7h-1.3v-5.9l-1,0.6l-0.6-1l2-1.3h1V533.7z"/>
		<path d="M38.5,526.1l-2.6,7.6h-1.3l-2.5-7.6h1.4l1.8,5.5l1.8-5.5H38.5z"/>
		<path d="M42.8,525.3l-3.5,9.2H38l3.5-9.2H42.8z"/>
		<path d="M45.8,533.7c-2.3,0-3.1-1.9-3.1-3.9s0.9-3.9,3.1-3.9s3.1,1.9,3.1,3.9C49,531.9,48.1,533.7,45.8,533.7z M45.8,527.3
			c-1.5,0-1.8,1.3-1.8,2.5s0.3,2.5,1.8,2.5s1.8-1.3,1.8-2.5S47.3,527.3,45.8,527.3z"/>
		<path d="M55.7,532.4c-0.8,1-1.4,1.4-2.6,1.4c-2.2,0-3.2-1.9-3.2-3.9c0-2,1-3.9,3.2-3.9c1.2,0,1.9,0.4,2.6,1.3l-1,0.9
			c-0.5-0.5-0.9-0.9-1.6-0.9c-1.4,0-1.9,1.4-1.9,2.5s0.4,2.5,1.9,2.5c0.8,0,1.2-0.4,1.7-0.9L55.7,532.4z"/>
		<path d="M62.1,527.4h-2.2v6.2h-1.4v-6.2h-2.2v-1.3h5.7V527.4z"/>
	</g>
	<g>
		<path fill="#B2BBC4" d="M23.3,441.4c0,1.9-0.8,3.2-2.9,3.2s-2.9-1.3-2.9-3.2V437h1.4v4.4c0,1.1,0.2,2,1.5,2c1.3,0,1.5-0.9,1.5-2
			V437h1.4V441.4z"/>
		<path fill="#B2BBC4" d="M30.2,444.6h-1.1l-3-4.7v4.7h-1.4V437h1.1l3,4.7V437h1.4V444.6z"/>
		<path fill="#B2BBC4" d="M33.1,444.6h-1.4V437h1.4V444.6z"/>
	</g>
	<g>
		<path fill="#FFFFFF" d="M59.2,489.3c-1.7,0-2.3-1.4-2.3-2.9c0-1.5,0.6-2.9,2.3-2.9c1.7,0,2.3,1.4,2.3,2.9
			C61.5,487.9,60.8,489.3,59.2,489.3z M59.2,484.6c-1.1,0-1.3,1-1.3,1.9c0,0.9,0.2,1.9,1.3,1.9s1.3-1,1.3-1.9
			C60.5,485.6,60.3,484.6,59.2,484.6z"/>
		<path fill="#FFFFFF" d="M66.5,486.9c0,1.4-0.6,2.4-2.1,2.4s-2.1-1-2.1-2.4v-3.3h1v3.2c0,0.8,0.2,1.5,1.1,1.5c1,0,1.1-0.7,1.1-1.5
			v-3.2h1V486.9z"/>
		<path fill="#FFFFFF" d="M71.5,484.6h-1.6v4.6h-1v-4.6h-1.6v-1h4.2V484.6z"/>
	</g>
	<g>
		<path d="M23.1,489.2h-1v-5.6h1V489.2z"/>
		<path d="M28.3,489.2h-0.8l-2.2-3.5v3.5h-1v-5.6h0.8l2.2,3.5v-3.5h1V489.2z"/>
	</g>
	<rect x="6" y="377.4" fill="#B2BBC4" stroke="#515559" stroke-miterlimit="10" width="11.1" height="36.4"/>
	<rect x="17.1" y="377.4" fill="#B2BBC4" stroke="#515559" stroke-miterlimit="10" width="11.1" height="36.4"/>
	<rect x="28.3" y="377.4" fill="#B2BBC4" stroke="#515559" stroke-miterlimit="10" width="11.1" height="36.4"/>
	<rect x="39.4" y="377.4" fill="#B2BBC4" stroke="#515559" stroke-miterlimit="10" width="11.1" height="36.4"/>
	<rect x="50.6" y="377.4" fill="#B2BBC4" stroke="#515559" stroke-miterlimit="10" width="11.1" height="36.4"/>
	<rect x="61.7" y="377.4" fill="#B2BBC4" stroke="#515559" stroke-miterlimit="10" width="11.1" height="36.4"/>
	<rect x="72.9" y="377.4" fill="#B2BBC4" stroke="#515559" stroke-miterlimit="10" width="11.1" height="36.4"/>
	<rect x="11.6" y="377.4" fill="#333638" stroke="#515559" stroke-miterlimit="10" width="11.1" height="18.2"/>
	<rect x="22.7" y="377.4" fill="#333638" stroke="#515559" stroke-miterlimit="10" width="11.1" height="18.2"/>
	<rect x="45" y="377.4" fill="#333638" stroke="#515559" stroke-miterlimit="10" width="11.1" height="18.2"/>
	<rect x="56.1" y="377.4" fill="#333638" stroke="#515559" stroke-miterlimit="10" width="11.1" height="18.2"/>
	<rect x="67.3" y="377.4" fill="#333638" stroke="#515559" stroke-miterlimit="10" width="11.1" height="18.2"/>
	<g>
		<path fill="#B4C3CF" d="M34.4,278.6L45,260.2l0,0l10.6,18.4c6.3-3.7,10.6-10.5,10.6-18.4c0-11.7-9.5-21.2-21.2-21.2
			s-21.2,9.5-21.2,21.2C23.8,268,28,274.9,34.4,278.6z"/>
		<g>
			<line fill="none" stroke="#515559" stroke-width="2" stroke-miterlimit="10" x1="45" y1="260.2" x2="55.8" y2="278.9"/>
			<line fill="none" stroke="#515559" stroke-width="2" stroke-miterlimit="10" x1="45" y1="260.2" x2="64.4" y2="269.9"/>
			<line fill="none" stroke="#515559" stroke-width="2" stroke-miterlimit="10" x1="45" y1="260.2" x2="66.5" y2="257.7"/>
			<line fill="none" stroke="#515559" stroke-width="2" stroke-miterlimit="10" x1="45" y1="260.3" x2="61.7" y2="246.3"/>
			<line fill="none" stroke="#515559" stroke-width="2" stroke-miterlimit="10" x1="45" y1="260.2" x2="51.2" y2="239.4"/>
			<line fill="none" stroke="#515559" stroke-width="2" stroke-miterlimit="10" x1="45" y1="260.2" x2="38.8" y2="239.4"/>
			<line fill="none" stroke="#515559" stroke-width="2" stroke-miterlimit="10" x1="45" y1="260.3" x2="28.3" y2="246.3"/>
			<line fill="none" stroke="#515559" stroke-width="2" stroke-miterlimit="10" x1="45" y1="260.2" x2="23.5" y2="257.7"/>
			<line fill="none" stroke="#515559" stroke-width="2" stroke-miterlimit="10" x1="45" y1="260.2" x2="25.6" y2="269.9"/>
			<line fill="none" stroke="#515559" stroke-width="2" stroke-miterlimit="10" x1="45.1" y1="260.2" x2="34.2" y2="278.9"/>
		</g>
	</g>
	<path fill="none" stroke="#515559" stroke-width="2" stroke-miterlimit="10" d="M79.1,414.6H10.9c-3,0-5.5-2.5-5.5-5.5v-26.2
		c0-3,2.5-5.5,5.5-5.5h68.3c3,0,5.5,2.5,5.5,5.5v26.2C84.6,412.1,82.2,414.6,79.1,414.6z"/>
	<rect x="8.7" y="227.1" fill="#C80000" width="9.5" height="2.1"/>
	<rect x="21.3" y="329.7" fill="#B2BBC4" width="45.5" height="1"/>
	<g>
		<g>
			<path fill="#868F94" d="M67,306.3v25l9.1,15.8c6.8-3.7,11.4-10.8,11.4-19.1C87.5,316.4,78.4,307,67,306.3z"/>
			<path fill="#868F94" d="M64.5,306.3C53.1,307,44.1,316.4,44.1,328c0,8.2,4.6,15.4,11.4,19.1l9.1-15.8V306.3z"/>
		</g>
		<rect x="64.5" y="306.3" fill="#FFFFFF" width="2.5" height="25"/>
	</g>
</g>
</svg>
